<?xml version="1.0" encoding="utf-8"?>
<svg version="1.1" xmlns:xlink="http://www.w3.org/1999/xlink" width="12px" height="2px" xmlns="http://www.w3.org/2000/svg">
  <g transform="matrix(1 0 0 1 -59 -16 )">
    <path d="M 1.11864406779661 0.0303030340909087  C 1.71773260764576 0.0303030340909087  2.20338982627119 0.464451153771218  2.20338982627119 0.999999999999999  C 2.20338982627119 1.53554884622878  1.71773260764576 1.96969696590909  1.11864406779661 1.96969696590909  C 0.519555527947465 1.96969696590909  0.033898309322034 1.53554884622878  0.033898309322034 0.999999999999999  C 0.033898309322034 0.464451153771218  0.519555527947465 0.0303030340909087  1.11864406779661 0.0303030340909087  Z M 7.08474575847458 0.999999999999999  C 7.08474575847458 0.464451153771218  6.59908853984915 0.0303030340909087  6 0.0303030340909087  C 5.40091146015085 0.0303030340909087  4.91525424152542 0.464451153771218  4.91525424152542 0.999999999999999  C 4.91525424152542 1.53554884622878  5.40091146015085 1.96969696590909  6 1.96969696590909  C 6.59908853984915 1.96969696590909  7.08474575847458 1.53554884622878  7.08474575847458 0.999999999999999  Z M 11.966101690678 0.999999999999999  C 11.966101690678 0.464451153771218  11.4804444720525 0.0303030340909087  10.8813559322034 0.0303030340909087  C 10.2822673923542 0.0303030340909087  9.79661017372881 0.464451153771218  9.79661017372881 0.999999999999999  C 9.79661017372881 1.53554884622878  10.2822673923542 1.96969696590909  10.8813559322034 1.96969696590909  C 11.4804444720525 1.96969696590909  11.966101690678 1.53554884622878  11.966101690678 0.999999999999999  Z " fill-rule="nonzero" fill="#5c5c66" stroke="none" transform="matrix(1 0 0 1 59 16 )" />
  </g>
</svg>