<?xml version="1.0" encoding="utf-8"?>
<svg version="1.1" xmlns:xlink="http://www.w3.org/1999/xlink" width="10px" height="10px" xmlns="http://www.w3.org/2000/svg">
  <g transform="matrix(1 0 0 1 -522 -368 )">
    <path d="M 9.8958993902439 4.99365740740741  C 9.8958993902439 4.72092592592593  9.6775 4.49983024691358  9.40809451219512 4.49983024691358  L 5.48780487804878 4.49983024691358  L 5.48780487804878 0.531141975308642  C 5.48780487804878 0.258410493827161  5.26940548780488 0.0373148148148149  5 0.0373148148148149  C 4.73059451219512 0.0373148148148149  4.51219512195122 0.258410493827161  4.51219512195122 0.531141975308642  L 4.51219512195122 4.49983024691358  L 0.591920731707317 4.49983024691358  C 0.322515243902439 4.49983024691358  0.104115853658537 4.72092592592593  0.104115853658537 4.99365740740741  C 0.104115853658537 5.26638888888889  0.322515243902439 5.48748456790123  0.591920731707317 5.48748456790123  L 4.51219512195122 5.48748456790123  L 4.51219512195122 9.45615740740741  C 4.51219512195122 9.72888888888889  4.73059451219512 9.94998456790123  5 9.94998456790123  C 5.26940548780488 9.94998456790123  5.48780487804878 9.72888888888889  5.48780487804878 9.45615740740741  L 5.48780487804878 5.48748456790123  L 9.40809451219512 5.48748456790123  C 9.6775 5.48748456790123  9.8958993902439 5.26638888888889  9.8958993902439 4.99365740740741  Z " fill-rule="nonzero" fill="#000000" stroke="none" transform="matrix(1 0 0 1 522 368 )" />
  </g>
</svg>