<?xml version="1.0" encoding="utf-8"?>
<svg version="1.1" xmlns:xlink="http://www.w3.org/1999/xlink" width="7px" height="7px" xmlns="http://www.w3.org/2000/svg">
  <g transform="matrix(1 0 0 1 -1 -1 )">
    <path d="M 4.5 1  C 6.46 1  8 2.54  8 4.5  C 8 6.46  6.46 8  4.5 8  C 2.54 8  1 6.46  1 4.5  C 1 2.54  2.54 1  4.5 1  Z " fill-rule="nonzero" fill="#f2f2f2" stroke="none" />
    <path d="M 4.5 1.5  C 6.18 1.5  7.5 2.82  7.5 4.5  C 7.5 6.18  6.18 7.5  4.5 7.5  C 2.82 7.5  1.5 6.18  1.5 4.5  C 1.5 2.82  2.82 1.5  4.5 1.5  Z " stroke-width="1" stroke="#bfbfbf" fill="none" />
  </g>
</svg>