<?xml version="1.0" encoding="utf-8"?>
<svg version="1.1" xmlns:xlink="http://www.w3.org/1999/xlink" width="12px" height="12px" xmlns="http://www.w3.org/2000/svg">
  <g transform="matrix(1 0 0 1 -1856 -890 )">
    <path d="M 5.25 1.5  L 10.5 1.5  L 10.5 6.75  C 10.5 7.2  10.2 7.5  9.75 7.5  L 9 7.5  C 8.55 7.5  8.25 7.8  8.25 8.25  C 8.25 8.7  8.55 9  9 9  L 11.25 9  C 11.7 9  12 8.7  12 8.25  L 12 0  L 3.75 0  C 3.3 0  3 0.3  3 0.75  L 3 3.75  C 3 4.2  3.3 4.5  3.75 4.5  C 4.2 4.5  4.5 4.2  4.5 3.75  L 4.5 2.25  C 4.5 1.8  4.8 1.5  5.25 1.5  Z M 2.25 4.5  L 7.5 4.5  L 7.5 9.75  C 7.5 10.2  7.2 10.5  6.75 10.5  L 2.25 10.5  C 1.8 10.5  1.5 10.2  1.5 9.75  L 1.5 5.25  C 1.5 4.8  1.8 4.5  2.25 4.5  Z M 9 3  L 0.75 3  C 0.3 3  0 3.3  0 3.75  L 0 11.25  C 0 11.7  0.3 12  0.75 12  L 8.25 12  C 8.7 12  9 11.7  9 11.25  L 9 3  Z " fill-rule="nonzero" fill="#7f7f7f" stroke="none" transform="matrix(1 0 0 1 1856 890 )" />
  </g>
</svg>