<?xml version="1.0" encoding="utf-8"?>
<svg version="1.1" xmlns:xlink="http://www.w3.org/1999/xlink" width="349px" height="234px" xmlns="http://www.w3.org/2000/svg">
  <g transform="matrix(1 0 0 1 -1947 -2024 )">
    <path d="M 1948 2028  A 3 3 0 0 1 1951 2025 L 2292 2025  A 3 3 0 0 1 2295 2028 L 2295 2254  A 3 3 0 0 1 2292 2257 L 1951 2257  A 3 3 0 0 1 1948 2254 L 1948 2028  Z " fill-rule="nonzero" fill="#ff3399" stroke="none" fill-opacity="0.0980392156862745" />
    <path d="M 1947.5 2028  A 3.5 3.5 0 0 1 1951 2024.5 L 2292 2024.5  A 3.5 3.5 0 0 1 2295.5 2028 L 2295.5 2254  A 3.5 3.5 0 0 1 2292 2257.5 L 1951 2257.5  A 3.5 3.5 0 0 1 1947.5 2254 L 1947.5 2028  Z " stroke-width="1" stroke-dasharray="9,4" stroke="#ff3399" fill="none" stroke-dashoffset="0.5" />
  </g>
</svg>