<?xml version="1.0" encoding="utf-8"?>
<svg version="1.1" xmlns:xlink="http://www.w3.org/1999/xlink" width="16px" height="16px" xmlns="http://www.w3.org/2000/svg">
  <g transform="matrix(1 0 0 1 -16 -22 )">
    <path d="M 15.8366428571429 8.00004761904762  C 15.8366428571429 3.672  12.3280476190476 0.163309523809524  8 0.163309523809524  C 3.67185714285714 0.163309523809524  0.163261904761905 3.672  0.163261904761905 8.00004761904762  C 0.163261904761905 12.3281904761905  3.67185714285714 15.8368571428571  8 15.8368571428571  C 12.3280476190476 15.8368571428571  15.8366428571429 12.3281666666667  15.8366428571429 8.00004761904762  Z M 14.5307857142857 8.00004761904762  C 14.5307857142857 11.6068571428571  11.6069047619048 14.5307380952381  8.00009523809524 14.5307380952381  C 4.39328571428571 14.5307380952381  1.46940476190476 11.6068571428571  1.46940476190476 8.00004761904762  C 1.46940476190476 4.39330952380953  4.39328571428571 1.46942857142857  8.00009523809524 1.46942857142857  C 11.6069047619048 1.46942857142857  14.5307857142857 4.39330952380953  14.5307857142857 8.00004761904762  Z " fill-rule="nonzero" fill="#aaaaaa" stroke="none" transform="matrix(1 0 0 1 16 22 )" />
  </g>
</svg>