<?xml version="1.0" encoding="utf-8"?>
<svg version="1.1" xmlns:xlink="http://www.w3.org/1999/xlink" width="16px" height="16px" xmlns="http://www.w3.org/2000/svg">
  <g transform="matrix(1 0 0 1 -16 -21 )">
    <path d="M 7.111111109375 9.066666671875  L 4.3555555625 6.311111109375  L 3.111111109375 7.5555555625  L 7.111111109375 11.5555555625  L 16 2.666666671875  L 14.7555555625 1.42222221875  L 7.111111109375 9.066666671875  Z M 14.22222221875 7.111111109375  L 14.22222221875 14  L 2 14  L 2 1.77777778125  L 10.666666671875 1.77777778125  L 10.666666671875 0  L 1.77777778125 0  C 0.8 0  0 0.8  0 1.77777778125  L 0 14.22222221875  C 0 15.2  0.8 16  1.77777778125 16  L 14.22222221875 16  C 15.2 16  16 15.2  16 14.22222221875  L 16 7.111111109375  L 14.22222221875 7.111111109375  Z " fill-rule="nonzero" fill="#f7ab48" stroke="none" transform="matrix(1 0 0 1 16 21 )" />
  </g>
</svg>