<?xml version="1.0" encoding="utf-8"?>
<svg version="1.1" xmlns:xlink="http://www.w3.org/1999/xlink" width="104px" height="104px" xmlns="http://www.w3.org/2000/svg">
  <g transform="matrix(1 0 0 1 -781 -44 )">
    <path d="M 782 48  A 3 3 0 0 1 785 45 L 881 45  A 3 3 0 0 1 884 48 L 884 144  A 3 3 0 0 1 881 147 L 785 147  A 3 3 0 0 1 782 144 L 782 48  Z " fill-rule="nonzero" fill="#ffffff" stroke="none" />
    <path d="M 781.5 48  A 3.5 3.5 0 0 1 785 44.5 L 881 44.5  A 3.5 3.5 0 0 1 884.5 48 L 884.5 144  A 3.5 3.5 0 0 1 881 147.5 L 785 147.5  A 3.5 3.5 0 0 1 781.5 144 L 781.5 48  Z " stroke-width="1" stroke-dasharray="9,4" stroke="#d9d9d9" fill="none" stroke-dashoffset="0.5" />
  </g>
</svg>