<?xml version="1.0" encoding="utf-8"?>
<svg version="1.1" xmlns:xlink="http://www.w3.org/1999/xlink" width="13px" height="16px" xmlns="http://www.w3.org/2000/svg">
  <g transform="matrix(1 0 0 1 -71 -51 )">
    <path d="M 0.360257089095745 6.52203610619469  C 0.425781341755319 6.59011766371681  0.512250720744681 6.62422184070796  0.598773154255319 6.62422184070796  C 0.683650413563829 6.62422184070796  0.768598446808511 6.59138548672566  0.833821953457446 6.52556787610619  L 6 1.17249920353982  L 6 12.6471666725664  C 6.13895153590426 12.8365235929204  6.28887541888298 12.9900195221239  6.47382576196808 12.9900195221239  C 6.65877610505319 12.9900195221239  6.80869998803191 12.8365235929204  6.80869998803191 12.6471666725664  L 6.80869998803191 1.18577502654867  L 12.0387526515957 6.46226778761062  C 12.1039938603723 6.52808539823009  12.1888711196809 6.5609036460177  12.273766081117 6.5609036460177  C 12.3602885319149 6.5609036460177  12.4467755957447 6.52678136283186  12.5122998484043 6.45869980530973  C 12.6421100518617 6.32382261946903  12.6405533191489 6.10675492035398  12.5088148976064 5.97385189380531  L 6.71658750265958 0.130175805309735  C 6.6585992393617 0.071657185840708  6.58506135106383 0.0392917168141593  6.50980753191489 0.0328077699115044  C 6.49797282978724 0.0315037345132743  6.48597892952128 0.0307611504424779  6.47382579654255 0.0307611504424779  C 6.46814726861702 0.0307611504424779  6.46261025398936 0.0313407256637169  6.45698478058511 0.0316305132743363  C 6.37072768882979 0.0305438230088496  6.28408140957447 0.063289610619469  6.21777879920213 0.130193911504425  L 0.363706670212766 6.03718819469027  C 0.231985933510638 6.17009122123894  0.230446885638298 6.38717702654867  0.360257089095745 6.52203610619469  Z M 12.8652003550532 11.8457458584071  C 12.865235724734 11.6563889380531  12.7153118417553 11.5028930088496  12.5303614986702 11.5028930088496  C 12.3454111555851 11.5028930088496  12.1954872726064 11.6563889380531  12.1954872726064 11.8457458584071  L 12.1954872726064 14.7735063893805  C 12.1954872726064 15.0045743539823  12.011881375 15.1925548141593  11.7861906396277 15  L 1.08631324335106 15  C 0.860622525265957 15.1925548141593  0.67701661037234 15.0045743716814  0.67701661037234 14.7735063893805  L 0.677016627659575 11.8457458584071  C 0.677016627659575 11.6563889380531  0.527092744680851 11.5028930088496  0.342142401595745 11.5028930088496  C 0.157192058510639 11.5028930088496  0.0072681755319153 11.6563889380531  0.0072681755319153 11.8457458584071  L 0.0072681755319153 14.7735063893805  C 0.0072681755319153 15.3826724247788  0.491323313829788 15.8782424070796  1.08629557579787 15.8782424070796  L 11.7861729720745 15.8782424070796  C 12.3811629361702 15.8782424070796  12.8652003723404 15.3826724247788  12.8652003723404 14.7735063893805  L 12.8652003550532 11.8457458584071  Z " fill-rule="nonzero" fill="#1890ff" stroke="none" transform="matrix(1 0 0 1 71 51 )" />
  </g>
</svg>