<?xml version="1.0" encoding="utf-8"?>
<svg version="1.1" xmlns:xlink="http://www.w3.org/1999/xlink" width="13px" height="14px" xmlns="http://www.w3.org/2000/svg">
  <g transform="matrix(1 0 0 1 -466 -150 )">
    <path d="M 12.91333875 2.97949278846154  C 12.91333875 2.69232451923077  12.67066125 2.44103125  12.39333875 2.44103125  L 9.1 2.44103125  L 9.1 1.25641586538462  C 9.1 0.574353365384616  8.54533875 0  7.88666125 0  L 5.11333875 0  C 4.45466125 0  3.9 0.574353365384616  3.9 1.25641586538462  L 3.9 2.44103125  L 0.60666125 2.44103125  C 0.32933875 2.44103125  0.08666125 2.69230769230769  0.08666125 2.97949278846154  C 0.08666125 3.26667788461539  0.32933875 3.51795432692308  0.60666125 3.51795432692308  L 1.47333875 3.51795432692308  L 1.47333875 12.7435841346154  C 1.47333875 13.4256466346154  2.028 14  2.68666125 14  L 10.31333875 14  C 10.972 14  11.52666125 13.4256466346154  11.52666125 12.7435841346154  L 11.52666125 3.51795432692308  L 12.39333875 3.51795432692308  C 12.67066125 3.51795432692308  12.91333875 3.26666105769231  12.91333875 2.97949278846154  Z M 4.94 2.44103125  L 4.94 1.25641586538462  C 4.94 1.14872355769231  5.00933875 1.07692307692308  5.11333875 1.07692307692308  L 7.88666125 1.07692307692308  C 7.99066125 1.07692307692308  8.06 1.14872355769231  8.06 1.25641586538462  L 8.06 2.44103125  L 4.94 2.44103125  Z M 10.48666125 3.58973798076923  L 10.48666125 12.7435841346154  C 10.48666125 12.8512764423077  10.41733875 12.9230769230769  10.31333875 12.9230769230769  L 2.68666125 12.9230769230769  C 2.58266125 12.9230769230769  2.51333875 12.8512764423077  2.51333875 12.7435841346154  L 2.51333875 3.58973798076923  L 10.48666125 3.58973798076923  Z M 4.59333875 10.2307692307692  C 4.59333875 10.5179543269231  4.836 10.7692307692308  5.11333875 10.7692307692308  C 5.39066125 10.7692307692308  5.63333875 10.5179543269231  5.63333875 10.2307692307692  L 5.63333875 6.64103125  C 5.63333875 6.35384615384615  5.39066125 6.10256971153846  5.11333875 6.10256971153846  C 4.83601625 6.10256971153846  4.59333875 6.35384615384615  4.59333875 6.64103125  L 4.59333875 10.2307692307692  Z M 7.36666125 10.2307692307692  C 7.36666125 10.5179543269231  7.60933875 10.7692307692308  7.88666125 10.7692307692308  C 8.164 10.7692307692308  8.40666125 10.5179543269231  8.40666125 10.2307692307692  L 8.40666125 6.64103125  C 8.40666125 6.35384615384615  8.164 6.10256971153846  7.88666125 6.10256971153846  C 7.6093225 6.10256971153846  7.36666125 6.35384615384615  7.36666125 6.64103125  L 7.36666125 10.2307692307692  Z " fill-rule="nonzero" fill="#d9001b" stroke="none" transform="matrix(1 0 0 1 466 150 )" />
  </g>
</svg>