<?xml version="1.0" encoding="utf-8"?>
<svg version="1.1" xmlns:xlink="http://www.w3.org/1999/xlink" width="16px" height="14px" xmlns="http://www.w3.org/2000/svg">
  <g transform="matrix(1 0 0 1 -57 -150 )">
    <path d="M 8.23695842307692 12.5382172771739  L 14.9360480961538 5.91074069021739  C 14.9849054183696 5.86303760313608  15.032737338627 5.81429820744666  15.0790581923077 5.76417191304348  C 16.2973105384615 4.44253111141304  16.2391615192308 2.41502343478261  14.9736134038462 1.1633006875  C 14.9363487075801 1.12644150223107  14.898227444866 1.09043943611972  14.8592801730769 1.05532334782609  C 13.5022046538462 -0.168520111413043  11.4090505192308 -0.0898565271739129  10.14909275 1.21940633423913  L 10.1482740769231 1.21859655978261  L 3.52637334615385 7.76972319565217  C 2.79866855769231 8.50527400815217  2.80376771153846 9.68416352445652  3.54045448076923 10.4128659782609  L 3.54363561538462 10.4159893858696  C 4.28137496153846 11.1423550570652  5.47092705769231 11.1449000706522  6.2123855 10.4265164157609  L 11.8431565576923 4.85773603532609  L 11.2336678461538 4.25487218206522  L 6.74234621153846 8.69737510326087  L 5.61948071153846 9.80801241304348  L 5.58081605769231 9.84625679891304  L 5.57990382692308 9.84535446467391  C 5.17391326923077 10.2091272880435  4.54433203846154 10.1982994673913  4.15204836538462 9.81206126630435  L 4.14994321153846 9.80997899456522  C 3.7580571923077 9.42235260597826  3.74608121153846 8.79799508152174  4.11436611538462 8.39574652989131  L 4.11338371153846 8.39477480434783  L 5.27484369230769 7.24593938858696  L 9.25793448076923 3.30614306521739  L 10.7735280576923 1.805843375  L 10.7740894423077 1.80639863858696  C 11.2216918653846 1.34165880434783  11.8228301346154 1.07017687228261  12.4731822307692 1.04046980434783  C 13.1423403653846 1.00990668206522  13.7834999423077 1.2389334048913  14.2785150961538 1.68534927445652  C 14.3076484019093 1.71163824361434  14.336176638011 1.7385758424  14.3640779038462 1.76614139130435  C 14.8203348269231 2.21743901902174  15.0802277307692 2.81835942119565  15.0960163846154 3.4583570951087  C 15.1118518076923 4.10020569836957  14.8796065961538 4.71510044021739  14.4420855192308 5.1897657798913  C 14.4027505966173 5.23238185074841  14.3619570629807 5.27365797345907  14.3197761153846 5.31352210869565  L 14.3203140961538 5.31405424184783  L 12.80488425 6.81419198097826  L 9.64663938461538 9.93813122826087  L 7.62746969230769 11.935353423913  L 7.61855788461538 11.9441683831522  L 7.61755207692308 11.9431735081522  C 6.92519048076923 12.592934736413  6.03019615384615 12.971098361413  5.067182 13.0150805597826  C 4.00571680769231 13.0635512038043  2.98869376923077 12.7002642527174  2.2034715 11.9921300244565  C 2.15733223215096 11.9505088022563  2.11216098823827 11.9078496560654  2.06799317307692 11.8641860217391  C 1.34417121153846 11.1482316902174  0.93174825 10.1948984375  0.906673538461538 9.17976798641304  C 0.881528653846154 8.16160666847826  1.24993051923077 7.18620133152174  1.94397623076923 6.43322885054348  C 1.96039642307692 6.415437  1.97707392307692 6.39796905163043  1.99375142307692 6.38052425271739  L 1.99244155769231 6.379228625  L 2.01237032692308 6.35951645380435  L 7.68685842307692 0.746707595108696  L 7.07736969230769 0.143843741847827  L 1.40292838461538 5.75660633967391  L 1.4036535 5.75732355434783  C 1.37096352346536 5.79069023150547  1.33875915869118 5.82451905634044  1.30705034615385 5.85879958695652  C -0.44270648076923 7.75709074456522  -0.359131884615384 10.6691241847826  1.45850444230769 12.4670267255435  C 1.51203406485527 12.5199700345674  1.56679039714338 12.5716857961505  1.62272980769231 12.6221328016304  C 3.51832698076923 14.3316313532609  6.41380190384615 14.2715693940217  8.23604619230769 12.5373149619565  L 8.23695842307692 12.5382172771739  Z " fill-rule="nonzero" fill="#d9001b" stroke="none" transform="matrix(1 0 0 1 57 150 )" />
  </g>
</svg>