<?xml version="1.0" encoding="utf-8"?>
<svg version="1.1" xmlns:xlink="http://www.w3.org/1999/xlink" width="32px" height="32px" xmlns="http://www.w3.org/2000/svg">
  <g transform="matrix(1 0 0 1 -295 -295 )">
    <path d="M 28.5468851875 5.83140191593859  C 28.49941634375 5.78696704095504  28.41109453125 5.70446488473558  28.28705653125 5.58887994727838  C 28.0805230625 5.39642141609963  27.8497928125 5.18201288492901  27.6005271875 4.95112897876449  C 26.8882088125 4.29133947900877  26.16984140625 3.63149347925307  25.49055146875 3.01524672948123  C 25.413846 2.94568366700698  25.413846 2.94568366700698  25.33707534375 2.87615879203273  C 24.430736 2.0556581985865  23.674717125 1.38676569883415  23.11605053125 0.915425386508661  C 22.7891930625 0.63965973036076  22.5318939375 0.433146449187218  22.34282965625 0.296928980487651  C 22.21734446875 0.206519105521124  22.11532946875 0.141398293045234  22.0147359375 0.0937098243128904  C 21.88805246875 0.0336528243351257  21.769938875 -0.00293839440132684  21.60335240625 0.000185261847516669  C 21.15767740625 0.00854216809442263  20.8 0.367791792961415  20.8 0.818210230294654  L 20.8 2.41727638595262  L 20.8 4.01634254161059  L 20.8 7.21447482167652  L 20.8 8.0140078838805  L 21.6 8.0140078838805  L 28 8.0140078838805  L 27 7.21447482167652  L 27 31.200466937796  L 28 30  L 7.199419875 30  C 5.8719953125 30.400933875592  4.8 29.3319913447378  5 28.0064571889786  L 5 0.818210230294654  L 4 2  L 18.4 2  C 18.8418278125 1.61774332374864  19.2 1.25978016763117  19.2 0.818210230294654  C 19.2 0.376640324208139  18.8418278125 0.0186771680906703  18.4 0  L 4 0  L 3.2 0.0186771680906703  L 3.2 0.818210230294654  L 3.2 28.0064571889786  C 3.2 30.2159440631605  4.98915103125 32  7.199419875 32  L 28 32  L 28.8 32  L 28.8 31.200466937796  L 28.8 7.21447482167652  L 28.8 6.41494172822254  L 28 6.41494172822254  L 21.6 6.41494172822254  L 22.4 7.21447482167652  L 22.4 4.01634254161059  L 22.4 2.41727638595262  L 22.4 0.818210230294654  C 22.4 1.24418007388694  22.05462734375 1.59107094875851  21.63336640625 1.59897004250559  C 21.49080334375 1.6016432612546  21.4084319375 1.57612485501405  21.3290140625 1.53847513627798  C 21.3206080625 1.53449007377946  21.35453053125 1.55614432377144  21.40717034375 1.5940703862574  C 21.5556060625 1.70101569871781  21.7858069375 1.8857793861494  22.08394946875 2.13731863605627  C 22.625282875 2.59403504213718  23.369264 3.25227716689347  24.26292465625 4.06129982284394  C 24.3390629375 4.13025201031841  24.3390629375 4.13025201031841  24.415163 4.19926607279286  C 25.0898991875 4.81138163506623  25.80435871875 5.46763813482326  26.512923875 6.12395116583027  C 26.76096740625 6.35370313449521  26.99053140625 6.56702791566623  27.195934 6.75843260309536  C 27.31905771875 6.87316560305289  27.40685340625 6.95517629052252  27.4531148125 6.99848154050649  C 27.775583125 7.30034160289473  28.28184428125 7.28378788415086  28.58388059375 6.96150772802018  C 28.885917 6.6392276031395  28.86935359375 6.13326197832683  28.5468851875 5.83140191593859  Z M 3.2 14.3915952877693  L 3.2 14.4102724752624  L 0 14.4102724752624  L 0 28  L 16 28  L 32 28  L 32 15  L 4.8 15  L 4.8 14.3915952877693  L 3.2 14.3915952877693  Z M 13.525 17.5000000053684  L 8.8125 24.3375000028369  L 13.675 24.3375000028369  L 13.675 25.6000000023695  L 6.9 25.6000000023695  L 6.9 24.575000002749  L 11.60625 17.7750000052666  L 6.93125 17.7750000052666  L 6.93125 16.5000000057387  L 13.525 16.5000000057387  L 13.525 17.5000000053684  Z M 16.7 16.5000000057387  L 16.7 25.6000000023695  L 15.125 25.6000000023695  L 15.125 16.5000000057387  L 16.7 16.5000000057387  Z M 22.10625 22.2187500036214  L 20.225 22.2187500036214  L 20.225 25.6000000023695  L 18.64375 25.6000000023695  L 18.64375 16.5000000057387  L 22.125 16.5000000057387  C 23.14167171875 16.5000000057387  23.94895534375 16.7645806618907  24.546875 17.2937500054448  C 25.14479465625 17.8229193489989  25.44375 18.5229123487397  25.44375 19.3937500046673  C 25.44375 20.2854211293372  25.15104459375 20.9791641915803  24.565625 21.4750000038967  C 23.98020540625 21.9708358162132  23.1604219375 22.2187500036214  22.10625 22.2187500036214  Z M 20.225 17.7750000052666  L 20.225 20.9500000040911  L 22.125 20.9500000040911  C 22.6875028125 20.9500000040911  23.1166651875 20.8177096603901  23.4125 20.5531250042381  C 23.7083348125 20.288540348086  23.85625 19.9062524732276  23.85625 19.4062500046627  C 23.85625 18.9145808798447  23.70625146875 18.5218764737401  23.40625 18.2281250050989  C 23.10624846875 17.9343735364576  22.69375259375 17.7833334115135  22.16875 17.7750000052666  L 20.225 17.7750000052666  Z " fill-rule="nonzero" fill="#aaaaaa" stroke="none" transform="matrix(1 0 0 1 295 295 )" />
  </g>
</svg>