<?xml version="1.0" encoding="utf-8"?>
<svg version="1.1" xmlns:xlink="http://www.w3.org/1999/xlink" width="12px" height="14px" xmlns="http://www.w3.org/2000/svg">
  <g transform="matrix(1 0 0 1 -118 -504 )">
    <path d="M 6.9090612244898 0.166035087719298  C 6.78281691395115 0.0369157169093868  6.57611562335113 0.0348631831074326  6.44734694387755 0.161450287280702  L 4.17926530102041 2.48201169078947  C 4.05481047824691 2.60935225504227  4.05481047824691 2.81315066381738  4.17926530102041 2.94049122807018  L 6.44212244387755 5.25581287061404  C 6.55717038421459 5.37398778304344  6.74195612055679 5.38774683355011  6.87314285204082 5.28790642763158  L 6.9090612244898 5.25581287061404  L 7.32310204591837 4.83204677850877  C 7.44755685868986 4.70470621612982  7.44755685868986 4.5009078189579  7.32310204591837 4.37356725657895  L 6.25338776020408 3.27845614035088  C 8.71936048618546 3.42219744467869  10.6456963992554 5.46971212305005  10.6456963992554 7.94706889338962  C 10.6456963992554 10.5298236813703  8.55806414703786 12.6235601214598  5.98283925639827 12.6235601214598  C 3.69449401602278 12.6235601214598  1.74432609992761 10.9581411356043  1.37959183163265 8.6924444495614  L 1.3639183622449 8.58764912280702  C 1.36019197641118 8.5588848386919  1.35692624953401 8.53006241177355  1.35412244387755 8.50119298245614  C 1.3362761737731 8.32780818068279  1.18614071498353 8.19882661777535  1.01257143367347 8.20776607675439  L 0.359510204081633 8.2424795372807  C 0.185828315756471 8.2513195364022  0.0495294838506301 8.39513011043041  0.0495294838506301 8.56954400797913  C 0.0495294838506301 8.57514516501687  0.0496727642625809 8.58074540024045  0.0499591836734698 8.58633918640351  L 0.0512653010204086 8.60205848464912  L 0.0695510204081639 8.76318129166667  C 0.476117775738012 11.7260878320711  3.00068390915261 13.9334529625309  5.98279689926173 13.9334529625309  C 9.27937329706661 13.9334529625309  11.9517764859964 11.253235729189  11.9517764859964 7.94702021910985  C 11.9517764859964 4.80937554463722  9.53624688016942 2.20409115575289  6.41600000510204 1.97637427412281  L 7.32375509693878 1.04828070175439  C 7.44820991971227 0.920940137501589  7.44820991971227 0.717141728726481  7.32375509693878 0.589801164473684  L 6.9090612244898 0.166035087719298  Z " fill-rule="nonzero" fill="#333333" stroke="none" transform="matrix(1 0 0 1 118 504 )" />
  </g>
</svg>