<?xml version="1.0" encoding="utf-8"?>
<svg version="1.1" xmlns:xlink="http://www.w3.org/1999/xlink" width="12px" height="14px" xmlns="http://www.w3.org/2000/svg">
  <g transform="matrix(1 0 0 1 -362 -504 )">
    <path d="M 5.0909387755102 0.166035087719298  C 5.21718308604884 0.0369157169093868  5.42388437664887 0.0348631831074326  5.55265305612245 0.161450287280702  L 7.82073469897959 2.48201169078947  C 7.94518952175309 2.60935225504227  7.94518952175309 2.81315066381738  7.82073469897959 2.94049122807018  L 5.55787755612245 5.25581287061404  C 5.44282961578541 5.37398778304344  5.25804387944321 5.38774683355011  5.12685714795918 5.28790642763158  L 5.0909387755102 5.25581287061404  L 4.67689795408163 4.83204677850877  C 4.55244314131014 4.70470621612982  4.55244314131014 4.5009078189579  4.67689795408163 4.37356725657895  L 5.74661223979592 3.27845614035088  C 3.28063951381454 3.42219744467869  1.35430360074458 5.46971212305005  1.35430360074458 7.94706889338962  C 1.35430360074458 10.5298236813703  3.44193585296214 12.6235601214598  6.01716074360172 12.6235601214598  C 8.30550598397722 12.6235601214598  10.2556739000724 10.9581411356043  10.6204081683673 8.6924444495614  L 10.6360816377551 8.58764912280702  C 10.6386938877551 8.5660350877193  10.642612255102 8.53721637938596  10.6458775561224 8.50119298245614  C 10.6637238262269 8.32780818068279  10.8138592850165 8.19882661777535  10.9874285663265 8.20776607675439  L 11.6404897959184 8.2424795372807  C 11.8141716842435 8.2513195364022  11.9504705161494 8.39513011043041  11.9504705161494 8.56954400797913  C 11.9504705161494 8.57514516501685  11.9503272357374 8.58074540024048  11.9500408163265 8.58633918640351  L 11.9487346989796 8.60205848464912  L 11.9304489795918 8.76318129166667  C 11.523882224262 11.7260878320711  8.99931609084739 13.9334529625309  6.01720310073827 13.9334529625309  C 2.72062670293339 13.9334529625309  0.0482235140035804 11.253235729189  0.0482235140035804 7.94702021910985  C 0.0482235140035804 4.80937554463722  2.46375311983058 2.20409115575289  5.58399999489796 1.97637427412281  L 4.67624490306122 1.04828070175439  C 4.55179008028773 0.920940137501589  4.55179008028773 0.717141728726481  4.67624490306122 0.589801164473684  L 5.0909387755102 0.166035087719298  Z " fill-rule="nonzero" fill="#333333" stroke="none" transform="matrix(1 0 0 1 362 504 )" />
  </g>
</svg>