<?xml version="1.0" encoding="utf-8"?>
<svg version="1.1" xmlns:xlink="http://www.w3.org/1999/xlink" width="16px" height="16px" xmlns="http://www.w3.org/2000/svg">
  <g transform="matrix(1 0 0 1 -368 -72 )">
    <path d="M 8.46980636956522 0.96632967032967  C 11.7913136304348 1.17825641758242  14.5210527608696 3.75794872527473  14.9495745 7.0915750989011  L 8.46980636956522 7.0915750989011  L 8.46980636956522 0.96632967032967  Z M 7.59421217391304 7.49479852747253  C 7.59421217391304 7.50230035164835  7.59792232608696 7.50792672527473  7.59884984782609 7.51542857142857  C 7.59884984782609 7.52199268131868  7.59421217391304 7.52761905494506  7.59421217391304 7.53418314285714  C 7.59421217391304 7.77799265934066  7.79084984782609 7.97772892307692  8.03293680434783 7.97772894505495  L 15.3372846304348 7.97772894505495  C 15.4196508706529 7.97565385416477  15.4996149435383 7.94924955455477  15.5673136304348 7.9017729010989  C 15.7583111765083 7.84355524334154  15.8848956571768 7.66051146779937  15.8734005869565 7.45916483516484  C 15.5923571086957 3.30971428571429  12.1493426086957 0.0586080659340657  8.03200928260869 0.0586080659340651  C 7.79021177296841 0.058608065843774  7.59420333092538 0.256770446810353  7.59420333092538 0.50121613177784  C 7.59420333092538 0.502153860522514  7.59420627860281 0.503091586899642  7.59421217391304 0.504029296703297  L 7.59421217391304 7.49573626373626  Z M 15.7685889782609 9.40495237362637  C 15.8107554772688 9.16421006259959  15.6522788888716 8.93436839947503  15.4142701521739 8.89107692307692  C 15.3875627463812 8.88593572807689  15.3604358858664 8.88334800378683  15.3332486475579 8.88334800378683  C 15.1214974967112 8.88334800378683  14.9407844716031 9.03812279959842  14.9059802826087 9.24928938461538  C 14.3139687330704 12.6165030710081  11.4157514933129 15.0677146404723  8.03293680434783 15.0622710549451  C 4.18180636956522 15.0622710549451  1.04951652173913 11.8955604395604  1.04951652173913 8.00398534065934  C 1.0367958999106 4.90015923097981  3.04073887299106 2.15591926971267  5.97844406521739 1.25421246153846  C 6.16213001002525 1.19781515767454  6.28770619772889 1.02657773716418  6.28770619772889 0.83249835473834  C 6.28770619772889 0.787885664258762  6.28100623751708 0.7435315572123  6.26783536956522 0.700952373626373  C 6.21246449543478 0.515187228394579  6.04322907680696 0.38805102102598  5.85132151806256 0.38805102102598  C 5.80697375057176 0.38805102102598  5.76288672928548 0.394906894818174  5.72058897826087 0.408380945054944  C 2.41479548890267 1.42316135251491  0.159743520139612 4.51122914536484  0.173922326086956 8.00398534065934  C 0.173922326086956 12.3850549450549  3.69948754347826 15.9484249010989  8.0320092826087 15.9484249010989  C 11.8397608632732 15.9541835697265  15.1019321231704 13.1950924908814  15.7685889782609 9.40495237362637  Z " fill-rule="nonzero" fill="#000000" stroke="none" transform="matrix(1 0 0 1 368 72 )" />
  </g>
</svg>