<?xml version="1.0" encoding="utf-8"?>
<svg version="1.1" xmlns:xlink="http://www.w3.org/1999/xlink" width="12px" height="12px" xmlns="http://www.w3.org/2000/svg">
  <g transform="matrix(1 0 0 1 -461 -276 )">
    <path d="M 467 277  C 469.8 277  472 279.2  472 282  C 472 284.8  469.8 287  467 287  C 464.2 287  462 284.8  462 282  C 462 279.2  464.2 277  467 277  Z " fill-rule="nonzero" fill="#ffffff" stroke="none" />
    <path d="M 467 277  C 469.8 277  472 279.2  472 282  C 472 284.8  469.8 287  467 287  C 464.2 287  462 284.8  462 282  C 462 279.2  464.2 277  467 277  Z " stroke-width="2" stroke="#cccccc" fill="none" />
  </g>
</svg>