<?xml version="1.0" encoding="utf-8"?>
<svg version="1.1" xmlns:xlink="http://www.w3.org/1999/xlink" width="18px" height="18px" xmlns="http://www.w3.org/2000/svg">
  <g transform="matrix(1 0 0 1 -15 -7 )">
    <path d="M 26.5468111583728 10.0179372042833  C 28.8721306469052 11.0090552080089  30.5 13.3156483104155  30.5 16  C 30.5 19.5898508739002  27.5898508739002 22.5  24 22.5  C 22.1158119373404 22.5  20.3719449886657 21.6876886933005  19.1640926034003 20.3436898588717  L 24.8267742302748 18.3593313400524  A 2.5 2.5 0 0 0 26.499923709547 16.0195306539808 L 26.5468111583725 10.0179372042831  Z " fill-rule="nonzero" fill="#ffffff" stroke="none" fill-opacity="0" />
    <path d="M 25.5573738543096 8.66200593402261  C 28.9545896421412 9.37939822774453  31.5 12.3943588831761  31.5 16  C 31.5 20.142135623731  28.142135623731 23.5  24 23.5  C 21.3248869221409 23.5  18.8949119975991 22.0809085462033  17.5606583013537 19.8459548231616  L 24.4960645381649 17.4155988040315  A 1.5 1.5 0 0 0 25.4999542257282 16.0117183923885 L 25.5573738543092 8.66200593402252  Z " stroke-width="3" stroke="#ffffff" fill="none" />
  </g>
</svg>