<?xml version="1.0" encoding="utf-8"?>
<svg version="1.1" xmlns:xlink="http://www.w3.org/1999/xlink" width="16px" height="16px" xmlns="http://www.w3.org/2000/svg">
  <defs>
    <mask fill="white" id="clip7">
      <path d="M 15.7837832727273 15.7848072272727  C 15.9996752954545 15.5689152045455  15.9996985681818 15.2187219090909  15.7837832727273 15.0028298863636  L 12.1997941590909 11.4188175  C 13.2216101590909 10.218833  13.8386373181818 8.66353540909091  13.8386373181818 6.96390643181818  C 13.8386373181818 3.16653865909091  10.7602735227273 0.0881515681818182  6.96290572727273 0.0881515681818182  C 3.16553793181818 0.0881515681818182  0.0871508636363633 3.16653863636364  0.0871508636363633 6.96390643181818  C 0.0871508636363633 10.7612742272727  3.16553793181818 13.8396380227273  6.96290572727273 13.8396380227273  C 8.66251143181818 13.8396380227273  10.2178090227273 13.2226108409091  11.4178400681818 12.2007948636364  L 15.0023179090909 15.7848072272727  C 15.2182099318182 16.00069925  15.56789125 16.00069925  15.7837832727273 15.7848072272727  Z M 12.7808199318182 6.96390643181818  C 12.7808199318182 10.1765715  10.1760827954545 12.7818438863636  6.96288247727273 12.7818438863636  C 3.74968215909091 12.7818438863636  1.14494502272727 10.1765715  1.14494502272727 6.96390643181818  C 1.14494502272727 3.75019413636364  3.74968215909091 1.14596897727273  6.96288247727273 1.14596897727273  C 10.1760595227273 1.14596897727273  12.7808199318182 3.75019413636364  12.7808199318182 6.96390643181818  Z " fill-rule="evenodd" />
    </mask>
  </defs>
  <g transform="matrix(1 0 0 1 -35 -372 )">
    <path d="M 15.7837832727273 15.7848072272727  C 15.9996752954545 15.5689152045455  15.9996985681818 15.2187219090909  15.7837832727273 15.0028298863636  L 12.1997941590909 11.4188175  C 13.2216101590909 10.218833  13.8386373181818 8.66353540909091  13.8386373181818 6.96390643181818  C 13.8386373181818 3.16653865909091  10.7602735227273 0.0881515681818182  6.96290572727273 0.0881515681818182  C 3.16553793181818 0.0881515681818182  0.0871508636363633 3.16653863636364  0.0871508636363633 6.96390643181818  C 0.0871508636363633 10.7612742272727  3.16553793181818 13.8396380227273  6.96290572727273 13.8396380227273  C 8.66251143181818 13.8396380227273  10.2178090227273 13.2226108409091  11.4178400681818 12.2007948636364  L 15.0023179090909 15.7848072272727  C 15.2182099318182 16.00069925  15.56789125 16.00069925  15.7837832727273 15.7848072272727  Z M 12.7808199318182 6.96390643181818  C 12.7808199318182 10.1765715  10.1760827954545 12.7818438863636  6.96288247727273 12.7818438863636  C 3.74968215909091 12.7818438863636  1.14494502272727 10.1765715  1.14494502272727 6.96390643181818  C 1.14494502272727 3.75019413636364  3.74968215909091 1.14596897727273  6.96288247727273 1.14596897727273  C 10.1760595227273 1.14596897727273  12.7808199318182 3.75019413636364  12.7808199318182 6.96390643181818  Z " fill-rule="nonzero" fill="#f2f2f2" stroke="none" transform="matrix(1 0 0 1 35 372 )" />
    <path d="M 15.7837832727273 15.7848072272727  C 15.9996752954545 15.5689152045455  15.9996985681818 15.2187219090909  15.7837832727273 15.0028298863636  L 12.1997941590909 11.4188175  C 13.2216101590909 10.218833  13.8386373181818 8.66353540909091  13.8386373181818 6.96390643181818  C 13.8386373181818 3.16653865909091  10.7602735227273 0.0881515681818182  6.96290572727273 0.0881515681818182  C 3.16553793181818 0.0881515681818182  0.0871508636363633 3.16653863636364  0.0871508636363633 6.96390643181818  C 0.0871508636363633 10.7612742272727  3.16553793181818 13.8396380227273  6.96290572727273 13.8396380227273  C 8.66251143181818 13.8396380227273  10.2178090227273 13.2226108409091  11.4178400681818 12.2007948636364  L 15.0023179090909 15.7848072272727  C 15.2182099318182 16.00069925  15.56789125 16.00069925  15.7837832727273 15.7848072272727  Z " stroke-width="2" stroke-dasharray="3,1" stroke="#bfbfbf" fill="none" transform="matrix(1 0 0 1 35 372 )" mask="url(#clip7)" />
    <path d="M 12.7808199318182 6.96390643181818  C 12.7808199318182 10.1765715  10.1760827954545 12.7818438863636  6.96288247727273 12.7818438863636  C 3.74968215909091 12.7818438863636  1.14494502272727 10.1765715  1.14494502272727 6.96390643181818  C 1.14494502272727 3.75019413636364  3.74968215909091 1.14596897727273  6.96288247727273 1.14596897727273  C 10.1760595227273 1.14596897727273  12.7808199318182 3.75019413636364  12.7808199318182 6.96390643181818  Z " stroke-width="2" stroke-dasharray="3,1" stroke="#bfbfbf" fill="none" transform="matrix(1 0 0 1 35 372 )" mask="url(#clip7)" />
  </g>
</svg>