<?xml version="1.0" encoding="utf-8"?>
<svg version="1.1" xmlns:xlink="http://www.w3.org/1999/xlink" width="16px" height="16px" xmlns="http://www.w3.org/2000/svg">
  <g transform="matrix(1 0 0 1 -16 -8 )">
    <path d="M 3.9462962962963 8.69259259259259  C 4.31666666666667 8.69259259259259  4.61666666666667 8.39259259259259  4.61666666666667 8.02222222222222  C 4.61666666666667 7.65185185185185  4.31666666666667 7.35185185185185  3.9462962962963 7.35185185185185  L 0.77037037037037 7.35185185185185  C 0.4 7.35185185185185  0.0999999999999998 7.65185185185185  0.0999999999999998 8.02222222222222  C 0.0999999999999998 8.39259259259259  0.4 8.69259259259259  0.77037037037037 8.69259259259259  L 3.9462962962963 8.69259259259259  Z M 15.9 8.02222222222222  C 15.9018518518519 7.65185185185185  15.6 7.35185185185185  15.2296296296296 7.35185185185185  L 12.0537037037037 7.35185185185185  C 11.6833333333333 7.35185185185185  11.3833333333333 7.65185185185185  11.3833333333333 8.02222222222222  C 11.3833333333333 8.39259259259259  11.6833333333333 8.69259259259259  12.0537037037037 8.69259259259259  L 15.2296296296296 8.69259259259259  C 15.6 8.69259259259259  15.9 8.39259259259259  15.9 8.02222222222222  Z M 8.67777777777778 12.2722222222222  C 8.67777777777778 11.9018518518519  8.37777777777778 11.6  8.00740740740741 11.6  C 7.63703703703704 11.6  7.33703703703704 11.9  7.33703703703704 12.2703703703704  L 7.33703703703704 15.2222222222222  C 7.33703703703704 15.5925925925926  7.63703703703704 15.8925925925926  8.00740740740741 15.8925925925926  C 8.37777777777778 15.8925925925926  8.67777777777778 15.5925925925926  8.67777777777778 15.2222222222222  L 8.67777777777778 12.2722222222222  Z M 8.67777777777778 0.775925925925926  C 8.67777777777778 0.405555555555556  8.37777777777778 0.105555555555556  8.00740740740741 0.105555555555556  C 7.63703703703704 0.105555555555556  7.33703703703704 0.405555555555556  7.33703703703704 0.775925925925926  L 7.33703703703704 3.95185185185185  C 7.33703703703704 4.32222222222222  7.63703703703704 4.62222222222222  8.00740740740741 4.62222222222222  C 8.37777777777778 4.62222222222222  8.67777777777778 4.32222222222222  8.67777777777778 3.95185185185185  L 8.67777777777778 0.775925925925926  Z M 5.59444444444445 10.3796296296296  C 5.33148148148148 10.1185185185185  4.90740740740741 10.1185185185185  4.64444444444444 10.3814814814815  L 2.4 12.6259259259259  C 2.13888888888889 12.887037037037  2.13888888888889 13.312962962963  2.4 13.5740740740741  C 2.53148148148148 13.7055555555556  2.70185185185185 13.7703703703704  2.87407407407407 13.7703703703704  C 3.0462962962963 13.7703703703704  3.21666666666667 13.7055555555556  3.34814814814815 13.5740740740741  L 5.59444444444445 11.3277777777778  C 5.85555555555556 11.0666666666667  5.85555555555556 10.6407407407407  5.59444444444445 10.3796296296296  Z M 10.3666666666667 5.60555555555556  C 10.4981481481481 5.73703703703704  10.6685185185185 5.8037037037037  10.8407407407407 5.8037037037037  C 11.012962962963 5.8037037037037  11.1833333333333 5.73888888888889  11.3148148148148 5.60740740740741  L 13.5611111111111 3.36111111111111  C 13.8222222222222 3.1  13.8222222222222 2.67407407407407  13.5611111111111 2.41296296296296  C 13.3 2.15185185185185  12.8740740740741 2.15185185185185  12.612962962963 2.41296296296296  L 10.3666666666667 4.65740740740741  C 10.1055555555556 4.91851851851852  10.1055555555556 5.34444444444445  10.3666666666667 5.60555555555556  Z M 13.5777777777778 12.6259259259259  L 11.4907407407407 10.537037037037  C 11.2296296296296 10.2759259259259  10.8037037037037 10.2759259259259  10.5425925925926 10.537037037037  C 10.2814814814815 10.7981481481481  10.2814814814815 11.2240740740741  10.5425925925926 11.4851851851852  L 12.6296296296296 13.5740740740741  C 12.7611111111111 13.7055555555556  12.9314814814815 13.7703703703704  13.1037037037037 13.7703703703704  C 13.2759259259259 13.7703703703704  13.4462962962963 13.7055555555556  13.5777777777778 13.5740740740741  C 13.8388888888889 13.312962962963  13.8388888888889 12.887037037037  13.5777777777778 12.6259259259259  Z M 5.59444444444445 4.67777777777778  L 3.34814814814815 2.43148148148148  C 3.08703703703704 2.17037037037037  2.66111111111111 2.17037037037037  2.4 2.43148148148148  C 2.13888888888889 2.69259259259259  2.13888888888889 3.11851851851852  2.4 3.37962962962963  L 4.6462962962963 5.62592592592593  C 4.77777777777778 5.75740740740741  4.94814814814815 5.82222222222222  5.12037037037037 5.82222222222222  C 5.29259259259259 5.82222222222222  5.46296296296296 5.75740740740741  5.59444444444445 5.62592592592593  C 5.85555555555556 5.36481481481481  5.85555555555556 4.93888888888889  5.59444444444445 4.67777777777778  Z " fill-rule="nonzero" fill="#3f94f8" stroke="none" transform="matrix(1 0 0 1 16 8 )" />
  </g>
</svg>