<?xml version="1.0" encoding="utf-8"?>
<svg version="1.1" xmlns:xlink="http://www.w3.org/1999/xlink" width="12px" height="9px" xmlns="http://www.w3.org/2000/svg">
  <g transform="matrix(1 0 0 1 -16 -12 )">
    <path d="M 1.85711628488372 3.72109090909091  L 4.26381395930233 6.0618181875  L 10.1428837151163 0.343636363636364  C 10.4332307874262 0.0611732546173266  10.9025831602482 0.0611732546173266  11.1929302325581 0.343636363636364  L 11.7354418604651 0.871272732954546  C 11.8757534150086 1.00775881939408  11.9546346134953 1.19325615791835  11.9546346134953 1.38672727840909  C 11.9546346134953 1.58019839889983  11.8757534150086 1.7656957374241  11.7354418604651 1.90218182386364  L 4.80223255813953 8.64581817613636  C 4.76669534540676 8.68047064351737  4.72767667332189 8.71153655702074  4.68576744767442 8.73854544886364  C 4.39047334583866 8.93887745609493  3.99085985425804 8.90429278436765  3.73618604651163 8.65636363636364  L 0.264558139534884 5.27963636931818  C 0.124246584991444 5.14315028287865  0.0453653865046644 4.95765294435438  0.0453653865046644 4.76418182386364  C 0.0453653865046644 4.57071070337289  0.124246584991443 4.38521336484863  0.264558139534883 4.24872727840909  L 0.80706976744186 3.72109090909091  C 1.09741683975178 3.43862780007187  1.5667692125738 3.43862780007187  1.85711628488372 3.72109090909091  Z " fill-rule="nonzero" fill="#70b603" stroke="none" transform="matrix(1 0 0 1 16 12 )" />
  </g>
</svg>