<?xml version="1.0" encoding="utf-8"?>
<svg version="1.1" xmlns:xlink="http://www.w3.org/1999/xlink" width="13px" height="13px" xmlns="http://www.w3.org/2000/svg">
  <g transform="matrix(1 0 0 1 -306 -54 )">
    <path d="M 312.5 54  C 316.14 54  319 56.86  319 60.5  C 319 64.14  316.14 67  312.5 67  C 308.86 67  306 64.14  306 60.5  C 306 56.86  308.86 54  312.5 54  Z " fill-rule="nonzero" fill="#ffffff" stroke="none" />
    <path d="M 312.5 54.5  C 315.86 54.5  318.5 57.14  318.5 60.5  C 318.5 63.86  315.86 66.5  312.5 66.5  C 309.14 66.5  306.5 63.86  306.5 60.5  C 306.5 57.14  309.14 54.5  312.5 54.5  Z " stroke-width="1" stroke="#18be6b" fill="none" />
  </g>
</svg>