<?xml version="1.0" encoding="utf-8"?>
<svg version="1.1" xmlns:xlink="http://www.w3.org/1999/xlink" width="21px" height="20px" xmlns="http://www.w3.org/2000/svg">
  <defs>
    <mask fill="white" id="clip77">
      <path d="M 10.5 14.1428571428571  C 12.8172413793103 14.1428571428571  14.6275862068966 12.2857142857143  14.6275862068966 10  C 14.6275862068966 7.71428571428571  12.7448275862069 5.85714285714286  10.5 5.85714285714286  C 8.18275862068966 5.85714285714286  6.37241379310345 7.71428571428571  6.37241379310345 10  C 6.37241379310345 12.2857142857143  8.2551724137931 14.1428571428571  10.5 14.1428571428571  Z M 10.5 13  C 8.83448275862069 13  7.45862068965517 11.6428571428571  7.45862068965517 10  C 7.45862068965517 8.35714285714286  8.83448275862069 7  10.5 7  C 12.1655172413793 7  13.5413793103448 8.35714285714286  13.5413793103448 10  C 13.5413793103448 11.6428571428571  12.1655172413793 13  10.5 13  Z M 4.04193951724138 13.7495221428571  C 4.62124986206897 14.8923792857143  4.83849124137931 16.1780935714286  4.54883606896552 17.3923792857143  C 5.34538779310345 18.0352364285714  6.21435331034483 18.5352364285714  7.08331882758621 18.8923792857143  C 8.02469813793103 18.0352364285714  9.25573262068965 17.5352364285714  10.4867671034483 17.5352364285714  C 11.7902153793103 17.5352364285714  12.9488360689655 18.0352364285714  13.8902153793103 18.8923792857143  C 14.8315946896552 18.5352364285714  15.7005602068966 18.0352364285714  16.424698137931 17.3923792857143  C 16.1350429655172 16.1780935714286  16.3522843448276 14.8923792857143  16.9315946896552 13.7495221428571  C 17.5833188275862 12.6780935714286  18.5971119310345 11.8209507142857  19.8281464137931 11.4638078571429  C 19.9005602068966 10.9638078571429  19.972974 10.4638078571429  19.972974 9.96380785714286  C 19.972974 9.46380785714286  19.9005602068965 8.96380785714286  19.8281464137931 8.46380785714286  C 18.5971119310345 8.106665  17.5833188275862 7.24952214285714  16.9315946896552 6.17809357142857  C 16.2798705517241 5.106665  16.1350429655172 3.74952214285714  16.424698137931 2.53523642857143  C 15.6281464137931 1.89237928571429  14.7591808965517 1.39237928571429  13.8902153793103 1.03523642857143  C 12.9488360689655 1.89237928571429  11.7902153793103 2.39237928571429  10.4867671034483 2.39237928571429  C 9.25573262068965 2.39237928571429  8.02469813793103 1.89237928571429  7.08331882758621 1.03523642857143  C 6.14193951724138 1.39237928571429  5.272974 1.89237928571429  4.54883606896552 2.53523642857143  C 4.83849124137931 3.74952214285714  4.62124986206896 5.03523642857143  4.04193951724138 6.17809357142857  C 3.39021537931034 7.24952214285714  2.37642227586207 8.106665  1.14538779310345 8.46380785714286  C 1.072974 8.96380785714286  1.00056020689655 9.46380785714286  1.00056020689655 9.96380785714286  C 1.00056020689655 10.4638078571429  1.072974 10.9638078571429  1.14538779310345 11.4638078571429  C 2.37642227586207 11.8209507142857  3.39021537931034 12.6780935714286  4.04193951724138 13.7495221428571  Z M 7.2281464137931 19.9638078571429  C 7.15573262068965 19.9638078571429  7.08331882758621 19.9638078571429  7.08331882758621 19.9638078571429  C 5.85228434482759 19.5352364285714  4.69366365517241 18.8923792857143  3.67987055172414 17.9638078571429  C 3.53504296551724 17.8209507142857  3.46262917241379 17.606665  3.53504296551724 17.4638078571429  C 3.89711193103448 16.3923792857143  3.75228434482759 15.2495221428571  3.172974 14.3209507142857  C 2.59366365517241 13.3209507142857  1.72469813793103 12.6780935714286  0.638491241379311 12.4638078571429  C 0.421249862068966 12.3923792857143  0.276422275862069 12.2495221428571  0.276422275862069 12.0352364285714  C 0.131594689655173 11.3923792857143  0.0591808965517244 10.6780935714286  0.0591808965517244 10.0352364285714  C 0.0591808965517244 9.39237928571428  0.131594689655173 8.74952214285714  0.276422275862069 8.03523642857143  C 0.348836068965518 7.82095071428571  0.493663655172414 7.67809357142857  0.638491241379311 7.606665  C 1.72469813793103 7.32095071428571  2.66607744827586 6.67809357142857  3.172974 5.74952214285714  C 3.75228434482759 4.74952214285714  3.82469813793104 3.67809357142857  3.53504296551724 2.606665  C 3.46262917241379 2.39237928571428  3.53504296551724 2.17809357142857  3.67987055172414 2.106665  C 4.69366365517241 1.24952214285714  5.85228434482759 0.606664999999999  7.08331882758621 0.106664999999999  C 7.30056020689655 0.0352364285714273  7.44538779310345 0.106664999999999  7.59021537931034 0.249522142857142  C 8.38676710344828 1.03523642857143  9.40056020689655 1.53523642857143  10.4867671034483 1.53523642857143  C 11.572974 1.53523642857143  12.6591808965517 1.106665  13.3833188275862 0.249522142857142  C 13.5281464137931 0.106664999999999  13.7453877931035 0.0352364285714276  13.8902153793103 0.106664999999999  C 15.121249862069 0.535236428571427  16.2798705517241 1.17809357142857  17.2936636551724 2.106665  C 17.4384912413793 2.24952214285714  17.5109050344828 2.46380785714286  17.4384912413793 2.606665  C 17.0764222758621 3.67809357142857  17.221249862069 4.82095071428571  17.8005602068966 5.74952214285714  C 18.3798705517241 6.74952214285714  19.2488360689655 7.39237928571429  20.3350429655172 7.606665  C 20.5522843448276 7.67809357142857  20.6971119310345 7.82095071428571  20.6971119310345 8.03523642857143  C 20.8419395172414 8.67809357142857  20.9143533103448 9.39237928571428  20.9143533103448 10.0352364285714  C 20.9143533103448 10.6780935714286  20.8419395172414 11.3209507142857  20.6971119310345 12.0352364285714  C 20.624698137931 12.2495221428571  20.4798705517241 12.3923792857143  20.3350429655172 12.4638078571429  C 19.2488360689655 12.7495221428571  18.3074567586207 13.3923792857143  17.8005602068966 14.3209507142857  C 17.221249862069 15.3209507142857  17.1488360689655 16.3923792857143  17.4384912413793 17.4638078571429  C 17.5109050344828 17.6780935714286  17.4384912413793 17.8923792857143  17.2936636551724 17.9638078571429  C 16.2798705517241 18.8209507142857  15.121249862069 19.4638078571429  13.8902153793103 19.9638078571429  C 13.672974 20.0352364285714  13.5281464137931 19.9638078571429  13.3833188275862 19.8209507142857  C 12.5867671034483 19.0352364285714  11.572974 18.5352364285714  10.4867671034483 18.5352364285714  C 9.40056020689655 18.5352364285714  8.31435331034483 18.9638078571429  7.59021537931035 19.8209507142857  C 7.5178015862069 19.8923792857143  7.372974 19.9638078571429  7.2281464137931 19.9638078571429  Z " fill-rule="evenodd" />
    </mask>
  </defs>
  <g transform="matrix(1 0 0 1 -498 -321 )">
    <path d="M 10.5 14.1428571428571  C 12.8172413793103 14.1428571428571  14.6275862068966 12.2857142857143  14.6275862068966 10  C 14.6275862068966 7.71428571428571  12.7448275862069 5.85714285714286  10.5 5.85714285714286  C 8.18275862068966 5.85714285714286  6.37241379310345 7.71428571428571  6.37241379310345 10  C 6.37241379310345 12.2857142857143  8.2551724137931 14.1428571428571  10.5 14.1428571428571  Z M 10.5 13  C 8.83448275862069 13  7.45862068965517 11.6428571428571  7.45862068965517 10  C 7.45862068965517 8.35714285714286  8.83448275862069 7  10.5 7  C 12.1655172413793 7  13.5413793103448 8.35714285714286  13.5413793103448 10  C 13.5413793103448 11.6428571428571  12.1655172413793 13  10.5 13  Z M 4.04193951724138 13.7495221428571  C 4.62124986206897 14.8923792857143  4.83849124137931 16.1780935714286  4.54883606896552 17.3923792857143  C 5.34538779310345 18.0352364285714  6.21435331034483 18.5352364285714  7.08331882758621 18.8923792857143  C 8.02469813793103 18.0352364285714  9.25573262068965 17.5352364285714  10.4867671034483 17.5352364285714  C 11.7902153793103 17.5352364285714  12.9488360689655 18.0352364285714  13.8902153793103 18.8923792857143  C 14.8315946896552 18.5352364285714  15.7005602068966 18.0352364285714  16.424698137931 17.3923792857143  C 16.1350429655172 16.1780935714286  16.3522843448276 14.8923792857143  16.9315946896552 13.7495221428571  C 17.5833188275862 12.6780935714286  18.5971119310345 11.8209507142857  19.8281464137931 11.4638078571429  C 19.9005602068966 10.9638078571429  19.972974 10.4638078571429  19.972974 9.96380785714286  C 19.972974 9.46380785714286  19.9005602068965 8.96380785714286  19.8281464137931 8.46380785714286  C 18.5971119310345 8.106665  17.5833188275862 7.24952214285714  16.9315946896552 6.17809357142857  C 16.2798705517241 5.106665  16.1350429655172 3.74952214285714  16.424698137931 2.53523642857143  C 15.6281464137931 1.89237928571429  14.7591808965517 1.39237928571429  13.8902153793103 1.03523642857143  C 12.9488360689655 1.89237928571429  11.7902153793103 2.39237928571429  10.4867671034483 2.39237928571429  C 9.25573262068965 2.39237928571429  8.02469813793103 1.89237928571429  7.08331882758621 1.03523642857143  C 6.14193951724138 1.39237928571429  5.272974 1.89237928571429  4.54883606896552 2.53523642857143  C 4.83849124137931 3.74952214285714  4.62124986206896 5.03523642857143  4.04193951724138 6.17809357142857  C 3.39021537931034 7.24952214285714  2.37642227586207 8.106665  1.14538779310345 8.46380785714286  C 1.072974 8.96380785714286  1.00056020689655 9.46380785714286  1.00056020689655 9.96380785714286  C 1.00056020689655 10.4638078571429  1.072974 10.9638078571429  1.14538779310345 11.4638078571429  C 2.37642227586207 11.8209507142857  3.39021537931034 12.6780935714286  4.04193951724138 13.7495221428571  Z M 7.2281464137931 19.9638078571429  C 7.15573262068965 19.9638078571429  7.08331882758621 19.9638078571429  7.08331882758621 19.9638078571429  C 5.85228434482759 19.5352364285714  4.69366365517241 18.8923792857143  3.67987055172414 17.9638078571429  C 3.53504296551724 17.8209507142857  3.46262917241379 17.606665  3.53504296551724 17.4638078571429  C 3.89711193103448 16.3923792857143  3.75228434482759 15.2495221428571  3.172974 14.3209507142857  C 2.59366365517241 13.3209507142857  1.72469813793103 12.6780935714286  0.638491241379311 12.4638078571429  C 0.421249862068966 12.3923792857143  0.276422275862069 12.2495221428571  0.276422275862069 12.0352364285714  C 0.131594689655173 11.3923792857143  0.0591808965517244 10.6780935714286  0.0591808965517244 10.0352364285714  C 0.0591808965517244 9.39237928571428  0.131594689655173 8.74952214285714  0.276422275862069 8.03523642857143  C 0.348836068965518 7.82095071428571  0.493663655172414 7.67809357142857  0.638491241379311 7.606665  C 1.72469813793103 7.32095071428571  2.66607744827586 6.67809357142857  3.172974 5.74952214285714  C 3.75228434482759 4.74952214285714  3.82469813793104 3.67809357142857  3.53504296551724 2.606665  C 3.46262917241379 2.39237928571428  3.53504296551724 2.17809357142857  3.67987055172414 2.106665  C 4.69366365517241 1.24952214285714  5.85228434482759 0.606664999999999  7.08331882758621 0.106664999999999  C 7.30056020689655 0.0352364285714273  7.44538779310345 0.106664999999999  7.59021537931034 0.249522142857142  C 8.38676710344828 1.03523642857143  9.40056020689655 1.53523642857143  10.4867671034483 1.53523642857143  C 11.572974 1.53523642857143  12.6591808965517 1.106665  13.3833188275862 0.249522142857142  C 13.5281464137931 0.106664999999999  13.7453877931035 0.0352364285714276  13.8902153793103 0.106664999999999  C 15.121249862069 0.535236428571427  16.2798705517241 1.17809357142857  17.2936636551724 2.106665  C 17.4384912413793 2.24952214285714  17.5109050344828 2.46380785714286  17.4384912413793 2.606665  C 17.0764222758621 3.67809357142857  17.221249862069 4.82095071428571  17.8005602068966 5.74952214285714  C 18.3798705517241 6.74952214285714  19.2488360689655 7.39237928571429  20.3350429655172 7.606665  C 20.5522843448276 7.67809357142857  20.6971119310345 7.82095071428571  20.6971119310345 8.03523642857143  C 20.8419395172414 8.67809357142857  20.9143533103448 9.39237928571428  20.9143533103448 10.0352364285714  C 20.9143533103448 10.6780935714286  20.8419395172414 11.3209507142857  20.6971119310345 12.0352364285714  C 20.624698137931 12.2495221428571  20.4798705517241 12.3923792857143  20.3350429655172 12.4638078571429  C 19.2488360689655 12.7495221428571  18.3074567586207 13.3923792857143  17.8005602068966 14.3209507142857  C 17.221249862069 15.3209507142857  17.1488360689655 16.3923792857143  17.4384912413793 17.4638078571429  C 17.5109050344828 17.6780935714286  17.4384912413793 17.8923792857143  17.2936636551724 17.9638078571429  C 16.2798705517241 18.8209507142857  15.121249862069 19.4638078571429  13.8902153793103 19.9638078571429  C 13.672974 20.0352364285714  13.5281464137931 19.9638078571429  13.3833188275862 19.8209507142857  C 12.5867671034483 19.0352364285714  11.572974 18.5352364285714  10.4867671034483 18.5352364285714  C 9.40056020689655 18.5352364285714  8.31435331034483 18.9638078571429  7.59021537931035 19.8209507142857  C 7.5178015862069 19.8923792857143  7.372974 19.9638078571429  7.2281464137931 19.9638078571429  Z " fill-rule="nonzero" fill="#f2f2f2" stroke="none" transform="matrix(1 0 0 1 498 321 )" />
    <path d="M 10.5 14.1428571428571  C 12.8172413793103 14.1428571428571  14.6275862068966 12.2857142857143  14.6275862068966 10  C 14.6275862068966 7.71428571428571  12.7448275862069 5.85714285714286  10.5 5.85714285714286  C 8.18275862068966 5.85714285714286  6.37241379310345 7.71428571428571  6.37241379310345 10  C 6.37241379310345 12.2857142857143  8.2551724137931 14.1428571428571  10.5 14.1428571428571  Z " stroke-width="2" stroke="#bfbfbf" fill="none" transform="matrix(1 0 0 1 498 321 )" mask="url(#clip77)" />
    <path d="M 10.5 13  C 8.83448275862069 13  7.45862068965517 11.6428571428571  7.45862068965517 10  C 7.45862068965517 8.35714285714286  8.83448275862069 7  10.5 7  C 12.1655172413793 7  13.5413793103448 8.35714285714286  13.5413793103448 10  C 13.5413793103448 11.6428571428571  12.1655172413793 13  10.5 13  Z " stroke-width="2" stroke="#bfbfbf" fill="none" transform="matrix(1 0 0 1 498 321 )" mask="url(#clip77)" />
    <path d="M 4.04193951724138 13.7495221428571  C 4.62124986206897 14.8923792857143  4.83849124137931 16.1780935714286  4.54883606896552 17.3923792857143  C 5.34538779310345 18.0352364285714  6.21435331034483 18.5352364285714  7.08331882758621 18.8923792857143  C 8.02469813793103 18.0352364285714  9.25573262068965 17.5352364285714  10.4867671034483 17.5352364285714  C 11.7902153793103 17.5352364285714  12.9488360689655 18.0352364285714  13.8902153793103 18.8923792857143  C 14.8315946896552 18.5352364285714  15.7005602068966 18.0352364285714  16.424698137931 17.3923792857143  C 16.1350429655172 16.1780935714286  16.3522843448276 14.8923792857143  16.9315946896552 13.7495221428571  C 17.5833188275862 12.6780935714286  18.5971119310345 11.8209507142857  19.8281464137931 11.4638078571429  C 19.9005602068966 10.9638078571429  19.972974 10.4638078571429  19.972974 9.96380785714286  C 19.972974 9.46380785714286  19.9005602068965 8.96380785714286  19.8281464137931 8.46380785714286  C 18.5971119310345 8.106665  17.5833188275862 7.24952214285714  16.9315946896552 6.17809357142857  C 16.2798705517241 5.106665  16.1350429655172 3.74952214285714  16.424698137931 2.53523642857143  C 15.6281464137931 1.89237928571429  14.7591808965517 1.39237928571429  13.8902153793103 1.03523642857143  C 12.9488360689655 1.89237928571429  11.7902153793103 2.39237928571429  10.4867671034483 2.39237928571429  C 9.25573262068965 2.39237928571429  8.02469813793103 1.89237928571429  7.08331882758621 1.03523642857143  C 6.14193951724138 1.39237928571429  5.272974 1.89237928571429  4.54883606896552 2.53523642857143  C 4.83849124137931 3.74952214285714  4.62124986206896 5.03523642857143  4.04193951724138 6.17809357142857  C 3.39021537931034 7.24952214285714  2.37642227586207 8.106665  1.14538779310345 8.46380785714286  C 1.072974 8.96380785714286  1.00056020689655 9.46380785714286  1.00056020689655 9.96380785714286  C 1.00056020689655 10.4638078571429  1.072974 10.9638078571429  1.14538779310345 11.4638078571429  C 2.37642227586207 11.8209507142857  3.39021537931034 12.6780935714286  4.04193951724138 13.7495221428571  Z " stroke-width="2" stroke="#bfbfbf" fill="none" transform="matrix(1 0 0 1 498 321 )" mask="url(#clip77)" />
    <path d="M 7.2281464137931 19.9638078571429  C 7.15573262068965 19.9638078571429  7.08331882758621 19.9638078571429  7.08331882758621 19.9638078571429  C 5.85228434482759 19.5352364285714  4.69366365517241 18.8923792857143  3.67987055172414 17.9638078571429  C 3.53504296551724 17.8209507142857  3.46262917241379 17.606665  3.53504296551724 17.4638078571429  C 3.89711193103448 16.3923792857143  3.75228434482759 15.2495221428571  3.172974 14.3209507142857  C 2.59366365517241 13.3209507142857  1.72469813793103 12.6780935714286  0.638491241379311 12.4638078571429  C 0.421249862068966 12.3923792857143  0.276422275862069 12.2495221428571  0.276422275862069 12.0352364285714  C 0.131594689655173 11.3923792857143  0.0591808965517244 10.6780935714286  0.0591808965517244 10.0352364285714  C 0.0591808965517244 9.39237928571428  0.131594689655173 8.74952214285714  0.276422275862069 8.03523642857143  C 0.348836068965518 7.82095071428571  0.493663655172414 7.67809357142857  0.638491241379311 7.606665  C 1.72469813793103 7.32095071428571  2.66607744827586 6.67809357142857  3.172974 5.74952214285714  C 3.75228434482759 4.74952214285714  3.82469813793104 3.67809357142857  3.53504296551724 2.606665  C 3.46262917241379 2.39237928571428  3.53504296551724 2.17809357142857  3.67987055172414 2.106665  C 4.69366365517241 1.24952214285714  5.85228434482759 0.606664999999999  7.08331882758621 0.106664999999999  C 7.30056020689655 0.0352364285714273  7.44538779310345 0.106664999999999  7.59021537931034 0.249522142857142  C 8.38676710344828 1.03523642857143  9.40056020689655 1.53523642857143  10.4867671034483 1.53523642857143  C 11.572974 1.53523642857143  12.6591808965517 1.106665  13.3833188275862 0.249522142857142  C 13.5281464137931 0.106664999999999  13.7453877931035 0.0352364285714276  13.8902153793103 0.106664999999999  C 15.121249862069 0.535236428571427  16.2798705517241 1.17809357142857  17.2936636551724 2.106665  C 17.4384912413793 2.24952214285714  17.5109050344828 2.46380785714286  17.4384912413793 2.606665  C 17.0764222758621 3.67809357142857  17.221249862069 4.82095071428571  17.8005602068966 5.74952214285714  C 18.3798705517241 6.74952214285714  19.2488360689655 7.39237928571429  20.3350429655172 7.606665  C 20.5522843448276 7.67809357142857  20.6971119310345 7.82095071428571  20.6971119310345 8.03523642857143  C 20.8419395172414 8.67809357142857  20.9143533103448 9.39237928571428  20.9143533103448 10.0352364285714  C 20.9143533103448 10.6780935714286  20.8419395172414 11.3209507142857  20.6971119310345 12.0352364285714  C 20.624698137931 12.2495221428571  20.4798705517241 12.3923792857143  20.3350429655172 12.4638078571429  C 19.2488360689655 12.7495221428571  18.3074567586207 13.3923792857143  17.8005602068966 14.3209507142857  C 17.221249862069 15.3209507142857  17.1488360689655 16.3923792857143  17.4384912413793 17.4638078571429  C 17.5109050344828 17.6780935714286  17.4384912413793 17.8923792857143  17.2936636551724 17.9638078571429  C 16.2798705517241 18.8209507142857  15.121249862069 19.4638078571429  13.8902153793103 19.9638078571429  C 13.672974 20.0352364285714  13.5281464137931 19.9638078571429  13.3833188275862 19.8209507142857  C 12.5867671034483 19.0352364285714  11.572974 18.5352364285714  10.4867671034483 18.5352364285714  C 9.40056020689655 18.5352364285714  8.31435331034483 18.9638078571429  7.59021537931035 19.8209507142857  C 7.5178015862069 19.8923792857143  7.372974 19.9638078571429  7.2281464137931 19.9638078571429  Z " stroke-width="2" stroke="#bfbfbf" fill="none" transform="matrix(1 0 0 1 498 321 )" mask="url(#clip77)" />
  </g>
</svg>