<?xml version="1.0" encoding="utf-8"?>
<svg version="1.1" xmlns:xlink="http://www.w3.org/1999/xlink" width="12px" height="9px" xmlns="http://www.w3.org/2000/svg">
  <g transform="matrix(1 0 0 1 -7 -6 )">
    <path d="M 11.9714699571106 0.607295279252713  C 11.9714699571106 0.462963748581491  11.9135692084265 0.325080434677737  11.8115368421053 0.226434782608695  C 11.7180214406207 0.135654655296761  11.5945012536479 0.085114352521159  11.4661505862098 0.085114352521159  C 11.3264248365278 0.085114352521159  11.1929629420893 0.144981243565261  11.0976 0.250434782608695  L 4.38416842105263 7.65078260869565  L 0.903410526315789 4.63095652173913  C 0.81113120780405 4.54698901234743  0.692359673099455 4.50066228831339  0.569364759216806 4.50066228831339  C 0.290315622460194 4.50066228831339  0.0641016013220689 4.73425285361906  0.0641016013220689 5.02240141874817  C 0.0641016013220689 5.18085680958501  0.133837793028515 5.33072546647258  0.253642105263157 5.42973913043478  L 4.10071578947368 8.76730434782609  C 4.19165002184015 8.84634078895277  4.30674103408696 8.8895903866647  4.4256 8.88939130434783  C 4.56541154577198 8.88984405287395  4.69907790930185 8.83009622331518  4.79444210526316 8.72452173913044  L 11.8347789473684 0.964173913043479  C 11.9225967532211 0.867467315415551  11.9714699571106 0.73986710040539  11.9714699571106 0.607295279252713  Z " fill-rule="nonzero" fill="#ffffff" stroke="none" transform="matrix(1 0 0 1 7 6 )" />
  </g>
</svg>