<?xml version="1.0" encoding="utf-8"?>
<svg version="1.1" xmlns:xlink="http://www.w3.org/1999/xlink" width="14px" height="14px" xmlns="http://www.w3.org/2000/svg">
  <g transform="matrix(1 0 0 1 -93 -573 )">
    <path d="M 14 7  C 14 3.13400675118445  10.8659932488156 0  7 0  C 3.13400675118445 0  0 3.13400675118445  0 7  C 0 10.8659932488156  3.13400675118445 14  7 14  C 10.8659932488156 14  14 10.8659932488156  14 7  Z M 7.7 4.9  L 7.7 11.2  L 6.3 11.2  L 6.3 4.9  L 7.7 4.9  Z M 7.7 3.5  C 7.7 3.88659932488156  7.38659932488156 4.2  7 4.2  C 6.61340067511845 4.2  6.3 3.88659932488156  6.3 3.5  C 6.3 3.11340067511844  6.61340067511845 2.8  7 2.8  C 7.38659932488156 2.8  7.7 3.11340067511844  7.7 3.5  Z " fill-rule="nonzero" fill="#2c8cf0" stroke="none" transform="matrix(1 0 0 1 93 573 )" />
  </g>
</svg>