<?xml version="1.0" encoding="utf-8"?>
<svg version="1.1" xmlns:xlink="http://www.w3.org/1999/xlink" width="24px" height="24px" xmlns="http://www.w3.org/2000/svg">
  <g transform="matrix(1 0 0 1 -678 -676 )">
    <path d="M 23.9995800234375 12.0925895348837  C 23.9995800234375 18.6684125116279  18.6271966171875 24  12 24  C 5.3728033828125 24  0.0004199765625 18.6684125116279  0.0004199765625 12.0925895348837  C 0.0004199765625 5.51676651162791  5.3728033828125 0.186029511627907  12 0.186029511627907  C 18.6271966171875 0.186029511627907  23.9995800234375 5.51676651162791  23.9995800234375 12.0925895348837  Z M 22.2853543125 12.0934399767442  C 22.2853543125 6.45738476744186  17.6800869140625 1.88781711627907  12 1.88781711627907  C 6.3199130859375 1.88781711627907  1.7146456875 6.45738476744186  1.7146456875 12.0934399767442  C 1.7146456875 17.7294952093023  6.3199130859375 22.2990628604651  12 22.2990628604651  C 17.6800869140625 22.2990628604651  22.2853543125 17.7294952093023  22.2853543125 12.0934399767442  Z M 10.8926101875 16.0957450930233  C 10.891753078125 16.0965955581395  10.891753078125 16.0965955581395  10.8908959453125 16.0974460232558  L 10.68347465625 16.3024089534884  L 10.6431903515625 16.2624369302326  C 10.534337015625 16.3134650465116  10.4143412109375 16.3457828604651  10.2857742890625 16.3457828604651  C 10.103209265625 16.3457828604651  9.9429291328125 16.2760444418605  9.8040768515625 16.1799414651163  L 9.78350615625 16.199502255814  L 9.680652609375 16.0974460232558  C 9.6797955 16.0965955581395  9.6797955 16.0965955581395  9.6789383671875 16.0957450930233  L 6.1467762890625 12.5909641162791  L 7.359591 11.3884015348837  L 10.2857742890625 14.291901255814  L 16.74411965625 7.88277006976744  L 17.9569343671875 9.08618311627907  L 10.8926101875 16.0957450930233  Z " fill-rule="nonzero" fill="#18be6b" stroke="none" transform="matrix(1 0 0 1 678 676 )" />
  </g>
</svg>