<?xml version="1.0" encoding="utf-8"?>
<svg version="1.1" xmlns:xlink="http://www.w3.org/1999/xlink" width="14px" height="14px" xmlns="http://www.w3.org/2000/svg">
  <g transform="matrix(1 0 0 1 -93 -708 )">
    <path d="M 13.929984 6.98970346666667  C 13.9299990588235 3.17734293333333  10.81344 0.0868298666666667  6.96904282352941 0.0868298666666667  C 3.12467576470588 0.0868298666666667  0.00813176470588213 3.177328  0.00813176470588213 6.98970346666667  C 0.00813176470588213 10.8021088  3.12467576470588 13.8926368  6.96904282352941 13.8926368  C 10.81344 13.8926368  13.929984 10.8020938666667  13.929984 6.98970346666667  Z M 10.2396687058824 9.86416106666667  C 10.3453967058824 9.96960533333333  10.3447943529412 10.1406517333333  10.2384790588235 10.246096  C 10.1853214117647 10.2982282666667  10.1162014117647 10.3245856  10.0465091764706 10.3245856  C 9.97681694117647 10.3245856  9.90710964705882 10.2982282666667  9.85334964705882 10.2449162666667  L 6.96901270588235 7.3725344  L 4.09110588235294 10.2390624  C 4.03794823529412 10.2923744  3.96765364705882 10.3187317333333  3.89794635294118 10.3187317333333  C 3.82823905882353 10.3187317333333  3.75913411764706 10.2923744  3.70597647058824 10.2402421333333  C 3.59964611764706 10.1347978666667  3.59905882352941 9.96375146666667  3.70480188235294 9.85832213333333  L 6.58465129411765 6.989808  L 3.69828141176471 4.11538026666667  C 3.59255341176471 4.009936  3.59314070588235 3.8388896  3.699456 3.73346026666667  C 3.80578635294118 3.62919573333333  3.97708047058824 3.628016  4.08458541176471 3.73462506666667  L 6.96892235294118 6.60700693333333  L 9.84682917647059 3.74049386666667  C 9.95315952941177 3.6338848  10.1256432941176 3.6350496  10.2319585882353 3.73932906666667  C 10.3382889411765 3.84477333333333  10.3388762352941 4.01581973333333  10.2331331764706 4.12124906666667  L 7.35329882352941 6.98973333333333  L 10.2396687058824 9.86416106666667  Z " fill-rule="nonzero" fill="#ed4014" stroke="none" transform="matrix(1 0 0 1 93 708 )" />
  </g>
</svg>