<?xml version="1.0" encoding="utf-8"?>
<svg version="1.1" xmlns:xlink="http://www.w3.org/1999/xlink" width="18px" height="24px" xmlns="http://www.w3.org/2000/svg">
  <g transform="matrix(1 0 0 1 -681 -936 )">
    <path d="M 6.75 15.6471696428571  L 6.75 16.7410714285714  L 11.25 16.7410714285714  L 11.25 15.6473035714286  C 11.2499941742909 15.4695309869848  11.3624152680424 15.3102108475797  11.5325670731707 15.2468571428571  C 11.5680499402615 15.2337081316745  11.6033843721033 15.2201805363325  11.6385640243902 15.2062767857143  C 14.265 14.1624375  16.1890243902439 11.6510089285714  16.1890243902439 8.71875  C 16.1890243902439 4.85030357142857  12.9765182926829 1.71428571428571  9.01371951219512 1.71428571428571  C 5.05092073170732 1.71428571428571  1.83841463414634 4.85030357142857  1.83841463414634 8.71875  C 1.83841463414634 11.6460267857143  3.73099390243902 14.1538928571429  6.34818292682927 15.2009196428571  C 6.38143902439024 15.2142321428571  6.42117073170732 15.2295  6.46748780487805 15.2467232142857  C 6.63761801483299 15.3100943308718  6.75001450859393 15.4694105490305  6.75 15.6471696428571  Z M 11.25 18.4553571428571  L 6.75 18.4553571428571  L 6.75 19.2321428571429  C 6.75 19.3504895892495  6.84827895735422 19.4464285714286  6.96951219512195 19.4464285714286  L 11.030487804878 19.4464285714286  C 11.1517210426458 19.4464285714286  11.25 19.3504895892495  11.25 19.2321428571429  L 11.25 18.4553571428571  Z M 13.0335365853659 16.5066160714286  L 13.0335365853659 20.3571428571429  C 13.0335365853659 20.8305267857143  12.6404176829268 21.2142857142857  12.155487804878 21.2142857142857  L 5.89939024390244 21.2142857142857  C 5.41446036585366 21.2142857142857  5.02134146341463 20.8305267857143  5.02134146341463 20.3571428571429  L 5.02134146341463 16.5200892857143  C 2.09288414634146 15.0891696428571  0.0823170731707317 12.133125  0.0823170731707317 8.71875  C 0.0823170731707317 3.90350892857143  4.08103353658537 0  9.01371951219512 0  C 13.9464054878049 0  17.9451219512195 3.90350892857143  17.9451219512195 8.71875  C 17.9451219512195 12.1224910714286  15.9470945121951 15.0706875  13.0335365853659 16.5066160714286  Z M 5.59756097560976 23.1428571428571  C 5.59756097560976 22.6694732142857  5.99067987804878 22.2857142857143  6.47560975609756 22.2857142857143  L 11.5518292682927 22.2857142857143  C 12.0367591463415 22.2857142857143  12.4298780487805 22.6694732142857  12.4298780487805 23.1428571428571  C 12.4298780487805 23.6162410714286  12.0367591463415 24  11.5518292682927 24  L 6.47560975609756 24  C 5.99067987804878 24  5.59756097560976 23.6162410714286  5.59756097560976 23.1428571428571  Z " fill-rule="nonzero" fill="#2c8cf0" stroke="none" transform="matrix(1 0 0 1 681 936 )" />
  </g>
</svg>