<?xml version="1.0" encoding="utf-8"?>
<svg version="1.1" xmlns:xlink="http://www.w3.org/1999/xlink" width="14px" height="14px" xmlns="http://www.w3.org/2000/svg">
  <g transform="matrix(1 0 0 1 -93 -663 )">
    <path d="M 7.74795449031008 3.67436255232558  L 7.74795449031008 7.41456588372093  C 7.74795449709302 7.85772204375555  7.38879001679852 8.21688652405005  6.94573817732558 8.21688652405005  C 6.50268633785264 8.21688652405005  6.14352185755814 7.85772204375555  6.14352185755814 7.41467020428261  L 6.14352186434109 3.67436255232558  C 6.14352185755814 3.23120639229096  6.50268633785264 2.87204191199646  6.94573817732558 2.87204191199646  C 7.38879001679852 2.87204191199646  7.74795449709302 3.23120639229096  7.74795449709302 3.6742582317639  Z M 7.51180422674419 10.6546863255814  C 7.36306557099309 10.8066768045314  7.15837019956161 10.8908153895081  6.94573817054264 10.8873637751938  C 6.50559696960037 10.8859657642624  6.14953167004743 10.5287677061153  6.14953167004743 10.0886242849428  C 6.14953167004743 9.6474904201631  6.50714132464761 9.28988076556292  6.94827518942727 9.28988076556292  C 7.38940905420694 9.28988076556292  7.74701870880712 9.6474904201631  7.74701870880712 10.0886242849428  C 7.74701870880712 10.3010849641949  7.66237311742675 10.5047911976189  7.51180422674419 10.6546863255814  Z M 9.65104773255814 0.541898854651163  C 8.79571618324217 0.178528830847537  7.87503575531915 -0.00584362800925267  6.94573817054264 0.000142387596899225  C 6.01644058576613 -0.00584362800925284  5.0957601578431 0.178528830847539  4.24042860852713 0.541898854651163  C 2.5708509844371 1.24288524025158  1.24288524025158 2.5708509844371  0.541898854651163 4.24042860852713  C 0.178528830847537 5.0957601578431  -0.00584362800925287 6.01644058576612  0.000142387596899225 6.94573817054264  C -0.00584362800925305 7.87503575531915  0.178528830847539 8.79571618324218  0.541898854651163 9.65104773255814  C 1.24288524025158 11.3206253566482  2.5708509844371 12.6485911008337  4.24042860852713 13.3495774864341  C 5.0957601578431 13.7129475102377  6.01644058576613 13.8973199690945  6.94573817054264 13.8913339534884  C 7.87503575531915 13.8973199690945  8.79571618324217 13.7129475102377  9.65104773255814 13.3495774864341  C 11.3206253566482 12.6485911008337  12.6485911008337 11.3206253566482  13.3495774864341 9.65104773255814  C 13.7129475102377 8.79571618324218  13.8973199690945 7.87503575531915  13.8913339534884 6.94573817054264  C 13.8973199690945 6.01644058576612  13.7129475102377 5.0957601578431  13.3495774864341 4.24042860852713  C 12.6485911008337 2.5708509844371  11.3206253566482 1.24288524025158  9.65104773255814 0.541898854651163  Z " fill-rule="nonzero" fill="#ff9901" stroke="none" transform="matrix(1 0 0 1 93 663 )" />
  </g>
</svg>