<?xml version="1.0" encoding="utf-8"?>
<svg version="1.1" xmlns:xlink="http://www.w3.org/1999/xlink" width="24px" height="24px" xmlns="http://www.w3.org/2000/svg">
  <g transform="matrix(1 0 0 1 -678 -589 )">
    <path d="M 23.9468839285714 12  C 23.9468839285714 18.588  18.588 23.9468839285714  12 23.9468839285714  C 5.41285714285714 23.9468839285714  0.0531160714285715 18.588  0.0531160714285715 12  C 0.0531160714285715 5.41285714285714  5.41285714285714 0.0531160714285715  12 0.0531160714285715  C 18.588 0.0531160714285715  23.9468839285714 5.412  23.9468839285714 12  Z M 22.2325982142857 12  C 22.2325982142857 6.35740178571429  17.6417410714286 1.76740178571429  12 1.76740178571429  C 6.35742857142857 1.76740178571429  1.76740178571429 6.35740178571429  1.76740178571429 12  C 1.76740178571429 17.6417410714286  6.35740178571429 22.2325982142857  12 22.2325982142857  C 17.6417410714286 22.2325982142857  22.2325982142857 17.6425982142857  22.2325982142857 12  Z M 12 5.14285714285714  C 11.2899107142857 5.14285714285714  10.7142857142857 5.71848214285714  10.7142857142857 6.42857142857143  C 10.7142857142857 7.13866071428571  11.2899107142857 7.71428571428572  12 7.71428571428572  C 12.7100892857143 7.71428571428572  13.2857142857143 7.13866071428571  13.2857142857143 6.42857142857143  C 13.2857142857143 5.71848214285714  12.7100892857143 5.14285714285714  12 5.14285714285714  Z M 12.8571428571429 18  C 12.8571428571429 18.4740267857143  12.4731696428571 18.8571428571429  12 18.8571428571429  C 11.5268303571429 18.8571428571429  11.1428571428571 18.4740267857143  11.1428571428571 18  L 11.1428571428571 10.2857142857143  C 11.1428571428571 9.81254464285714  11.5268303571429 9.42857142857143  12 9.42857142857143  C 12.4731696428571 9.42857142857143  12.8571428571429 9.81254464285714  12.8571428571429 10.2857142857143  L 12.8571428571429 18  Z " fill-rule="nonzero" fill="#2c8cf0" stroke="none" transform="matrix(1 0 0 1 678 589 )" />
  </g>
</svg>