<?xml version="1.0" encoding="utf-8"?>
<svg version="1.1" xmlns:xlink="http://www.w3.org/1999/xlink" width="20px" height="20px" xmlns="http://www.w3.org/2000/svg">
  <g transform="matrix(1 0 0 1 -77 -106 )">
    <path d="M 20 9.99545454545455  C 20 9.54318181818182  19.641592920354 9.17727272727273  19.2035398230089 9.17727272727273  L 2.80309734513274 9.18636363636364  L 9.8141592920354 1.46590909090909  C 10.1150442477876 1.13636363636364  10.0973451327434 0.618181818181818  9.77433628318584 0.309090909090909  C 9.45353982300885 0  8.94911504424779 0.0181818181818181  8.64823008849558 0.35  L 0.38716814159292 9.44772727272727  L 0.382743362831858 9.45227272727273  C 0.378318584070796 9.45909090909091  0.371681415929203 9.46363636363636  0.367256637168142 9.47045454545455  C 0.362831858407079 9.475  0.360619469026549 9.47954545454545  0.356194690265487 9.48409090909091  C 0.351769911504425 9.49090909090909  0.347345132743363 9.49545454545455  0.342920353982301 9.50227272727273  C 0.338495575221239 9.50681818181818  0.336283185840708 9.51136363636364  0.331858407079646 9.51590909090909  C 0.327433628318584 9.52045454545455  0.325221238938053 9.52727272727273  0.320796460176991 9.53181818181818  C 0.316371681415929 9.53863636363636  0.311946902654867 9.54318181818182  0.309734513274336 9.55  C 0.307522123893805 9.55454545454545  0.305309734513274 9.55909090909091  0.300884955752212 9.56363636363637  L 0.287610619469027 9.58409090909091  C 0.285398230088496 9.58636363636364  0.285398230088496 9.58863636363636  0.283185840707965 9.59090909090909  L 0.256637168141593 9.63863636363637  C 0.247787610619469 9.65454545454546  0.241150442477876 9.67272727272728  0.234513274336283 9.68863636363636  C 0.225663716814159 9.71136363636364  0.216814159292035 9.73636363636364  0.207964601769911 9.76136363636364  C 0.207964601769911 9.76363636363637  0.20575221238938 9.76590909090909  0.20575221238938 9.76818181818182  C 0.20353982300885 9.77727272727273  0.199115044247788 9.78636363636364  0.196902654867256 9.79772727272728  C 0.194690265486726 9.80909090909091  0.190265486725664 9.82272727272728  0.188053097345132 9.83409090909091  C 0.188053097345132 9.83636363636364  0.188053097345132 9.83863636363637  0.185840707964602 9.84090909090909  C 0.183628318584071 9.85  0.183628318584071 9.85909090909091  0.18141592920354 9.86590909090909  C 0.18141592920354 9.87045454545455  0.179203539823009 9.875  0.179203539823009 9.87954545454546  C 0.179203539823009 9.88636363636364  0.176991150442478 9.89318181818182  0.176991150442478 9.9  C 0.176991150442478 9.90681818181818  0.174778761061947 9.91363636363637  0.174778761061947 9.91818181818182  C 0.174778761061947 9.925  0.174778761061947 9.92954545454546  0.172566371681416 9.93636363636364  C 0.172566371681416 9.94318181818182  0.170353982300885 9.95  0.170353982300885 9.95909090909091  L 0.170353982300885 10.0136363636364  C 0.170353982300885 10.2136363636364  0.241150442477876 10.4136363636364  0.384955752212389 10.5727272727273  L 8.64601769911504 19.6704545454546  C 8.80309734513274 19.8431818181818  9.01548672566372 19.9295454545455  9.22787610619469 19.9295454545455  C 9.42256637168142 19.9295454545455  9.61725663716814 19.8568181818182  9.76991150442478 19.7090909090909  C 10.0907079646018 19.4  10.108407079646 18.8840909090909  9.80973451327434 18.5522727272727  L 2.79424778761062 10.8227272727273  L 19.2035398230089 10.8136363636364  C 19.6438053097345 10.8136363636364  20 10.4477272727273  20 9.99545454545455  Z " fill-rule="nonzero" fill="#000000" stroke="none" transform="matrix(1 0 0 1 77 106 )" />
  </g>
</svg>