<?xml version="1.0" encoding="utf-8"?>
<svg version="1.1" xmlns:xlink="http://www.w3.org/1999/xlink" width="438px" height="192px" xmlns="http://www.w3.org/2000/svg">
  <g transform="matrix(1 0 0 1 -591 -431 )">
    <path d="M 592 437  A 5 5 0 0 1 597 432 L 1023 432  A 5 5 0 0 1 1028 437 L 1028 617  A 5 5 0 0 1 1023 622 L 597 622  A 5 5 0 0 1 592 617 L 592 437  Z " fill-rule="nonzero" fill="#000000" stroke="none" fill-opacity="0.0196078431372549" />
    <path d="M 591.5 437  A 5.5 5.5 0 0 1 597 431.5 L 1023 431.5  A 5.5 5.5 0 0 1 1028.5 437 L 1028.5 617  A 5.5 5.5 0 0 1 1023 622.5 L 597 622.5  A 5.5 5.5 0 0 1 591.5 617 L 591.5 437  Z " stroke-width="1" stroke-dasharray="9,4" stroke="#108ee9" fill="none" stroke-dashoffset="0.5" />
  </g>
</svg>