<?xml version="1.0" encoding="utf-8"?>
<svg version="1.1" xmlns:xlink="http://www.w3.org/1999/xlink" width="104px" height="104px" xmlns="http://www.w3.org/2000/svg">
  <g transform="matrix(1 0 0 1 -661 -44 )">
    <path d="M 662 48  A 3 3 0 0 1 665 45 L 761 45  A 3 3 0 0 1 764 48 L 764 144  A 3 3 0 0 1 761 147 L 665 147  A 3 3 0 0 1 662 144 L 662 48  Z " fill-rule="nonzero" fill="#000000" stroke="none" fill-opacity="0.0196078431372549" />
    <path d="M 661.5 48  A 3.5 3.5 0 0 1 665 44.5 L 761 44.5  A 3.5 3.5 0 0 1 764.5 48 L 764.5 144  A 3.5 3.5 0 0 1 761 147.5 L 665 147.5  A 3.5 3.5 0 0 1 661.5 144 L 661.5 48  Z " stroke-width="1" stroke-dasharray="9,4" stroke="#d9d9d9" fill="none" stroke-dashoffset="0.5" />
  </g>
</svg>