<?xml version="1.0" encoding="utf-8"?>
<svg version="1.1" xmlns:xlink="http://www.w3.org/1999/xlink" width="12px" height="12px" xmlns="http://www.w3.org/2000/svg">
  <g transform="matrix(1 0 0 1 -362 -480 )">
    <path d="M 11.8750792682927 5.99238888888889  C 11.8750792682927 5.66511111111111  11.613 5.3997962962963  11.2897134146341 5.3997962962963  L 6.58536585365854 5.3997962962963  L 6.58536585365854 0.63737037037037  C 6.58536585365854 0.310092592592593  6.32328658536585 0.0447777777777779  6 0.0447777777777779  C 5.67671341463415 0.0447777777777779  5.41463414634146 0.310092592592593  5.41463414634146 0.63737037037037  L 5.41463414634146 5.3997962962963  L 0.710304878048781 5.3997962962963  C 0.387018292682927 5.3997962962963  0.124939024390244 5.66511111111111  0.124939024390244 5.99238888888889  C 0.124939024390244 6.31966666666666  0.387018292682927 6.58498148148148  0.710304878048781 6.58498148148148  L 5.41463414634146 6.58498148148148  L 5.41463414634146 11.3473888888889  C 5.41463414634146 11.6746666666667  5.67671341463415 11.9399814814815  6 11.9399814814815  C 6.32328658536585 11.9399814814815  6.58536585365854 11.6746666666667  6.58536585365854 11.3473888888889  L 6.58536585365854 6.58498148148148  L 11.2897134146341 6.58498148148148  C 11.613 6.58498148148148  11.8750792682927 6.31966666666666  11.8750792682927 5.99238888888889  Z " fill-rule="nonzero" fill="#333333" stroke="none" transform="matrix(1 0 0 1 362 480 )" />
  </g>
</svg>