<?xml version="1.0" encoding="utf-8"?>
<svg version="1.1" xmlns:xlink="http://www.w3.org/1999/xlink" width="19px" height="16px" xmlns="http://www.w3.org/2000/svg">
  <g transform="matrix(1 0 0 1 -68 -92 )">
    <path d="M 5.44666665875 3  L 5.44666665875 0  L 18.9577777725 0  L 18.9577777725 3  L 5.44666665875 3  Z M 0.0422222275 2.7080103255814  L 0.0422222275 0.0620155116279067  L 2.744444455 0.0620155116279067  L 2.744444455 2.7080103255814  L 0.0422222275 2.7080103255814  Z M 0.0422222275 9.32299741860465  L 0.0422222275 6.67700258139535  L 2.744444455 6.67700258139535  L 2.744444455 9.32299741860465  L 0.0422222275 9.32299741860465  Z M 0.0422222275 15.9379844883721  L 0.0422222275 13.2919896744186  L 2.744444455 13.2919896744186  L 2.744444455 15.9379844883721  L 0.0422222275 15.9379844883721  Z M 5.44666665875 16  L 5.44666665875 13  L 18.9577777725 13  L 18.9577777725 16  L 5.44666665875 16  Z M 5.44666665875 9.32299741860465  L 5.44666665875 6.67700258139535  L 18.9577777725 6.67700258139535  L 18.9577777725 9.32299741860465  L 5.44666665875 9.32299741860465  Z " fill-rule="nonzero" fill="#aaaaaa" stroke="none" transform="matrix(1 0 0 1 68 92 )" />
  </g>
</svg>