<?xml version="1.0" encoding="utf-8"?>
<svg version="1.1" xmlns:xlink="http://www.w3.org/1999/xlink" width="62px" height="32px" xmlns="http://www.w3.org/2000/svg">
  <g transform="matrix(1 0 0 1 -284 -218 )">
    <path d="M 285 222  A 3 3 0 0 1 288 219 L 342 219  A 3 3 0 0 1 345 222 L 345 246  A 3 3 0 0 1 342 249 L 288 249  A 3 3 0 0 1 285 246 L 285 222  Z " fill-rule="nonzero" fill="#e6a23c" stroke="none" fill-opacity="0.0980392156862745" />
    <path d="M 284.5 222  A 3.5 3.5 0 0 1 288 218.5 L 342 218.5  A 3.5 3.5 0 0 1 345.5 222 L 345.5 246  A 3.5 3.5 0 0 1 342 249.5 L 288 249.5  A 3.5 3.5 0 0 1 284.5 246 L 284.5 222  Z " stroke-width="1" stroke="#e6a23c" fill="none" stroke-opacity="0.2" />
  </g>
</svg>