<?xml version="1.0" encoding="utf-8"?>
<svg version="1.1" xmlns:xlink="http://www.w3.org/1999/xlink" width="62px" height="32px" xmlns="http://www.w3.org/2000/svg">
  <g transform="matrix(1 0 0 1 -357 -218 )">
    <path d="M 358 222  A 3 3 0 0 1 361 219 L 415 219  A 3 3 0 0 1 418 222 L 418 246  A 3 3 0 0 1 415 249 L 361 249  A 3 3 0 0 1 358 246 L 358 222  Z " fill-rule="nonzero" fill="#909399" stroke="none" fill-opacity="0.0980392156862745" />
    <path d="M 357.5 222  A 3.5 3.5 0 0 1 361 218.5 L 415 218.5  A 3.5 3.5 0 0 1 418.5 222 L 418.5 246  A 3.5 3.5 0 0 1 415 249.5 L 361 249.5  A 3.5 3.5 0 0 1 357.5 246 L 357.5 222  Z " stroke-width="1" stroke="#909399" fill="none" stroke-opacity="0.2" />
  </g>
</svg>