<?xml version="1.0" encoding="utf-8"?>
<svg version="1.1" xmlns:xlink="http://www.w3.org/1999/xlink" width="10px" height="8px" xmlns="http://www.w3.org/2000/svg">
  <g transform="matrix(1 0 0 1 -132 -289 )">
    <path d="M 8.81979695431472 1.2625  C 9.21319796954315 1.22083333333333  9.60659898477157 1.11666666666667  10 0.95  C 9.7165820642978 1.35833333333333  9.37394247038917 1.70625  8.97208121827411 1.99375  C 8.97631133671743 2.05208333333333  8.97842639593909 2.13958333333333  8.97842639593909 2.25625  C 8.97842639593909 2.79791666666667  8.89805414551608 3.33854166666667  8.73730964467005 3.878125  C 8.57656514382403 4.41770833333333  8.3322758037225 4.93541666666667  8.00444162436548 5.43125  C 7.67660744500846 5.92708333333333  7.28637901861252 6.365625  6.83375634517767 6.746875  C 6.38113367174281 7.128125  5.83544839255499 7.43229166666667  5.19670050761421 7.659375  C 4.55795262267343 7.88645833333333  3.87478849407783 8  3.14720812182741 8  C 2.00084602368866 8  0.951776649746193 7.69791666666667  0 7.09375  C 0.148054145516075 7.11041666666667  0.313028764805415 7.11875  0.49492385786802 7.11875  C 1.44670050761421 7.11875  2.29483925549915 6.83125  3.03934010152284 6.25625  C 2.59517766497462 6.24791666666667  2.19754653130288 6.11354166666667  1.84644670050761 5.853125  C 1.49534686971235 5.59270833333333  1.25423011844332 5.26041666666667  1.12309644670051 4.85625  C 1.26269035532995 4.87708333333333  1.3917089678511 4.8875  1.51015228426396 4.8875  C 1.69204737732657 4.8875  1.87182741116751 4.86458333333333  2.0494923857868 4.81875  C 1.57571912013536 4.72291666666667  1.18337563451777 4.490625  0.87246192893401 4.121875  C 0.561548223350254 3.753125  0.406091370558376 3.325  0.406091370558376 2.8375  L 0.406091370558376 2.8125  C 0.693739424703892 2.97083333333333  1.00253807106599 3.05625  1.33248730964467 3.06875  C 1.05329949238579 2.88541666666667  0.831218274111675 2.64583333333333  0.666243654822335 2.35  C 0.501269035532995 2.05416666666667  0.418781725888325 1.73333333333333  0.418781725888325 1.3875  C 0.418781725888325 1.02083333333333  0.511844331641286 0.68125  0.697969543147208 0.36875  C 1.20981387478849 0.989583333333333  1.83269881556684 1.48645833333333  2.56662436548223 1.859375  C 3.30054991539763 2.23229166666667  4.08629441624366 2.43958333333333  4.9238578680203 2.48125  C 4.89001692047377 2.32291666666667  4.87309644670051 2.16875  4.87309644670051 2.01875  C 4.87309644670051 1.46041666666667  5.07296954314721 0.984375  5.47271573604061 0.590625  C 5.87246192893401 0.196875  6.35575296108291 0  6.92258883248731 0  C 7.51480541455161 0  8.01395939086294 0.2125  8.42005076142132 0.6375  C 8.88113367174281 0.55  9.31472081218274 0.3875  9.72081218274112 0.15  C 9.56429780033841 0.629166666666666  9.26395939086295 1  8.81979695431472 1.2625  Z " fill-rule="nonzero" fill="#ffffff" stroke="none" transform="matrix(1 0 0 1 132 289 )" />
  </g>
</svg>