<?xml version="1.0" encoding="utf-8"?>
<svg version="1.1" xmlns:xlink="http://www.w3.org/1999/xlink" width="60px" height="20px" xmlns="http://www.w3.org/2000/svg">
  <g transform="matrix(1 0 0 1 -273 -90 )">
    <path d="M 274 94  A 3 3 0 0 1 277 91 L 329 91  A 3 3 0 0 1 332 94 L 332 106  A 3 3 0 0 1 329 109 L 277 109  A 3 3 0 0 1 274 106 L 274 94  Z " fill-rule="nonzero" fill="#f5f5f5" stroke="none" fill-opacity="0" />
    <path d="M 273.5 94  A 3.5 3.5 0 0 1 277 90.5 L 329 90.5  A 3.5 3.5 0 0 1 332.5 94 L 332.5 106  A 3.5 3.5 0 0 1 329 109.5 L 277 109.5  A 3.5 3.5 0 0 1 273.5 106 L 273.5 94  Z " stroke-width="1" stroke-dasharray="3,1" stroke="#d9d9d9" fill="none" stroke-dashoffset="0.5" />
  </g>
</svg>