<?xml version="1.0" encoding="utf-8"?>
<svg version="1.1" xmlns:xlink="http://www.w3.org/1999/xlink" width="62px" height="32px" xmlns="http://www.w3.org/2000/svg">
  <g transform="matrix(1 0 0 1 -430 -218 )">
    <path d="M 431 222  A 3 3 0 0 1 434 219 L 488 219  A 3 3 0 0 1 491 222 L 491 246  A 3 3 0 0 1 488 249 L 434 249  A 3 3 0 0 1 431 246 L 431 222  Z " fill-rule="nonzero" fill="#f56c6c" stroke="none" fill-opacity="0.0980392156862745" />
    <path d="M 430.5 222  A 3.5 3.5 0 0 1 434 218.5 L 488 218.5  A 3.5 3.5 0 0 1 491.5 222 L 491.5 246  A 3.5 3.5 0 0 1 488 249.5 L 434 249.5  A 3.5 3.5 0 0 1 430.5 246 L 430.5 222  Z " stroke-width="1" stroke="#f56c6c" fill="none" stroke-opacity="0.2" />
  </g>
</svg>