<?xml version="1.0" encoding="utf-8"?>
<svg version="1.1" xmlns:xlink="http://www.w3.org/1999/xlink" width="8px" height="8px" xmlns="http://www.w3.org/2000/svg">
  <g transform="matrix(1 0 0 1 -281 -96 )">
    <path d="M 7.91671951219512 3.99492592592593  C 7.91671951219512 3.77674074074074  7.742 3.59986419753086  7.5264756097561 3.59986419753086  L 4.39024390243902 3.59986419753086  L 4.39024390243902 0.424913580246914  C 4.39024390243902 0.206728395061728  4.2155243902439 0.0298518518518519  4 0.0298518518518519  C 3.7844756097561 0.0298518518518519  3.60975609756098 0.206728395061728  3.60975609756098 0.424913580246914  L 3.60975609756098 3.59986419753086  L 0.473536585365854 3.59986419753086  C 0.258012195121951 3.59986419753086  0.0832926829268294 3.77674074074074  0.0832926829268294 3.99492592592593  C 0.0832926829268294 4.21311111111111  0.258012195121951 4.38998765432099  0.473536585365854 4.38998765432099  L 3.60975609756098 4.38998765432099  L 3.60975609756098 7.56492592592593  C 3.60975609756098 7.78311111111111  3.7844756097561 7.95998765432099  4 7.95998765432099  C 4.2155243902439 7.95998765432099  4.39024390243902 7.78311111111111  4.39024390243902 7.56492592592593  L 4.39024390243902 4.38998765432099  L 7.5264756097561 4.38998765432099  C 7.742 4.38998765432099  7.91671951219512 4.21311111111111  7.91671951219512 3.99492592592593  Z " fill-rule="nonzero" fill="#d7d7d7" stroke="none" transform="matrix(1 0 0 1 281 96 )" />
  </g>
</svg>