<?xml version="1.0" encoding="utf-8"?>
<svg version="1.1" xmlns:xlink="http://www.w3.org/1999/xlink" width="15px" height="16px" xmlns="http://www.w3.org/2000/svg">
  <g transform="matrix(1 0 0 1 -16 -8 )">
    <path d="M 7.015625 8.5  C 7.015625 8.775  7.2390625 9  7.515625 9  C 7.7921875 9  8.015625 8.7765625  8.015625 8.5  L 8.015625 0.5  C 8.015625 0.2234375  7.7921875 0  7.515625 0  C 7.2390625 0  7.015625 0.2234375  7.015625 0.5  L 7.015625 8.5  Z M 15 8.5  C 15 6.9515625  14.53125 5.4640625  13.646875 4.2  C 13.2203125 3.5921875  12.7078125 3.05  12.121875 2.5921875  C 11.53125 2.1296875  10.8765625 1.759375  10.1796875 1.4921875  C 9.921875 1.39375  9.6328125 1.521875  9.534375 1.78125  C 9.4359375 2.0390625  9.565625 2.328125  9.8234375 2.4265625  C 12.3234375 3.3828125  14.0015625 5.8234375  14.0015625 8.5  C 14.0015625 12.084375  11.0859375 15  7.5015625 15  C 3.9171875 15  1.0015625 12.084375  1.0015625 8.5  C 1.0015625 5.8234375  2.68125 3.3828125  5.1796875 2.4265625  C 5.4375 2.328125  5.5671875 2.0390625  5.46875 1.78125  C 5.3703125 1.5234375  5.08125 1.39375  4.8234375 1.4921875  C 4.125 1.759375  3.471875 2.1296875  2.88125 2.5921875  C 2.2953125 3.05  1.7828125 3.5921875  1.35625 4.2  C 0.46875 5.4640625  0 6.9515625  0 8.5  C 0 9.5125  0.1984375 10.49375  0.5890625 11.41875  C 0.9671875 12.3125  1.5078125 13.1140625  2.196875 13.803125  C 2.8859375 14.4921875  3.6875 15.0328125  4.58125 15.4109375  C 5.50625 15.8015625  6.4890625 16  7.5 16  C 8.5125 16  9.4953125 15.8015625  10.41875 15.4109375  C 11.3125 15.0328125  12.1140625 14.4921875  12.803125 13.803125  C 13.4921875 13.1140625  14.0328125 12.3125  14.4109375 11.41875  C 14.8015625 10.49375  15 9.5109375  15 8.5  Z " fill-rule="nonzero" fill="#ffffff" stroke="none" transform="matrix(1 0 0 1 16 8 )" />
  </g>
</svg>