<?xml version="1.0" encoding="utf-8"?>
<svg version="1.1" xmlns:xlink="http://www.w3.org/1999/xlink" width="16px" height="16px" xmlns="http://www.w3.org/2000/svg">
  <g transform="matrix(1 0 0 1 -17 -8 )">
    <path d="M 25 8  C 29.48 8  33 11.52  33 16  C 33 20.48  29.48 24  25 24  C 20.52 24  17 20.48  17 16  C 17 11.52  20.52 8  25 8  Z " fill-rule="nonzero" fill="#ffffff" stroke="none" fill-opacity="0" />
    <path d="M 25 8.5  C 29.2 8.5  32.5 11.8  32.5 16  C 32.5 20.2  29.2 23.5  25 23.5  C 20.8 23.5  17.5 20.2  17.5 16  C 17.5 11.8  20.8 8.5  25 8.5  Z " stroke-width="1" stroke="#ffffff" fill="none" />
  </g>
</svg>