<?xml version="1.0" encoding="utf-8"?>
<svg version="1.1" xmlns:xlink="http://www.w3.org/1999/xlink" width="40px" height="40px" xmlns="http://www.w3.org/2000/svg">
  <g transform="matrix(1 0 0 1 -188 -360 )">
    <path d="M 189 380  A 19 19 0 0 1 208 361 A 19 19 0 0 1 227 380 A 19 19 0 0 1 208 399 A 19 19 0 0 1 189 380 Z " fill-rule="nonzero" fill="#f2f2f2" stroke="none" />
    <path d="M 188.5 380  A 19.5 19.5 0 0 1 208 360.5 A 19.5 19.5 0 0 1 227.5 380 A 19.5 19.5 0 0 1 208 399.5 A 19.5 19.5 0 0 1 188.5 380 Z " stroke-width="1" stroke-dasharray="3,1" stroke="#bfbfbf" fill="none" stroke-dashoffset="0.5" />
  </g>
</svg>