<?xml version="1.0" encoding="utf-8"?>
<svg version="1.1" xmlns:xlink="http://www.w3.org/1999/xlink" width="16px" height="16px" xmlns="http://www.w3.org/2000/svg">
  <g transform="matrix(1 0 0 1 -16 -8 )">
    <path d="M 24 8  C 28.48 8  32 11.52  32 16  C 32 20.48  28.48 24  24 24  C 19.52 24  16 20.48  16 16  C 16 11.52  19.52 8  24 8  Z " fill-rule="nonzero" fill="#47a6ff" stroke="none" fill-opacity="0" />
    <path d="M 24 8.5  C 28.2 8.5  31.5 11.8  31.5 16  C 31.5 20.2  28.2 23.5  24 23.5  C 19.8 23.5  16.5 20.2  16.5 16  C 16.5 11.8  19.8 8.5  24 8.5  Z " stroke-width="1" stroke="#47a6ff" fill="none" />
  </g>
</svg>