<?xml version="1.0" encoding="utf-8"?>
<svg version="1.1" xmlns:xlink="http://www.w3.org/1999/xlink" width="32px" height="32px" xmlns="http://www.w3.org/2000/svg">
  <g transform="matrix(1 0 0 1 -192 -477 )">
    <path d="M 193 493  A 15 15 0 0 1 208 478 A 15 15 0 0 1 223 493 A 15 15 0 0 1 208 508 A 15 15 0 0 1 193 493 Z " fill-rule="nonzero" fill="#ffffff" stroke="none" />
    <path d="M 192.5 493  A 15.5 15.5 0 0 1 208 477.5 A 15.5 15.5 0 0 1 223.5 493 A 15.5 15.5 0 0 1 208 508.5 A 15.5 15.5 0 0 1 192.5 493 Z " stroke-width="1" stroke-dasharray="3,1" stroke="#1890ff" fill="none" stroke-dashoffset="0.5" />
  </g>
</svg>