<?xml version="1.0" encoding="utf-8"?>
<svg version="1.1" xmlns:xlink="http://www.w3.org/1999/xlink" width="16px" height="16px" xmlns="http://www.w3.org/2000/svg">
  <defs>
    <mask fill="white" id="clip9">
      <path d="M 0.0987654259259259 0.0987654259259259  L 15.9012345740741 0.0987654259259259  L 15.9012345740741 15.9012345740741  L 0.0987654259259259 15.9012345740741  L 0.0987654259259259 0.0987654259259259  Z M 8 8.55861727777778  L 1.44750616666667 15.1111111111111  L 14.5528888888889 15.1111111111111  L 8.00039505555556 8.55861727777778  Z M 15.1111111111111 14.5524938333333  L 15.1111111111111 1.44711111111111  L 8.55901235185185 7.99960494444444  L 15.1111111111111 14.5524938333333  Z M 7.44138272222222 7.99960494444445  L 0.888888888888889 1.44750616666667  L 0.888888888888889 14.5520987592593  L 7.44138272222222 7.99960494444445  Z M 8.00039505555556 7.44098764814815  L 14.5520987592593 0.888888888888889  L 1.44750616666667 0.888888888888889  L 8.00039505555556 7.44098764814815  Z " fill-rule="evenodd" />
    </mask>
  </defs>
  <g transform="matrix(1 0 0 1 -316 -542 )">
    <path d="M 0.0987654259259259 0.0987654259259259  L 15.9012345740741 0.0987654259259259  L 15.9012345740741 15.9012345740741  L 0.0987654259259259 15.9012345740741  L 0.0987654259259259 0.0987654259259259  Z M 8 8.55861727777778  L 1.44750616666667 15.1111111111111  L 14.5528888888889 15.1111111111111  L 8.00039505555556 8.55861727777778  Z M 15.1111111111111 14.5524938333333  L 15.1111111111111 1.44711111111111  L 8.55901235185185 7.99960494444444  L 15.1111111111111 14.5524938333333  Z M 7.44138272222222 7.99960494444445  L 0.888888888888889 1.44750616666667  L 0.888888888888889 14.5520987592593  L 7.44138272222222 7.99960494444445  Z M 8.00039505555556 7.44098764814815  L 14.5520987592593 0.888888888888889  L 1.44750616666667 0.888888888888889  L 8.00039505555556 7.44098764814815  Z " fill-rule="nonzero" fill="#f2f2f2" stroke="none" transform="matrix(1 0 0 1 316 542 )" />
    <path d="M 0.0987654259259259 0.0987654259259259  L 15.9012345740741 0.0987654259259259  L 15.9012345740741 15.9012345740741  L 0.0987654259259259 15.9012345740741  L 0.0987654259259259 0.0987654259259259  Z " stroke-width="2" stroke="#bfbfbf" fill="none" transform="matrix(1 0 0 1 316 542 )" mask="url(#clip9)" />
    <path d="M 8 8.55861727777778  L 1.44750616666667 15.1111111111111  L 14.5528888888889 15.1111111111111  L 8.00039505555556 8.55861727777778  Z " stroke-width="2" stroke="#bfbfbf" fill="none" transform="matrix(1 0 0 1 316 542 )" mask="url(#clip9)" />
    <path d="M 15.1111111111111 14.5524938333333  L 15.1111111111111 1.44711111111111  L 8.55901235185185 7.99960494444444  L 15.1111111111111 14.5524938333333  Z " stroke-width="2" stroke="#bfbfbf" fill="none" transform="matrix(1 0 0 1 316 542 )" mask="url(#clip9)" />
    <path d="M 7.44138272222222 7.99960494444445  L 0.888888888888889 1.44750616666667  L 0.888888888888889 14.5520987592593  L 7.44138272222222 7.99960494444445  Z " stroke-width="2" stroke="#bfbfbf" fill="none" transform="matrix(1 0 0 1 316 542 )" mask="url(#clip9)" />
    <path d="M 8.00039505555556 7.44098764814815  L 14.5520987592593 0.888888888888889  L 1.44750616666667 0.888888888888889  L 8.00039505555556 7.44098764814815  Z " stroke-width="2" stroke="#bfbfbf" fill="none" transform="matrix(1 0 0 1 316 542 )" mask="url(#clip9)" />
  </g>
</svg>