<?xml version="1.0" encoding="utf-8"?>
<svg version="1.1" xmlns:xlink="http://www.w3.org/1999/xlink" width="16px" height="14px" xmlns="http://www.w3.org/2000/svg">
  <g transform="matrix(1 0 0 1 -302 -1309 )">
    <path d="M 4.57142857142857 8.16666666666667  L 0 4.00225  L 4.57142857142857 0  L 4.57142857142857 8.16666666666667  Z M 10.3445714285714 14  L 3.59771428571429 14  L 3.59771428571429 11.9583333333333  L 10.3445714285714 11.9583333333333  C 12.3170169636814 11.9583333333333  13.916 10.3260381504248  13.916 8.3125  C 13.916 6.29896184957523  12.3170169636814 4.66666666666667  10.3445714285714 4.66666666666667  L 3.14285714285714 4.66666666666667  L 3.14285714285714 2.625  L 10.3445714285714 2.625  C 13.4217142857143 2.625  15.916 5.17125  15.916 8.3125  C 15.916 11.45375  13.4217142857143 14  10.3445714285714 14  Z " fill-rule="nonzero" fill="#aaaaaa" stroke="none" transform="matrix(1 0 0 1 302 1309 )" />
  </g>
</svg>