<?xml version="1.0" encoding="utf-8"?>
<svg version="1.1" xmlns:xlink="http://www.w3.org/1999/xlink" width="15px" height="16px" xmlns="http://www.w3.org/2000/svg">
  <g transform="matrix(1 0 0 1 -16 -8 )">
    <path d="M 2.11206897090517 0  L 9.00862068426724 0  C 10.1258620635776 0  13.6837930926724 3.41599999999982  13.8313793049569 4.59466667187476  L 13.8362068965517 4.66666667187476  L 13.8362068965517 7.58333332812461  C 13.8357847318782 7.95123417951048  13.5271394648173 8.24926050316994  13.1465521430346 8.24926050316994  C 12.7971734951363 8.24926050316994  12.5029889806285 7.99670209739951  12.4617241325431 7.66133332812461  L 12.4568965571121 7.58333332812461  L 12.4568965571121 5.33333332812473  L 10.3879310398707 5.33333332812473  C 9.29237406904454 5.33339232537966  8.38668647283102 4.50788102014172  8.32241379310345 3.45066667187482  L 8.31896552262931 3.33333332812483  L 8.31896552262931 1.33333332812493  L 2.11206897090517 1.33333332812493  C 1.76243115648267 1.3333779160861  1.46814900597957 1.58633807367609  1.42724138469828 1.9219999999999  L 1.42241379310345 1.9999999999999  L 1.42241379310345 13.3333333281243  C 1.4221853644274 14.0310831697021  1.97849859099973 14.6110021221212  2.69827585668103 14.6633333281242  L 2.8017241325431 14.6666666718742  L 8.31896552262931 14.6666666718742  C 8.69955255761902 14.6670748361606  9.0078555690699 14.9654319065559  9.0078555690699 15.333332933463  C 9.0078555690699 15.6710655764341  8.74658832792432 15.9554439149448  8.39965517780172 15.9953333281242  L 8.31896552262931 15.9999999999992  L 2.8017241325431 15.9999999999992  C 1.33179214345923 16.0000011062177  0.120048329190076 14.8858236484033  0.0465517241379314 13.4666666718743  L 0 13.3333333281243  L 0 1.9999999999999  C 0.043042422020755 0.940961594868005  0.897019634335914 0.0654635851949847  1.99068964978448 0.00333332812499983  L 2.11206897090517 0  Z M 12.4568965571121 11.6093333281244  C 12.4568965660391 11.2411435042313  12.765665694033 10.9426666805039  13.14655171875 10.9426666718744  C 13.3294446964061 10.9427044265733  13.5048326005939 11.0129670833018  13.6341379364224 11.1379999999994  L 14.7279310344828 12.1953333281244  C 14.9971599580877 12.4556665642352  14.9971599580877 12.8776667638885  14.7279310344828 13.1379999999993  L 13.6341379364224 14.1953333281243  C 13.5048084936713 14.3203140429201  13.3294235620248 14.3905243051243  13.1465517191884 14.3905243051243  C 12.7657231954107 14.3905243051243  12.4569778830903 14.0921342312569  12.4568965571121 13.7239999999993  L 12.4568965571121 13.3333333281243  L 9.00862068426724 13.3333333281243  C 8.6277758828556 13.3332769669029  8.31907108791439 13.034816643074  8.31907108791439 12.6666666640619  C 8.31907108791439 12.2985166850497  8.6277758828556 12.0000563612208  9.00862068426724 11.9999999999994  L 12.4568965571121 11.9999999999994  L 12.4568965571121 11.6093333281244  Z M 4.18103448814655 8.66666667187456  L 9.00862068426724 8.66666667187456  C 9.38946548567733 8.66672303309812  9.69817028061609 8.96518335692637  9.69817028061609 9.33333333593702  C 9.69817028061609 9.70148331494767  9.38946548567732 9.99994363877592  9.00862068426724 9.99999999999949  L 4.18103448814655 9.99999999999949  C 3.80018968673647 9.99994363877592  3.4914848917977 9.70148331494767  3.4914848917977 9.33333333593702  C 3.4914848917977 8.96518335692637  3.80018968673647 8.66672303309812  4.18103448814655 8.66666667187456  Z M 4.18103448814655 5.33333332812473  L 7.62931034482759 5.33333332812473  C 8.01019638216932 5.33333332812473  8.31896552262931 5.6318101639027  8.31896552262931 5.99999999999969  C 8.31896552262931 6.36818983609668  8.01019638216932 6.66666667187466  7.62931034482759 6.66666667187466  L 4.18103448814655 6.66666667187466  C 3.80014845080482 6.66666667187466  3.49137931034483 6.36818983609668  3.49137931034483 5.99999999999969  C 3.49137931034483 5.6318101639027  3.80014845080482 5.33333332812473  4.18103448814655 5.33333332812473  Z M 9.69827586206897 1.79533332812491  L 9.69827586206897 3.33333332812483  C 9.69832198754604 3.67131654873323  9.96000490919086 3.95578929421954  10.3072413846983 3.9953333281248  L 10.3879310398707 3.99999999999979  L 11.9796551670259 3.99999999999979  C 11.2682116430387 3.21940375974431  10.5062193298721 2.48325652873807  9.69827586206897 1.79599999999991  Z " fill-rule="nonzero" fill="#333333" stroke="none" transform="matrix(1 0 0 1 16 8 )" />
  </g>
</svg>