<?xml version="1.0" encoding="utf-8"?>
<svg version="1.1" xmlns:xlink="http://www.w3.org/1999/xlink" width="16px" height="16px" xmlns="http://www.w3.org/2000/svg">
  <g transform="matrix(1 0 0 1 -87 -1308 )">
    <path d="M 15.8020833333333 0.197916666666666  C 15.9340277777778 0.329861111111109  16 0.486111111111109  16 0.666666666666666  L 16 15.3333333333333  C 16 15.5138888888889  15.9340277777778 15.6701388888889  15.8020833333333 15.8020833333333  C 15.6701388888889 15.9340277777778  15.5138888888889 16  15.3333333333333 16  L 0.666666666666667 16  C 0.486111111111111 16  0.329861111111111 15.9340277777778  0.197916666666667 15.8020833333333  C 0.0659722222222222 15.6701388888889  0 15.5138888888889  0 15.3333333333333  L 0 0.666666666666666  C 0 0.486111111111109  0.0659722222222222 0.329861111111109  0.197916666666667 0.197916666666666  C 0.329861111111111 0.0659722222222214  0.486111111111111 0  0.666666666666667 0  L 15.3333333333333 0  C 15.5138888888889 0  15.6701388888889 0.0659722222222214  15.8020833333333 0.197916666666666  Z " fill-rule="nonzero" fill="#02a7f0" stroke="none" transform="matrix(1 0 0 1 87 1308 )" />
  </g>
</svg>