<?xml version="1.0" encoding="utf-8"?>
<svg version="1.1" xmlns:xlink="http://www.w3.org/1999/xlink" width="12px" height="7px" xmlns="http://www.w3.org/2000/svg">
  <g transform="matrix(1 0 0 1 -33 -1158 )">
    <path d="M 12 3.357375  C 12 2.8735  11.616 2.482375  11.1428571428571 2.482375  L 9.42857142857143 2.482375  C 9.36085714285714 2.482375  9.30085714285714 2.506875  9.23657142857143 2.52175  C 8.81828571428571 1.071  7.51714285714286 0  5.96057142857143 0  C 4.40571428571429 0  3.10457142857143 1.070125  2.68628571428571 2.52  C 2.62457142857143 2.506  2.56628571428571 2.482375  2.50114285714286 2.482375  L 0.857142857142857 2.482375  C 0.383142857142857 2.482375  0 2.8735  0 3.357375  C 0 3.84125  0.383142857142857 4.232375  0.857142857142857 4.232375  L 2.50114285714286 4.232375  C 2.538 4.232375  2.56971428571429 4.21575  2.60485714285714 4.211375  C 2.928 5.800375  4.30885714285714 7  5.96057142857143 7  C 7.61314285714286 7  8.99571428571429 5.7995  9.31885714285714 4.209625  C 9.35657142857143 4.214875  9.38914285714286 4.232375  9.42857142857143 4.232375  L 11.1428571428571 4.232375  C 11.616 4.232375  12 3.84125  12 3.357375  Z M 8.53285714285714 3.5  C 8.53285714285714 4.94725  7.37828571428572 6.125  5.96057142857143 6.125  C 4.54285714285714 6.125  3.39 4.94725  3.39 3.5  C 3.39 2.05275  4.54285714285714 0.875  5.96057142857143 0.875  C 7.37828571428572 0.875  8.53285714285714 2.05275  8.53285714285714 3.5  Z " fill-rule="nonzero" fill="#096dd9" stroke="none" transform="matrix(1 0 0 1 33 1158 )" />
  </g>
</svg>