<?xml version="1.0" encoding="utf-8"?>
<svg version="1.1" xmlns:xlink="http://www.w3.org/1999/xlink" width="12px" height="12px" viewBox="182 83  12 12" xmlns="http://www.w3.org/2000/svg">
  <path d="M 188 83  C 191.36 83  194 85.64  194 89  C 194 92.36  191.36 95  188 95  C 184.64 95  182 92.36  182 89  C 182 85.64  184.64 83  188 83  Z " fill-rule="nonzero" fill="#f0f0f0" stroke="none" />
  <path d="M 188 83.5  C 191.08 83.5  193.5 85.92  193.5 89  C 193.5 92.08  191.08 94.5  188 94.5  C 184.92 94.5  182.5 92.08  182.5 89  C 182.5 85.92  184.92 83.5  188 83.5  Z " stroke-width="1" stroke="#d7d7d7" fill="none" />
  <path d="M 188 92  C 186.32 92  185 90.68  185 89  C 185 87.32  186.32 86  188 86  C 189.68 86  191 87.32  191 89  C 191 90.68  189.68 92  188 92  " fill-rule="nonzero" fill="#d7d7d7" stroke="none" />
</svg>