<?xml version="1.0" encoding="utf-8"?>
<svg version="1.1" xmlns:xlink="http://www.w3.org/1999/xlink" width="12px" height="12px" xmlns="http://www.w3.org/2000/svg">
  <g transform="matrix(1 0 0 1 -1912 -890 )">
    <path d="M 5.97790482357998 3.86436310414079  L 9.08227711060968 0.759990817111042  C 9.22221322793726 0.620054699783483  9.38424452168496 0.513261347086134  9.5683709918528 0.439610759018996  C 9.75249746202063 0.365960170951865  9.93662393218857 0.3291348769183  10.1207504023563 0.329134876918293  C 10.3048768725242 0.3291348769183  10.489003342692 0.365960170951859  10.6731298128598 0.439610759018996  C 10.8572562830277 0.513261347086134  11.0192875767753 0.620054699783483  11.1592236941029 0.759990817111036  C 11.3065248702372 0.907291993245311  11.4151594876363 1.07116455169468  11.4851275462999 1.25160849245916  C 11.5550956049638 1.43205243322364  11.5900796342957 1.61433763868981  11.5900796342956 1.79846410885765  C 11.5900796342957 1.98259057902549  11.5532543402621 2.16671704919332  11.479603752195 2.35084351936116  C 11.4059531641279 2.534969989529  11.2991598114305 2.6970012832767  11.1592236941029 2.83693740060426  L 8.05485140707322 5.941309687634  L 11.1592236941029 9.04568197466375  C 11.3065248702372 9.19298315079803  11.4151594876362 9.3568557092474  11.4851275463 9.53729965001188  C 11.5550956049638 9.71774359077636  11.5900796342956 9.90002879624252  11.5900796342957 10.0841552664104  C 11.5900796342956 10.2682817365782  11.5532543402622 10.452408206746  11.479603752195 10.6365346769139  C 11.4059531641278 10.8206611470817  11.2991598114305 10.9826924408294  11.1592236941029 11.122628558157  C 11.0119225179686 11.2699297342912  10.8480499595193 11.3785643516903  10.6676060187548 11.448532410354  C 10.4871620779904 11.5185004690178  10.3048768725241 11.5534844983497  10.1207504023564 11.5534844983497  C 9.93662393218847 11.5534844983497  9.75433872672231 11.5185004690178  9.57389478595783 11.448532410354  C 9.39345084519335 11.3785643516903  9.22957828674397 11.2699297342912  9.08227711060968 11.122628558157  L 5.97790482357998 8.01825627112722  L 2.87353253655017 11.122628558157  C 2.72623136041599 11.2699297342912  2.5623588019666 11.3785643516903  2.38191486120212 11.448532410354  C 2.20147092043754 11.5185004690178  2.01918571497149 11.5534844983497  1.83505924480355 11.5534844983497  C 1.65093277463582 11.5534844983497  1.46864756916956 11.5185004690178  1.28820362840508 11.448532410354  C 1.1077596876407 11.3785643516903  0.943887129191318 11.2699297342912  0.796585953057029 11.122628558157  C 0.65664983572945 10.9826924408294  0.549856483032167 10.8206611470817  0.47620589496497 10.6365346769139  C 0.402555306897774 10.452408206746  0.365730012864333 10.2682817365782  0.365730012864228 10.0841552664104  C 0.365730012864333 9.90002879624252  0.400714042196097 9.71774359077636  0.470682100859939 9.53729965001188  C 0.540650159523676 9.3568557092474  0.649284776922741 9.19298315079803  0.796585953056924 9.04568197466375  L 3.90095824008673 5.941309687634  L 0.796585953057029 2.83693740060426  C 0.65664983572945 2.6970012832767  0.549856483032062 2.534969989529  0.47620589496497 2.35084351936116  C 0.402555306897879 2.16671704919332  0.365730012864228 1.98259057902549  0.365730012864333 1.79846410885764  C 0.365730012864228 1.61433763868981  0.400714042196201 1.43205243322364  0.470682100859834 1.25160849245917  C 0.540650159523676 1.07116455169469  0.649284776922741 0.907291993245311  0.796585953057029 0.759990817111036  C 1.08382324651879 0.472753523649207  1.42998101043444 0.329134876918293  1.83505924480365 0.329134876918293  C 2.24013747917287 0.3291348769183  2.58629524308841 0.472753523649214  2.87353253655028 0.759990817111036  L 5.97790482357998 3.86436310414079  Z " fill-rule="nonzero" fill="#7f7f7f" stroke="none" transform="matrix(1 0 0 1 1912 890 )" />
  </g>
</svg>