<?xml version="1.0" encoding="utf-8"?>
<svg version="1.1" xmlns:xlink="http://www.w3.org/1999/xlink" width="24px" height="24px" xmlns="http://www.w3.org/2000/svg">
  <g transform="matrix(1 0 0 1 -29 -47 )">
    <path d="M 24 12  C 24 18.627428578125  18.627428578125 24  12 24  C 5.372571421875 24  0 18.627428578125  0 12  C 0 5.372571421875  5.372571421875 0  12 0  C 18.627428578125 0  24 5.372571421875  24 12  Z M 22.2857142890625 11.9991428671875  C 22.2857142890625 6.3188571328125  17.6802857109375 1.713428578125  12 1.713428578125  C 6.3188571328125 1.713428578125  1.7142857109375 6.3188571328125  1.7142857109375 11.9991428671875  C 1.7142857109375 17.6802857109375  6.3188571328125 22.2848571328125  12 22.2848571328125  C 17.6802857109375 22.2848571328125  22.2857142890625 17.6802857109375  22.2857142890625 11.9991428671875  Z M 11.1428571328125 18.8562857109375  L 11.1428571328125 17.1428571328125  L 12.8571428671875 17.1428571328125  L 12.8571428671875 18.8562857109375  L 11.1428571328125 18.8562857109375  Z M 12.8571428671875 15  C 12.8571428671875 15.236571421875  12.6651428671875 15.428571421875  12.428571421875 15.428571421875  L 11.571428578125 15.428571421875  C 11.3348571328125 15.428571421875  11.1428571328125 15.236571421875  11.1428571328125 15  L 11.1428571328125 5.570571421875  C 11.1428571328125 5.334  11.3348571328125 5.142  11.571428578125 5.142  L 12.428571421875 5.142  C 12.6651428671875 5.142  12.8571428671875 5.334  12.8571428671875 5.570571421875  L 12.8571428671875 15  Z " fill-rule="nonzero" fill="#ff9901" stroke="none" transform="matrix(1 0 0 1 29 47 )" />
  </g>
</svg>