<?xml version="1.0" encoding="utf-8"?>
<svg version="1.1" xmlns:xlink="http://www.w3.org/1999/xlink" width="200px" height="383px" xmlns="http://www.w3.org/2000/svg">
  <g transform="matrix(1 0 0 1 -1967 -930 )">
    <path d="M 1968 934  A 3 3 0 0 1 1971 931 L 2163 931  A 3 3 0 0 1 2166 934 L 2166 1309  A 3 3 0 0 1 2163 1312 L 1971 1312  A 3 3 0 0 1 1968 1309 L 1968 934  Z " fill-rule="nonzero" fill="#ff3399" stroke="none" fill-opacity="0.0980392156862745" />
    <path d="M 1967.5 934  A 3.5 3.5 0 0 1 1971 930.5 L 2163 930.5  A 3.5 3.5 0 0 1 2166.5 934 L 2166.5 1309  A 3.5 3.5 0 0 1 2163 1312.5 L 1971 1312.5  A 3.5 3.5 0 0 1 1967.5 1309 L 1967.5 934  Z " stroke-width="1" stroke-dasharray="9,4" stroke="#ff3399" fill="none" stroke-dashoffset="0.5" />
  </g>
</svg>