<?xml version="1.0" encoding="utf-8"?>
<svg version="1.1" xmlns:xlink="http://www.w3.org/1999/xlink" width="10px" height="10px" xmlns="http://www.w3.org/2000/svg">
  <g transform="matrix(1 0 0 1 -180 0 )">
    <path d="M 185 1  C 187.24 1  189 2.76  189 5  C 189 7.24  187.24 9  185 9  C 182.76 9  181 7.24  181 5  C 181 2.76  182.76 1  185 1  Z " fill-rule="nonzero" fill="#1890ff" stroke="none" />
    <path d="M 185 1  C 187.24 1  189 2.76  189 5  C 189 7.24  187.24 9  185 9  C 182.76 9  181 7.24  181 5  C 181 2.76  182.76 1  185 1  Z " stroke-width="2" stroke="#ffffff" fill="none" />
  </g>
</svg>