<?xml version="1.0" encoding="utf-8"?>
<svg version="1.1" xmlns:xlink="http://www.w3.org/1999/xlink" width="10px" height="10px" xmlns="http://www.w3.org/2000/svg">
  <defs>
    <mask fill="white" id="clip104">
      <path d="M 9.83292708333333 0.615625  C 9.6675345907388 0.235842061084182  9.26938140436309 -0.00892513350130032  8.83192708333333 0.00025390625  L 1.14117708333333 0.00025390625  C 0.555874387660322 0.00126369835832715  0.0819632403600566 0.446373765364387  0.0819632403600566 0.995095971699169  C 0.0819632403600566 1.25849918253972  0.193388012576738 1.51115159401406  0.391802083333333 1.697646484375  L 3.90897916666667 4.861669921875  L 3.90897916666667 8.010302734375  C 3.90867241560475 8.12340075882417  3.95582278425535 8.23207493168856  4.04025 8.312861328125  L 5.64294791666667 9.8512890625  C 5.72996118116045 9.93674884866345  5.85059554090316 9.98495321012915  5.97661458333333 9.984619140625  C 6.03648370449522 9.9845397932844  6.09582367081505 9.97410811218129  6.15165625 9.95384765625  C 6.3265326790668 9.8887422037282  6.4413951787165 9.7302581109163  6.44155208333333 9.553857421875  L 6.44155208333333 4.841162109375  L 9.62507291666667 1.697646484375  C 9.91995869739631 1.40888112711901  10.0018295561275 0.98268410142466  9.83292708333333 0.615615234375001  Z " fill-rule="evenodd" />
    </mask>
  </defs>
  <g transform="matrix(1 0 0 1 -93 -351 )">
    <path d="M 9.83292708333333 0.615625  C 9.6675345907388 0.235842061084182  9.26938140436309 -0.00892513350130032  8.83192708333333 0.00025390625  L 1.14117708333333 0.00025390625  C 0.555874387660322 0.00126369835832715  0.0819632403600566 0.446373765364387  0.0819632403600566 0.995095971699169  C 0.0819632403600566 1.25849918253972  0.193388012576738 1.51115159401406  0.391802083333333 1.697646484375  L 3.90897916666667 4.861669921875  L 3.90897916666667 8.010302734375  C 3.90867241560475 8.12340075882417  3.95582278425535 8.23207493168856  4.04025 8.312861328125  L 5.64294791666667 9.8512890625  C 5.72996118116045 9.93674884866345  5.85059554090316 9.98495321012915  5.97661458333333 9.984619140625  C 6.03648370449522 9.9845397932844  6.09582367081505 9.97410811218129  6.15165625 9.95384765625  C 6.3265326790668 9.8887422037282  6.4413951787165 9.7302581109163  6.44155208333333 9.553857421875  L 6.44155208333333 4.841162109375  L 9.62507291666667 1.697646484375  C 9.91995869739631 1.40888112711901  10.0018295561275 0.98268410142466  9.83292708333333 0.615615234375001  Z " fill-rule="nonzero" fill="#f2f2f2" stroke="none" transform="matrix(1 0 0 1 93 351 )" />
    <path d="M 9.83292708333333 0.615625  C 9.6675345907388 0.235842061084182  9.26938140436309 -0.00892513350130032  8.83192708333333 0.00025390625  L 1.14117708333333 0.00025390625  C 0.555874387660322 0.00126369835832715  0.0819632403600566 0.446373765364387  0.0819632403600566 0.995095971699169  C 0.0819632403600566 1.25849918253972  0.193388012576738 1.51115159401406  0.391802083333333 1.697646484375  L 3.90897916666667 4.861669921875  L 3.90897916666667 8.010302734375  C 3.90867241560475 8.12340075882417  3.95582278425535 8.23207493168856  4.04025 8.312861328125  L 5.64294791666667 9.8512890625  C 5.72996118116045 9.93674884866345  5.85059554090316 9.98495321012915  5.97661458333333 9.984619140625  C 6.03648370449522 9.9845397932844  6.09582367081505 9.97410811218129  6.15165625 9.95384765625  C 6.3265326790668 9.8887422037282  6.4413951787165 9.7302581109163  6.44155208333333 9.553857421875  L 6.44155208333333 4.841162109375  L 9.62507291666667 1.697646484375  C 9.91995869739631 1.40888112711901  10.0018295561275 0.98268410142466  9.83292708333333 0.615615234375001  Z " stroke-width="2" stroke="#bfbfbf" fill="none" transform="matrix(1 0 0 1 93 351 )" mask="url(#clip104)" />
  </g>
</svg>