<?xml version="1.0" encoding="utf-8"?>
<svg version="1.1" xmlns:xlink="http://www.w3.org/1999/xlink" width="10px" height="10px" xmlns="http://www.w3.org/2000/svg">
  <defs>
    <mask fill="white" id="clip117">
      <path d="M 9.86486454545454 9.86550451704545  C 9.99979705965909 9.73057200284091  9.99981160511364 9.51170119318182  9.86486454545454 9.37676867897727  L 7.62487134943182 7.1367609375  C 8.26350634943182 6.386770625  8.64914832386363 5.41470963068182  8.64914832386363 4.35244151988636  C 8.64914832386363 1.97908666193182  6.72517095170455 0.0550947301136364  4.35181607954545 0.0550947301136364  C 1.97846120738636 0.0550947301136364  0.054469289772727 1.97908664772727  0.054469289772727 4.35244151988636  C 0.054469289772727 6.72579639204545  1.97846120738636 8.64977376420455  4.35181607954545 8.64977376420455  C 5.41406964488636 8.64977376420455  6.38613063920454 8.26413177556818  7.13615004261364 7.62549678977273  L 9.37644869318182 9.86550451704545  C 9.51138120738636 10.00043703125  9.72993203125 10.00043703125  9.86486454545454 9.86550451704545  Z M 7.98801245738636 4.35244151988636  C 7.98801245738636 6.3603571875  6.36005174715909 7.98865242897727  4.35180154829545 7.98865242897727  C 2.34355134943182 7.98865242897727  0.715590639204545 6.3603571875  0.715590639204545 4.35244151988636  C 0.715590639204545 2.34387133522727  2.34355134943182 0.716230610795454  4.35180154829545 0.716230610795454  C 6.36003720170455 0.716230610795454  7.98801245738636 2.34387133522727  7.98801245738636 4.35244151988636  Z " fill-rule="evenodd" />
    </mask>
  </defs>
  <g transform="matrix(1 0 0 1 -93 -396 )">
    <path d="M 9.86486454545454 9.86550451704545  C 9.99979705965909 9.73057200284091  9.99981160511364 9.51170119318182  9.86486454545454 9.37676867897727  L 7.62487134943182 7.1367609375  C 8.26350634943182 6.386770625  8.64914832386363 5.41470963068182  8.64914832386363 4.35244151988636  C 8.64914832386363 1.97908666193182  6.72517095170455 0.0550947301136364  4.35181607954545 0.0550947301136364  C 1.97846120738636 0.0550947301136364  0.054469289772727 1.97908664772727  0.054469289772727 4.35244151988636  C 0.054469289772727 6.72579639204545  1.97846120738636 8.64977376420455  4.35181607954545 8.64977376420455  C 5.41406964488636 8.64977376420455  6.38613063920454 8.26413177556818  7.13615004261364 7.62549678977273  L 9.37644869318182 9.86550451704545  C 9.51138120738636 10.00043703125  9.72993203125 10.00043703125  9.86486454545454 9.86550451704545  Z M 7.98801245738636 4.35244151988636  C 7.98801245738636 6.3603571875  6.36005174715909 7.98865242897727  4.35180154829545 7.98865242897727  C 2.34355134943182 7.98865242897727  0.715590639204545 6.3603571875  0.715590639204545 4.35244151988636  C 0.715590639204545 2.34387133522727  2.34355134943182 0.716230610795454  4.35180154829545 0.716230610795454  C 6.36003720170455 0.716230610795454  7.98801245738636 2.34387133522727  7.98801245738636 4.35244151988636  Z " fill-rule="nonzero" fill="#f2f2f2" stroke="none" transform="matrix(1 0 0 1 93 396 )" />
    <path d="M 9.86486454545454 9.86550451704545  C 9.99979705965909 9.73057200284091  9.99981160511364 9.51170119318182  9.86486454545454 9.37676867897727  L 7.62487134943182 7.1367609375  C 8.26350634943182 6.386770625  8.64914832386363 5.41470963068182  8.64914832386363 4.35244151988636  C 8.64914832386363 1.97908666193182  6.72517095170455 0.0550947301136364  4.35181607954545 0.0550947301136364  C 1.97846120738636 0.0550947301136364  0.054469289772727 1.97908664772727  0.054469289772727 4.35244151988636  C 0.054469289772727 6.72579639204545  1.97846120738636 8.64977376420455  4.35181607954545 8.64977376420455  C 5.41406964488636 8.64977376420455  6.38613063920454 8.26413177556818  7.13615004261364 7.62549678977273  L 9.37644869318182 9.86550451704545  C 9.51138120738636 10.00043703125  9.72993203125 10.00043703125  9.86486454545454 9.86550451704545  Z " stroke-width="2" stroke-dasharray="3,1" stroke="#bfbfbf" fill="none" transform="matrix(1 0 0 1 93 396 )" mask="url(#clip117)" />
    <path d="M 7.98801245738636 4.35244151988636  C 7.98801245738636 6.3603571875  6.36005174715909 7.98865242897727  4.35180154829545 7.98865242897727  C 2.34355134943182 7.98865242897727  0.715590639204545 6.3603571875  0.715590639204545 4.35244151988636  C 0.715590639204545 2.34387133522727  2.34355134943182 0.716230610795454  4.35180154829545 0.716230610795454  C 6.36003720170455 0.716230610795454  7.98801245738636 2.34387133522727  7.98801245738636 4.35244151988636  Z " stroke-width="2" stroke-dasharray="3,1" stroke="#bfbfbf" fill="none" transform="matrix(1 0 0 1 93 396 )" mask="url(#clip117)" />
  </g>
</svg>