<?xml version="1.0" encoding="utf-8"?>
<svg version="1.1" xmlns:xlink="http://www.w3.org/1999/xlink" width="13px" height="16px" xmlns="http://www.w3.org/2000/svg">
  <g transform="matrix(1 0 0 1 -618 -748 )">
    <path d="M 11.8857142857143 15  L 11.8857142857143 13.1596899302326  L 9.70666665892857 10.9767441860465  L 3.16952380178572 10.9767441860465  L 0.990476198214286 13.1596899302326  L 0.990476198214286 15  L 11.8857142857143 15  Z M 10.0038095160714 9.98449611627907  L 12.8761904839286 12.7627906976744  L 12.8761904839286 16  L 0 16  L 0 12.7627906976744  L 2.77333334107143 9.98449611627907  L 10.0038095160714 9.98449611627907  Z M 6.43809523035714 0.0620155116279067  C 8.91428569107143 0.0620155116279067  10.8952380875 2.04651162790698  10.8952380875 4.52713179069767  C 10.8952380875 7.00775195348837  8.91428571428571 8.99224806976744  6.43809523035714 8.99224806976744  C 3.96190474642857 8.99224806976744  1.98095237321429 7.00775193023256  1.98095237321429 4.52713179069768  C 1.98095237321429 2.04651165116279  3.96190476964286 0.0620155116279067  6.43809523035714 0.0620155116279067  Z M 6.43809523035714 8  C 8.31999997678572 8  9.9047619125 6.41240309302326  9.9047619125 4.52713179069767  C 9.9047619125 2.64186046511628  8.32 1.05426355813954  6.43809523035714 1.05426355813954  C 4.55619046071429 1.05426355813954  2.97142857142857 2.64186046511628  2.97142857142857 4.52713179069768  C 2.97142857142857 6.41240311627907  4.55619048392857 8  6.43809523035714 8  Z " fill-rule="nonzero" fill="#444444" stroke="none" transform="matrix(1 0 0 1 618 748 )" />
  </g>
</svg>