<?xml version="1.0" encoding="utf-8"?>
<svg version="1.1" xmlns:xlink="http://www.w3.org/1999/xlink" width="14px" height="16px" xmlns="http://www.w3.org/2000/svg">
  <g transform="matrix(1 0 0 1 -883 -705 )">
    <path d="M 0.120842105263158 3.026  L 0.120842105263158 13.995  L 2.08968421052632 13.995  L 2.08968421052632 16  L 13.8791578947368 16  L 13.8791578947368 1.979  L 11.9260350877193 1.979  L 11.9260350877193 0.005  L 3.08785964912281 0.005  L 0.120842105263158 3.026  Z M 3.07214035087719 1.402  L 3.07214035087719 3.011  L 1.49136842105263 3.011  L 3.07214035087719 1.402  Z M 12.9153684210526 15.018  L 3.07214035087719 15.018  L 3.07214035087719 5.995  L 6.00378947368421 5.995  L 6.00378947368421 2.979  L 13 2.979  L 13 15.023  L 12.916350877193 15.018  Z M 5.00856140350877 3.37  L 5.00856140350877 5.011  L 3.42484210526316 5.011  L 5.00856140350877 3.37  Z M 2.0759298245614 12.995  L 1.09150877192982 12.995  L 1.09150877192982 4.011  L 4.03887719298246 4.011  L 4.03887719298246 0.995  L 10.9160701754386 0.995  L 10.9317894736842 2.011  L 5.02133333333333 2.011  L 2.0759298245614 5.026  L 2.0759298245614 12.995  Z " fill-rule="nonzero" fill="#096dd9" stroke="none" transform="matrix(1 0 0 1 883 705 )" />
  </g>
</svg>