<?xml version="1.0" encoding="utf-8"?>
<svg version="1.1" xmlns:xlink="http://www.w3.org/1999/xlink" width="12px" height="12px" xmlns="http://www.w3.org/2000/svg">
  <g>
    <path d="M 11.9399862857143 5.9911744  C 11.9399991932773 2.7234368  9.26866285714286 0.0744256  5.97346527731092 0.0744256  C 2.67829351260504 0.0744256  0.00697008403361325 2.723424  0.00697008403361325 5.9911744  C 0.00697008403361325 9.2589504  2.67829351260504 11.9079744  5.97346527731092 11.9079744  C 9.26866285714286 11.9079744  11.9399862857143 9.2589376  11.9399862857143 5.9911744  Z M 8.7768588907563 8.4549952  C 8.8674828907563 8.545376  8.86696658823529 8.6919872  8.77583919327731 8.782368  C 8.73027549579832 8.8270528  8.6710297815126 8.8496448  8.61129357983193 8.8496448  C 8.55155737815126 8.8496448  8.49180826890756 8.8270528  8.44572826890756 8.7813568  L 5.97343946218487 6.3193152  L 3.50666218487395 8.7763392  C 3.46109848739496 8.8220352  3.40084598319328 8.8446272  3.34109687394958 8.8446272  C 3.28134776470588 8.8446272  3.22211495798319 8.8220352  3.1765512605042 8.7773504  C 3.08541095798319 8.6869696  3.08490756302521 8.5403584  3.17554447058824 8.4499904  L 5.64398682352941 5.991264  L 3.16995549579832 3.5274688  C 3.07933149579832 3.437088  3.0798348907563 3.2904768  3.17096228571429 3.2001088  C 3.26210258823529 3.1107392  3.40892611764706 3.109728  3.50107321008403 3.2011072  L 5.97336201680672 5.6631488  L 8.44013929411765 3.2061376  C 8.53127959663866 3.1147584  8.67912282352941 3.1157568  8.7702502184874 3.2051392  C 8.8613905210084 3.29552  8.86189391596639 3.4421312  8.77125700840336 3.5324992  L 6.30282756302521 5.9912  L 8.7768588907563 8.4549952  Z " fill-rule="nonzero" fill="#aaaaaa" stroke="none" />
  </g>
</svg>