<?xml version="1.0" encoding="utf-8"?>
<svg version="1.1" xmlns:xlink="http://www.w3.org/1999/xlink" width="14px" height="14px" xmlns="http://www.w3.org/2000/svg">
  <g transform="matrix(1 0 0 1 -1193 -197 )">
    <path d="M 11.8708333333333 11.9603982300885  C 14.5541666666667 9.25796460176991  14.5541666666667 4.85818584070796  11.8708333333333 2.15265486725664  C 10.5690789473684 0.844026548672566  8.8405701754386 0.122345132743363  7.0030701754386 0.122345132743363  C 5.1655701754386 0.122345132743363  3.43706140350877 0.844026548672566  2.13684210526316 2.15265486725664  C 0.836622807017545 3.46283185840708  0.119736842105264 5.20353982300885  0.119736842105264 7.05730088495575  C 0.119736842105264 8.90951327433628  0.835087719298246 10.6517699115044  2.13530701754386 11.9619469026549  C 3.43552631578947 13.2705752212389  5.1625 13.9922566371681  7.0015350877193 13.9922566371681  C 8.8405701754386 13.9922566371681  10.5690789473684 13.2705752212389  11.8708333333333 11.9603982300885  Z M 9.98114035087719 8.67566371681416  C 10.309649122807 8.86769911504425  10.4385964912281 9.26261061946903  10.2697368421053 9.55685840707965  C 10.1837719298246 9.7070796460177  10.0563596491228 9.81393805309735  9.90899122807018 9.85730088495575  C 9.85833333333333 9.87278761061947  9.80614035087719 9.87898230088496  9.75394736842105 9.87898230088496  C 9.64956140350877 9.87898230088496  9.54517543859649 9.84955752212389  9.4469298245614 9.79380530973451  L 7.06754385964912 8.34269911504425  C 6.98771929824561 8.29778761061947  6.88947368421053 8.24358407079646  6.83728070175439 8.17389380530974  C 6.53486842105263 7.99734513274336  6.3828947368421 7.8146017699115  6.3828947368421 7.63030973451327  L 6.3828947368421 3.62699115044248  C 6.3828947368421 3.27079646017699  6.66995614035088 2.98274336283186  7.02302631578947 2.98274336283186  C 7.37609649122807 2.98274336283186  7.66315789473684 3.27234513274336  7.66315789473684 3.62699115044248  L 7.66315789473684 7.32522123893805  L 9.98114035087719 8.67566371681416  Z " fill-rule="nonzero" fill="#c0c0c0" stroke="none" transform="matrix(1 0 0 1 1193 197 )" />
  </g>
</svg>