<?xml version="1.0" encoding="utf-8"?>
<svg version="1.1" xmlns:xlink="http://www.w3.org/1999/xlink" width="10px" height="10px" xmlns="http://www.w3.org/2000/svg">
  <g transform="matrix(1 0 0 1 -905 -197 )">
    <path d="M 9.98162661504425 5.04036511061947  C 9.98162661504425 7.77547920353982  7.76440280973451 9.99280487831858  5.0292660840708 9.99280487831858  C 2.29412935840708 9.99280487831858  0.0769281969026545 7.77547920353982  0.0769281969026545 5.04036511061947  C 0.0769281969026545 2.30533026548673  2.29414067477876 0.0880158960176991  5.0292660840708 0.0880158960176991  C 7.76440280973451 0.0880158960176991  9.98162661504425 2.30533025442478  9.98162661504425 5.04036511061947  Z M 8.05523006637168 3.61751671460177  C 8.14317326327434 3.52968669247788  8.14317326327434 3.38701245575221  8.05521873893805 3.29908056415929  L 7.89606293141593 3.13992475663717  C 7.80813103982301 3.05199286504425  7.66568319690266 3.05199286504425  7.57775131637168 3.13992475663717  L 4.27655872787611 6.37263280973451  L 3.06465402654867 5.10432174778761  C 3.02485375 5.06453279867257  2.92131192477876 5.10365388274336  2.83336871681416 5.19158576327434  L 2.67421290929204 5.35076421460177  C 2.58628101769912 5.43869610619469  2.54738632743363 5.54223793141593  2.58716396017699 5.58191369469027  L 4.20424810840708 7.27405915929203  C 4.24381066371681 7.31385943584071  4.3473525 7.27460251106195  4.4352957079646 7.18679514380531  L 4.5942364380531 7.0276280199115  C 4.62236603982301 6.99971349557522  4.64303591814159 6.97080283185841  4.66017403761062 6.94233363938053  L 8.05523006637168 3.61751671460177  Z " fill-rule="nonzero" fill="#18be6b" stroke="none" transform="matrix(1 0 0 1 905 197 )" />
  </g>
</svg>