<?xml version="1.0" encoding="utf-8"?>
<svg version="1.1" xmlns:xlink="http://www.w3.org/1999/xlink" width="14px" height="14px" xmlns="http://www.w3.org/2000/svg">
  <g transform="matrix(1 0 0 1 -1193 -156 )">
    <path d="M 13.9742772610619 7.05651115486726  C 13.9742772610619 10.8856708849558  10.8701639336283 13.989926829646  7.04097251769911 13.989926829646  C 3.21178110176991 13.989926829646  0.107699475663716 10.8856708849558  0.107699475663716 7.05651115486726  C 0.107699475663716 3.22746237168142  3.21179694469027 0.123222254424779  7.04097251769911 0.123222254424779  C 10.8701639336283 0.123222254424779  13.9742772610619 3.22746235619469  13.9742772610619 7.05651115486726  Z M 11.2773220929204 5.06452340044248  C 11.4004425685841 4.94156136946903  11.4004425685841 4.7418174380531  11.2773062345133 4.61871278982301  L 11.0544881039823 4.39589465929204  C 10.9313834557522 4.27279001106195  10.7319564756637 4.27279001106195  10.6088518429204 4.39589465929204  L 5.98718221902655 8.92168593362832  L 4.29051563716814 7.14605044690266  C 4.23479525 7.09034591814159  4.08983669469027 7.14511543584071  3.96671620353982 7.26822006858407  L 3.74389807300885 7.49106990044248  C 3.62079342477876 7.61417454867257  3.56634085840708 7.7591331039823  3.62202954424779 7.81467917256637  L 5.88594735176991 10.1836828230088  C 5.94133492920354 10.239403210177  6.0862935 10.1844435154867  6.20941399115044 10.0615132013274  L 6.43193101327434 9.8386792278761  C 6.47131245575221 9.79959889380531  6.50025028539823 9.75912396460177  6.52424365265487 9.71926709513274  L 11.2773220929204 5.06452340044248  Z " fill-rule="nonzero" fill="#52c41a" stroke="none" transform="matrix(1 0 0 1 1193 156 )" />
  </g>
</svg>