<?xml version="1.0" encoding="utf-8"?>
<svg version="1.1" xmlns:xlink="http://www.w3.org/1999/xlink" width="18px" height="18px" xmlns="http://www.w3.org/2000/svg">
  <g transform="matrix(1 0 0 1 -16 -13 )">
    <path d="M 9.93566599804688 0.60977872265625  L 11.9055101132813 4.78469527734375  C 12.0584858730469 5.10667549804687  12.3522049511719 5.33051504296875  12.6933071484375 5.3822568515625  L 17.1007805917969 6.05152578515625  C 17.9566293515625 6.1817238984375  18.2998405898438 7.282643203125  17.6796419941406 7.9140900234375  L 14.4897880957031 11.1644030917969  C 14.2437333339844 11.4146759355469  14.1320947851562 11.7763061308594  14.1900230917969 12.1299219667969  L 14.942528859375 16.7193353320313  C 15.0891774960937 17.6103347695312  14.1931163671875 18.2915549472656  13.4271127441406 17.8708716210938  L 9.484753078125 15.7043243144531  C 9.18253431282815 15.5369089289875  8.81540706021873 15.5369089289875  8.51318829492187 15.7043243144531  L 4.57082862890625 17.8710122109375  C 3.80482500585937 18.2914143398438  2.90876387695312 17.6103347695312  3.05555312109375 16.7194759394531  L 3.80805887109375 12.1299219667969  C 3.866409 11.7763061308594  3.75364562695312 11.414535328125  3.50773145507812 11.1644030917969  L 0.319002380859375 7.9140900234375  C -0.301055607421875 7.282643203125  0.04089019921875 6.1817238984375  0.89772317578125 6.05152578515625  L 5.30463422460937 5.3822568515625  C 5.64475220507812 5.33051504296875  5.93875249804687 5.106675515625  6.09130643554687 4.78469527734375  L 8.06199416015625 0.60977872265625  C 8.445558375 -0.201498978515625  9.553086 -0.201498978515625  9.935525390625 0.60977872265625  Z " fill-rule="nonzero" fill="#d7d7d7" stroke="none" transform="matrix(1 0 0 1 16 13 )" />
  </g>
</svg>