<?xml version="1.0" encoding="utf-8"?>
<svg version="1.1" xmlns:xlink="http://www.w3.org/1999/xlink" width="16px" height="10px" xmlns="http://www.w3.org/2000/svg">
  <g transform="matrix(1 0 0 1 -276 -47 )">
    <path d="M 14.9808403361345 0.174871794871795  C 15.082103613492 0.0757554844315336  15.22106675126 0.0198522648697705  15.3661848739496 0.0198522648697705  C 15.6632975349011 0.0198522648697705  15.904154935666 0.249515972329897  15.904154935666 0.532820512820513  C 15.904154935666 0.666544961839827  15.8493902133279 0.794983257405728  15.7515294117647 0.890769230769231  L 6.70924369747899 9.73692307692308  C 6.51098050786326 9.93078447283488  6.18881445201793 9.9442578761207  5.97351260504202 9.76769230769231  L 0.266756302521008 5.09692307692308  C 0.144114088866487 4.99949055147114  0.0732012535899206 4.85514354543172  0.0732012535899206 4.70293104842708  C 0.0732012535899206 4.4197080997959  0.313989287294368 4.19011053560657  0.611016379640341 4.19011053560657  C 0.742370185105055 4.19011053560657  0.869182775792872 4.23594772475456  0.967529411764706 4.31897435897436  L 6.29136134453781 8.67692307692308  L 14.9808403361345 0.174358974358974  Z " fill-rule="nonzero" fill="#000000" stroke="none" transform="matrix(1 0 0 1 276 47 )" />
  </g>
</svg>