<?xml version="1.0" encoding="utf-8"?>
<svg version="1.1" xmlns:xlink="http://www.w3.org/1999/xlink" width="20px" height="4px" xmlns="http://www.w3.org/2000/svg">
  <defs>
    <mask fill="white" id="clip79">
      <path d="M 1.86440677966102 0.0606060681818173  C 2.86288767940959 0.0606060681818173  3.67231637711864 0.928902307542436  3.67231637711864 2  C 3.67231637711864 3.07109769245756  2.86288767940959 3.93939393181818  1.86440677966102 3.93939393181818  C 0.865925879912441 3.93939393181818  0.0564971822033901 3.07109769245756  0.0564971822033901 2  C 0.0564971822033901 0.928902307542436  0.865925879912441 0.0606060681818173  1.86440677966102 0.0606060681818173  Z M 11.8079095974576 2  C 11.8079095974576 0.928902307542436  10.9984808997486 0.0606060681818173  10 0.0606060681818173  C 9.00151910025142 0.0606060681818173  8.19209040254237 0.928902307542436  8.19209040254237 2  C 8.19209040254237 3.07109769245756  9.00151910025142 3.93939393181818  10 3.93939393181818  C 10.9984808997486 3.93939393181818  11.8079095974576 3.07109769245756  11.8079095974576 2  Z M 19.9435028177966 2  C 19.9435028177966 0.928902307542436  19.1340741200876 0.0606060681818173  18.135593220339 0.0606060681818173  C 17.1371123205904 0.0606060681818173  16.3276836228814 0.928902307542436  16.3276836228814 2  C 16.3276836228814 3.07109769245756  17.1371123205904 3.93939393181818  18.135593220339 3.93939393181818  C 19.1340741200876 3.93939393181818  19.9435028177966 3.07109769245756  19.9435028177966 2  Z " fill-rule="evenodd" />
    </mask>
  </defs>
  <g transform="matrix(1 0 0 1 -696 -331 )">
    <path d="M 1.86440677966102 0.0606060681818173  C 2.86288767940959 0.0606060681818173  3.67231637711864 0.928902307542436  3.67231637711864 2  C 3.67231637711864 3.07109769245756  2.86288767940959 3.93939393181818  1.86440677966102 3.93939393181818  C 0.865925879912441 3.93939393181818  0.0564971822033901 3.07109769245756  0.0564971822033901 2  C 0.0564971822033901 0.928902307542436  0.865925879912441 0.0606060681818173  1.86440677966102 0.0606060681818173  Z M 11.8079095974576 2  C 11.8079095974576 0.928902307542436  10.9984808997486 0.0606060681818173  10 0.0606060681818173  C 9.00151910025142 0.0606060681818173  8.19209040254237 0.928902307542436  8.19209040254237 2  C 8.19209040254237 3.07109769245756  9.00151910025142 3.93939393181818  10 3.93939393181818  C 10.9984808997486 3.93939393181818  11.8079095974576 3.07109769245756  11.8079095974576 2  Z M 19.9435028177966 2  C 19.9435028177966 0.928902307542436  19.1340741200876 0.0606060681818173  18.135593220339 0.0606060681818173  C 17.1371123205904 0.0606060681818173  16.3276836228814 0.928902307542436  16.3276836228814 2  C 16.3276836228814 3.07109769245756  17.1371123205904 3.93939393181818  18.135593220339 3.93939393181818  C 19.1340741200876 3.93939393181818  19.9435028177966 3.07109769245756  19.9435028177966 2  Z " fill-rule="nonzero" fill="#f2f2f2" stroke="none" transform="matrix(1 0 0 1 696 331 )" />
    <path d="M 1.86440677966102 0.0606060681818173  C 2.86288767940959 0.0606060681818173  3.67231637711864 0.928902307542436  3.67231637711864 2  C 3.67231637711864 3.07109769245756  2.86288767940959 3.93939393181818  1.86440677966102 3.93939393181818  C 0.865925879912441 3.93939393181818  0.0564971822033901 3.07109769245756  0.0564971822033901 2  C 0.0564971822033901 0.928902307542436  0.865925879912441 0.0606060681818173  1.86440677966102 0.0606060681818173  Z " stroke-width="2" stroke="#bfbfbf" fill="none" transform="matrix(1 0 0 1 696 331 )" mask="url(#clip79)" />
    <path d="M 11.8079095974576 2  C 11.8079095974576 0.928902307542436  10.9984808997486 0.0606060681818173  10 0.0606060681818173  C 9.00151910025142 0.0606060681818173  8.19209040254237 0.928902307542436  8.19209040254237 2  C 8.19209040254237 3.07109769245756  9.00151910025142 3.93939393181818  10 3.93939393181818  C 10.9984808997486 3.93939393181818  11.8079095974576 3.07109769245756  11.8079095974576 2  Z " stroke-width="2" stroke="#bfbfbf" fill="none" transform="matrix(1 0 0 1 696 331 )" mask="url(#clip79)" />
    <path d="M 19.9435028177966 2  C 19.9435028177966 0.928902307542436  19.1340741200876 0.0606060681818173  18.135593220339 0.0606060681818173  C 17.1371123205904 0.0606060681818173  16.3276836228814 0.928902307542436  16.3276836228814 2  C 16.3276836228814 3.07109769245756  17.1371123205904 3.93939393181818  18.135593220339 3.93939393181818  C 19.1340741200876 3.93939393181818  19.9435028177966 3.07109769245756  19.9435028177966 2  Z " stroke-width="2" stroke="#bfbfbf" fill="none" transform="matrix(1 0 0 1 696 331 )" mask="url(#clip79)" />
  </g>
</svg>