<?xml version="1.0" encoding="utf-8"?>
<svg version="1.1" xmlns:xlink="http://www.w3.org/1999/xlink" width="19px" height="20px" xmlns="http://www.w3.org/2000/svg">
  <g transform="matrix(1 0 0 1 -600 -321 )">
    <path d="M 0.069597078296703 9.97849462365591  L 9.86886446016483 0  L 16.2161172074176 6.53763440860215  L 6.5282051195055 16.5161290322581  L 0.069597078296703 16.5161290322581  L 0.069597078296703 9.97849462365591  Z M 9.86886446016483 1.72043010752688  L 1.18315017445055 10.4372759946237  L 1.18315017445055 15.2544802956989  L 5.86007325137363 15.2544802956989  L 14.5457875370879 6.53763440860215  L 9.86886446016483 1.72043010752688  Z M 0.069597078296703 19.9569892473118  L 0.0695970782967038 18.8100358333333  L 3.41025641895604 18.8100358333333  L 3.41025641895604 19.9569892473118  L 0.069597078296703 19.9569892473118  Z M 4.52380951510989 19.9569892473118  L 4.52380951510989 18.8100358333333  L 10.0915751002747 18.8100358333333  L 10.0915751002747 19.9569892473118  L 4.52380951510989 19.9569892473118  Z M 11.2051281964286 19.9569892473118  L 11.2051281964286 18.8100358333333  L 19 18.8100358333333  L 19 19.9569892473118  L 11.2051281964286 19.9569892473118  Z " fill-rule="nonzero" fill="#aaaaaa" stroke="none" transform="matrix(1 0 0 1 600 321 )" />
  </g>
</svg>