<?xml version="1.0" encoding="utf-8"?>
<svg version="1.1" xmlns:xlink="http://www.w3.org/1999/xlink" width="24px" height="24px" xmlns="http://www.w3.org/2000/svg">
  <g transform="matrix(1 0 0 1 -1 0 )">
    <path d="M 15.347675 0.824625  C 15.396925 0.48  15.10155 0.184625  14.756925 0.184625  L 9.243075 0.184625  C 8.89845 0.184625  8.652325 0.48  8.652325 0.824625  L 8.652325 2.055375  C 8.652325 2.4  8.9477 2.695375  9.243075 2.695375  L 14.756925 2.695375  C 15.10155 2.695375  15.347675 2.4  15.347675 2.055375  L 15.347675 0.824625  Z M 23.815375 0.824625  C 23.815375 0.48  23.52 0.184625  23.175375 0.184625  L 17.66155 0.184625  C 17.316925 0.184625  17.02155 0.48  17.02155 0.824625  L 17.02155 2.055375  C 17.02155 2.4  17.316925 2.695375  17.66155 2.695375  L 23.175375 2.695375  C 23.52 2.64615  23.815375 2.4  23.815375 2.055375  L 23.815375 0.824625  Z M 23.815375 4.96  C 23.815375 4.615375  23.52 4.32  23.175375 4.32  L 7.56925 4.32  C 7.22465 4.32  6.92925 4.024625  6.92925 3.68  L 6.92925 0.824625  C 6.92925 0.48  6.633875 0.184625  6.28925 0.184625  L 0.824625 0.184625  C 0.48 0.184625  0.184625 0.48  0.184625 0.824625  L 0.184625 23.224625  C 0.184625 23.52  0.48 23.815375  0.824625 23.815375  L 23.175375 23.815375  C 23.52 23.815375  23.815375 23.52  23.815375 23.175375  L 23.815375 4.96  Z " fill-rule="nonzero" fill="#7f7f7f" stroke="none" transform="matrix(1 0 0 1 1 0 )" />
  </g>
</svg>