<?xml version="1.0" encoding="utf-8"?>
<svg version="1.1" xmlns:xlink="http://www.w3.org/1999/xlink" width="66px" height="64px" xmlns="http://www.w3.org/2000/svg">
  <g transform="matrix(1 0 0 1 -158 -88 )">
    <path d="M 56.6755813953488 26.9568  C 56.2790697674419 26.2464  55.5308139534884 25.8048  54.7186046511628 26  L 10.7761627906977 26  C 9.96395348837209 25.8048  9.2156976744186 26.2464  8.81918604651163 26.9568  L 0.281395348837209 42.2848  C 0.0959302325581395 42.6176  0 42.9952  0 43.3792  L 0 61.7536  C 0 62.9952  1.00406976744186 64  2.24476744186047 64  L 63.25 64  C 64.4906976744186 64  65.4947674418605 62.9952  65 61.7536  L 65 43.3792  C 65.4947674418605 42.9952  65.3988372093023 42.624  65.2133720930233 42.2848  L 56.6755813953488 26.9568  Z M 57.8651162790698 43  L 43.0662790697674 43  C 42.0110465116279 42.9824  41.096511627907 43.7184  40.8726744186047 44.7552  C 40.0604651162791 48.4992  36.728488372093 51.3024  32.7377906976744 51.3024  C 28.7470930232558 51.3024  25.4151162790698 48.4992  24.6029069767442 44.7552  C 24.3790697674419 43.7248  23.4645348837209 42.9824  22.4093023255814 43  L 7.61046511627907 43  C 5.92209302325581 42.9824  4.84127906976744 41.1904  5.62151162790698 39.6928  L 10.846511627907 29.7216  C 11.2366279069767 28.9792  11.9976744186047 28.5184  12.8354651162791 29  L 52.6401162790698 29  C 53.471511627907 28.5184  54.2389534883721 28.9792  54.6290697674419 29.7216  L 59.8540697674419 39.6928  C 60.6343023255814 41.1904  59.553488372093 42.9824  57.8651162790698 43  Z M 51.6104651162791 14.9312  C 52.678488372093 14.3104  53.043023255814 12.9472  52.4354651162791 11.872  C 52.371511627907 11.7568  52.3011627906977 11.6352  52.2308139534884 11.52  C 51.6040697674419 10.4576  50.2418604651163 10.0992  49.1738372093023 10.7136  L 41.4738372093023 15.168  C 40.3866279069767 15.7952  40.0220930232558 17.1904  40.668023255814 18.2656  C 40.7255813953488 18.3552  40.7767441860465 18.4512  40.8279069767442 18.5472  C 41.4354651162791 19.6352  42.8232558139535 20.0064  43.8976744186047 19.3792  L 51.6104651162791 14.9312  Z M 24.8011627906977 18.272  C 25.453488372093 17.1968  25.0889534883721 15.8016  24.0081395348837 15.1744  L 16.3081395348837 10.7264  C 15.2401162790698 10.112  13.8779069767442 10.4704  13.2511627906977 11.5328  C 13.1808139534884 11.648  13.1168604651163 11.7632  13.046511627907 11.8848  C 12.4389534883721 12.96  12.803488372093 14.3232  13.871511627907 14.944  L 21.571511627907 19.392  C 22.6523255813953 20.0128  24.0401162790698 19.648  24.6412790697674 18.5536  C 24.6924418604651 18.4576  24.75 18.368  24.8011627906977 18.272  Z M 32.5843023255814 13.7792  L 32.7441860465116 13.7792  L 32.9040697674419 13.7792  C 34.1511627906977 13.7984  35.1744186046512 12.7872  35.1744186046512 11.5328  L 35.1744186046512 2.6368  C 35.1744186046512 1.4016  34.1767441860465 0.403200000000001  32.9488372093023 0.390400000000001  L 32.5395348837209 0.390400000000001  C 31.3116279069767 0.4032  30.3139534883721 1.408  30.3139534883721 2.6368  L 30.3139534883721 11.5328  C 30.3139534883721 12.7808  31.3308139534884 13.7984  32.5843023255814 13.7792  Z " fill-rule="nonzero" fill="#d7d7d7" stroke="none" transform="matrix(1 0 0 1 158 88 )" />
  </g>
</svg>