<?xml version="1.0" encoding="utf-8"?>
<svg version="1.1" xmlns:xlink="http://www.w3.org/1999/xlink" width="10px" height="16px" xmlns="http://www.w3.org/2000/svg">
  <g transform="matrix(1 0 0 1 -438 -70 )">
    <path d="M 0.053422 1.17512607170732  C 0.053422 1.77033959634394  0.568608245396657 2.25285549447154  1.20412268576389 2.25285549447154  C 1.83963712613112 2.25285549447154  2.35482337152778 1.77033959634394  2.35482337152778 1.17512607170732  C 2.35482337152778 0.57991254707069  1.83963712613112 0.0973966489430892  1.20412268576389 0.0973966489430892  C 0.568608245396657 0.0973966489430892  0.053422 0.57991254707069  0.053422 1.17512607170732  Z M 0.0749976378472223 7.90532179040651  C 0.0749976378472223 8.50053531504313  0.59018388324388 8.98305121317073  1.22569832361111 8.98305121317073  C 1.86121276397834 8.98305121317073  2.376399009375 8.50053531504313  2.376399009375 7.90532179040651  C 2.376399009375 7.31010826576988  1.86121276397834 6.82759236764228  1.22569832361111 6.82759236764228  C 0.59018388324388 6.82759236764228  0.0749976378472228 7.31010826576988  0.0749976378472228 7.90532179040651  Z M 0.0749976378472223 14.8045863125203  C 0.0749976378472223 15.399799837157  0.59018388324388 15.8823157352846  1.22569832361111 15.8823157352846  C 1.86121276397834 15.8823157352846  2.376399009375 15.399799837157  2.376399009375 14.8045863125203  C 2.376399009375 14.2093727878837  1.86121276397834 13.7268568897561  1.22569832361111 13.7268568897561  C 0.59018388324388 13.7268568897561  0.0749976378472228 14.2093727878837  0.0749976378472228 14.8045863125203  Z M 7.60561443888889 1.17512607170732  C 7.60561443888889 1.77033959638884  8.12080068432441 2.25285549455284  8.75631512473958 2.25285549455284  C 9.39182956515476 2.25285549455284  9.90701581059028 1.77033959638885  9.90701581059028 1.17512607170732  C 9.90701581059028 0.579912547025789  9.39182956515476 0.0973966488617891  8.75631512473958 0.0973966488617891  C 8.12080068432441 0.0973966488617891  7.60561443888889 0.579912547025789  7.60561443888889 1.17512607170732  Z M 7.62719007673611 7.90532179040651  C 7.62719007673611 8.50053531508803  8.14237632217163 8.98305121325203  8.77789076258681 8.98305121325203  C 9.41340520300198 8.98305121325203  9.9285914484375 8.50053531508803  9.9285914484375 7.90532179040651  C 9.9285914484375 7.31010826572498  9.41340520300198 6.82759236756098  8.77789076258681 6.82759236756098  C 8.14237632217163 6.82759236756098  7.62719007673611 7.31010826572498  7.62719007673611 7.90532179040651  Z M 7.62719007673611 14.8045863125203  C 7.62719007673611 15.3997998372019  8.14237632217163 15.8823157353659  8.77789076258681 15.8823157353659  C 9.41340520300198 15.8823157353659  9.9285914484375 15.3997998372019  9.9285914484375 14.8045863125203  C 9.9285914484375 14.2093727878388  9.41340520300198 13.7268568896748  8.77789076258681 13.7268568896748  C 8.14237632217163 13.7268568896748  7.62719007673611 14.2093727878388  7.62719007673611 14.8045863125203  Z " fill-rule="nonzero" fill="#d7d7d7" stroke="none" transform="matrix(1 0 0 1 438 70 )" />
  </g>
</svg>