<?xml version="1.0" encoding="utf-8"?>
<svg version="1.1" xmlns:xlink="http://www.w3.org/1999/xlink" width="67px" height="40px" xmlns="http://www.w3.org/2000/svg">
  <defs>
    <filter x="-3px" y="-3px" width="67px" height="40px" filterUnits="userSpaceOnUse" id="filter1">
      <feOffset dx="5" dy="5" in="SourceAlpha" result="shadowOffsetInner" />
      <feGaussianBlur stdDeviation="4" in="shadowOffsetInner" result="shadowGaussian" />
      <feComposite in2="shadowGaussian" operator="atop" in="SourceAlpha" result="shadowComposite" />
      <feColorMatrix type="matrix" values="0 0 0 0 0  0 0 0 0 0  0 0 0 0 0  0 0 0 0.349019607843137 0  " in="shadowComposite" />
    </filter>
    <g id="widget2">
      <path d="M 1.5 11  A 9.5 9.5 0 0 1 11 1.5 L 40 1.5  A 9.5 9.5 0 0 1 49.5 11 L 49.5 13  A 9.5 9.5 0 0 1 40 22.5 L 11 22.5  A 9.5 9.5 0 0 1 1.5 13 L 1.5 11  Z " fill-rule="nonzero" fill="#f9daf9" stroke="none" fill-opacity="0.996078431372549" />
      <path d="M 1 11  A 10 10 0 0 1 11 1 L 40 1  A 10 10 0 0 1 50 11 L 50 13  A 10 10 0 0 1 40 23 L 11 23  A 10 10 0 0 1 1 13 L 1 11  Z " stroke-width="2" stroke="#ec82f0" fill="none" />
    </g>
  </defs>
  <g transform="matrix(1 0 0 1 3 3 )">
    <use xlink:href="#widget2" filter="url(#filter1)" />
    <use xlink:href="#widget2" />
  </g>
</svg>