<?xml version="1.0" encoding="utf-8"?>
<svg version="1.1" xmlns:xlink="http://www.w3.org/1999/xlink" width="285px" height="261px" xmlns="http://www.w3.org/2000/svg">
  <defs>
    <filter x="-3px" y="31px" width="285px" height="261px" filterUnits="userSpaceOnUse" id="filter3">
      <feOffset dx="5" dy="5" in="SourceAlpha" result="shadowOffsetInner" />
      <feGaussianBlur stdDeviation="4" in="shadowOffsetInner" result="shadowGaussian" />
      <feComposite in2="shadowGaussian" operator="atop" in="SourceAlpha" result="shadowComposite" />
      <feColorMatrix type="matrix" values="0 0 0 0 0  0 0 0 0 0  0 0 0 0 0  0 0 0 0.349019607843137 0  " in="shadowComposite" />
    </filter>
    <g id="widget4">
      <path d="M 1.5 39  A 3.5 3.5 0 0 1 5 35.5 L 264 35.5  A 3.5 3.5 0 0 1 267.5 39 L 267.5 274  A 3.5 3.5 0 0 1 264 277.5 L 5 277.5  A 3.5 3.5 0 0 1 1.5 274 L 1.5 39  Z " fill-rule="nonzero" fill="#ffe7ff" stroke="none" fill-opacity="0.996078431372549" />
      <path d="M 1 39  A 4 4 0 0 1 5 35 L 264 35  A 4 4 0 0 1 268 39 L 268 274  A 4 4 0 0 1 264 278 L 5 278  A 4 4 0 0 1 1 274 L 1 39  Z " stroke-width="2" stroke="#ec82f0" fill="none" />
    </g>
  </defs>
  <g transform="matrix(1 0 0 1 3 -31 )">
    <use xlink:href="#widget4" filter="url(#filter3)" />
    <use xlink:href="#widget4" />
  </g>
</svg>