<?xml version="1.0" encoding="utf-8"?>
<svg version="1.1" xmlns:xlink="http://www.w3.org/1999/xlink" width="12px" height="12px" viewBox="102 83  12 12" xmlns="http://www.w3.org/2000/svg">
  <path d="M 108 83  C 111.36 83  114 85.64  114 89  C 114 92.36  111.36 95  108 95  C 104.64 95  102 92.36  102 89  C 102 85.64  104.64 83  108 83  Z " fill-rule="nonzero" fill="#f0f0f0" stroke="none" />
  <path d="M 108 83.5  C 111.08 83.5  113.5 85.92  113.5 89  C 113.5 92.08  111.08 94.5  108 94.5  C 104.92 94.5  102.5 92.08  102.5 89  C 102.5 85.92  104.92 83.5  108 83.5  Z " stroke-width="1" stroke="#d7d7d7" fill="none" />
  <path d="M 108 92  C 106.32 92  105 90.68  105 89  C 105 87.32  106.32 86  108 86  C 109.68 86  111 87.32  111 89  C 111 90.68  109.68 92  108 92  " fill-rule="nonzero" fill="#d7d7d7" stroke="none" />
</svg>