<?xml version="1.0" encoding="utf-8"?>
<svg version="1.1" xmlns:xlink="http://www.w3.org/1999/xlink" width="13px" height="13px" xmlns="http://www.w3.org/2000/svg">
  <g transform="matrix(1 0 0 1 -76 -52 )">
    <path d="M 82.5 52  C 86.14 52  89 54.86  89 58.5  C 89 62.14  86.14 65  82.5 65  C 78.86 65  76 62.14  76 58.5  C 76 54.86  78.86 52  82.5 52  Z " fill-rule="nonzero" fill="#ffffff" stroke="none" />
    <path d="M 82.5 52.5  C 85.86 52.5  88.5 55.14  88.5 58.5  C 88.5 61.86  85.86 64.5  82.5 64.5  C 79.14 64.5  76.5 61.86  76.5 58.5  C 76.5 55.14  79.14 52.5  82.5 52.5  Z " stroke-width="1" stroke="#2c8cf0" fill="none" />
  </g>
</svg>