<?xml version="1.0" encoding="utf-8"?>
<svg version="1.1" xmlns:xlink="http://www.w3.org/1999/xlink" width="13px" height="13px" xmlns="http://www.w3.org/2000/svg">
  <g transform="matrix(1 0 0 1 -306 -140 )">
    <path d="M 312.5 140  C 316.14 140  319 142.86  319 146.5  C 319 150.14  316.14 153  312.5 153  C 308.86 153  306 150.14  306 146.5  C 306 142.86  308.86 140  312.5 140  Z " fill-rule="nonzero" fill="#ffffff" stroke="none" />
    <path d="M 312.5 140.5  C 315.86 140.5  318.5 143.14  318.5 146.5  C 318.5 149.86  315.86 152.5  312.5 152.5  C 309.14 152.5  306.5 149.86  306.5 146.5  C 306.5 143.14  309.14 140.5  312.5 140.5  Z " stroke-width="1" stroke="#ed4014" fill="none" />
  </g>
</svg>