<?xml version="1.0" encoding="utf-8"?>
<svg version="1.1" xmlns:xlink="http://www.w3.org/1999/xlink" width="28px" height="32px" xmlns="http://www.w3.org/2000/svg">
  <g transform="matrix(1 0 0 1 -295 -91 )">
    <path d="M 11.8788571428571 0.379508771929825  C 12.1734272007806 0.0843787815071698  12.6557302121807 0.0796872756741318  12.9561904642857 0.369029228070175  L 18.2483809642857 5.67316957894737  C 18.5387755507572 5.9642337258109  18.5387755507572 6.43005866015401  18.2483809642857 6.72112280701754  L 12.9683809642857 12.0132865614035  C 12.699935770166 12.2834006469564  12.2687690520342 12.3148499052574  11.9626666785714 12.0866432631579  L 11.8788571428571 12.0132865614035  L 10.9127618928571 11.0446783508772  C 10.6223673297236 10.7536142082967  10.6223673297236 10.2877893004752  10.9127618928571 9.99672515789474  L 13.4087618928571 7.49361403508772  C 7.65482553223392 7.82216558783701  3.16004173507069 12.5021991384001  3.16004173507069 18.1647288991763  C 3.16004173507069 24.0681684145606  8.03118365691165 28.8538517061938  14.0400417350707 28.8538517061938  C 19.3795139626135 28.8538517061938  23.9299057668356 25.0471797385241  24.7809523928571 19.8684444561404  L 24.8175238214286 19.6289122807018  C 24.8236190714286 19.5795087719298  24.8327619285714 19.5136374385965  24.8403809642857 19.431298245614  C 24.8820222611961 19.034990127275  25.2323383317051 18.7401751263437  25.6373333214286 18.7606081754386  L 27.1611428571428 18.8399532280702  C 27.5664005965682 18.8601589403479  27.8844312043485 19.1888688238409  27.8844312043485 19.5875291610952  C 27.8844312043485 19.6003318057528  27.8840968833873 19.6131323434068  27.8834285714286 19.6259181403509  L 27.8803809642857 19.6618479649123  L 27.8377142857143 20.0301286666667  C 26.889058523278 26.8024864733053  20.9984042119772 31.8478924857849  14.0401405683893 31.8478924857849  C 6.34812897351125 31.8478924857849  0.112521532675021 25.7216816667178  0.112521532675021 18.1646176436797  C 0.112521532675021 10.9928583877422  5.74875727960469 5.0379226417209  13.0293333214286 4.5174269122807  L 10.9112381071429 2.3960701754386  C 10.6208435206714 2.10500602857506  10.6208435206714 1.63918109423196  10.9112381071429 1.34811694736842  L 11.8788571428571 0.379508771929825  Z " fill-rule="nonzero" fill="#000000" stroke="none" transform="matrix(1 0 0 1 295 91 )" />
  </g>
</svg>