<?xml version="1.0" encoding="utf-8"?>
<svg version="1.1" xmlns:xlink="http://www.w3.org/1999/xlink" width="19px" height="32px" xmlns="http://www.w3.org/2000/svg">
  <g transform="matrix(1 0 0 1 -483 -155 )">
    <path d="M 0.1015018 2.35025214341463  C 0.1015018 3.54067919268789  1.08035566625365 4.50571098894309  2.28783310295139 4.50571098894309  C 3.49531053964913 4.50571098894309  4.47416440590278 3.54067919268789  4.47416440590278 2.35025214341463  C 4.47416440590278 1.15982509414138  3.49531053964913 0.194793297886178  2.28783310295139 0.194793297886178  C 1.08035566625365 0.194793297886178  0.1015018 1.15982509414138  0.1015018 2.35025214341463  Z M 0.142495511909722 15.810643580813  C 0.142495511909722 17.0010706300863  1.12134937816337 17.9661024263415  2.32882681486111 17.9661024263415  C 3.53630425155886 17.9661024263415  4.5151581178125 17.0010706300863  4.5151581178125 15.810643580813  C 4.5151581178125 14.6202165315398  3.53630425155885 13.6551847352846  2.32882681486111 13.6551847352846  C 1.12134937816337 13.6551847352846  0.142495511909723 14.6202165315398  0.142495511909723 15.810643580813  Z M 0.142495511909722 29.6091726250407  C 0.142495511909722 30.7995996743139  1.12134937816337 31.7646314705691  2.32882681486111 31.7646314705691  C 3.53630425155885 31.7646314705691  4.5151581178125 30.7995996743139  4.5151581178125 29.6091726250407  C 4.5151581178125 28.4187455757674  3.53630425155885 27.4537137795122  2.32882681486111 27.4537137795122  C 1.12134937816337 27.4537137795122  0.142495511909723 28.4187455757674  0.142495511909723 29.6091726250407  Z M 14.4506674338889 2.35025214341463  C 14.4506674338889 3.54067919277769  15.4295213002164 4.50571098910569  16.6369987370052 4.50571098910569  C 17.844476173794 4.50571098910569  18.8233300401215 3.54067919277769  18.8233300401215 2.35025214341463  C 18.8233300401215 1.15982509405158  17.844476173794 0.194793297723578  16.6369987370052 0.194793297723578  C 15.4295213002164 0.194793297723578  14.4506674338889 1.15982509405158  14.4506674338889 2.35025214341463  Z M 14.4916611457986 15.810643580813  C 14.4916611457986 17.0010706301761  15.4705150121261 17.9661024265041  16.6779924489149 17.9661024265041  C 17.8854698857038 17.9661024265041  18.8643237520313 17.0010706301761  18.8643237520313 15.810643580813  C 18.8643237520313 14.62021653145  17.8854698857038 13.655184735122  16.6779924489149 13.655184735122  C 15.4705150121261 13.655184735122  14.4916611457986 14.62021653145  14.4916611457986 15.810643580813  Z M 14.4916611457986 29.6091726250407  C 14.4916611457986 30.7995996744037  15.4705150121261 31.7646314707317  16.6779924489149 31.7646314707317  C 17.8854698857038 31.7646314707317  18.8643237520313 30.7995996744037  18.8643237520313 29.6091726250407  C 18.8643237520313 28.4187455756776  17.8854698857038 27.4537137793496  16.6779924489149 27.4537137793496  C 15.4705150121261 27.4537137793496  14.4916611457986 28.4187455756776  14.4916611457986 29.6091726250407  Z " fill-rule="nonzero" fill="#909399" stroke="none" transform="matrix(1 0 0 1 483 155 )" />
  </g>
</svg>