<?xml version="1.0" encoding="utf-8"?>
<svg version="1.1" xmlns:xlink="http://www.w3.org/1999/xlink" width="32px" height="32px" xmlns="http://www.w3.org/2000/svg">
  <g transform="matrix(1 0 0 1 -580 -158 )">
    <path d="M 31.9412051681416 16.1291683539823  C 31.9412051681416 24.8815334513274  24.8460889911504 31.9769756106195  16.0936514690265 31.9769756106195  C 7.34121394690265 31.9769756106195  0.246170230088494 24.8815334513274  0.246170230088494 16.1291683539823  C 0.246170230088494 7.37705684955752  7.34125015929204 0.281650867256637  16.0936514690265 0.281650867256637  C 24.8460889911504 0.281650867256637  31.9412051681416 7.37705681415929  31.9412051681416 16.1291683539823  Z M 25.7767362123894 11.5760534867257  C 26.0581544424779 11.2949974159292  26.0581544424779 10.8384398584071  25.7766999646018 10.5570578053097  L 25.267401380531 10.0477592212389  C 24.9860193274336 9.76637716814159  24.5301862300885 9.76637716814159  24.2488042123894 10.0477592212389  L 13.6849879292035 20.3924249911504  L 9.80689288495575 16.3338295929204  C 9.679532 16.2065049557522  9.34819815929204 16.3316924247788  9.06677989380531 16.6130744424779  L 8.55748130973451 17.1224454867257  C 8.27609925663717 17.403827539823  8.15163624778761 17.735161380531  8.27892467256637 17.8621238230089  L 13.4535939469027 23.2769893097345  C 13.5801941238938 23.4043501946903  13.911528 23.2787280353982  14.1929462654867 22.997744460177  L 14.7015566017699 22.4884096637168  C 14.7915713274336 22.3990831858407  14.8577149380531 22.3065690619469  14.912556920354 22.2154676460177  L 25.7767362123894 11.5760534867257  Z " fill-rule="nonzero" fill="#000000" stroke="none" transform="matrix(1 0 0 1 580 158 )" />
  </g>
</svg>