<?xml version="1.0" encoding="utf-8"?>
<svg version="1.1" xmlns:xlink="http://www.w3.org/1999/xlink" width="23px" height="32px" xmlns="http://www.w3.org/2000/svg">
  <g transform="matrix(1 0 0 1 -907 -158 )">
    <path d="M 8.625 20.8628928571429  L 8.625 22.3214285714286  L 14.375 22.3214285714286  L 14.375 20.8630714285714  C 14.3749925560384 20.6260413159798  14.5186417313875 20.4136144634396  14.7360579268293 20.3291428571429  C 14.7813971458898 20.3116108422327  14.8265466976876 20.2935740484434  14.8714984756098 20.2750357142857  C 18.2275 18.88325  20.6859756097561 15.5346785714286  20.6859756097561 11.625  C 20.6859756097561 6.46707142857143  16.5811067073171 2.28571428571429  11.5175304878049 2.28571428571429  C 6.45395426829268 2.28571428571429  2.34908536585366 6.46707142857143  2.34908536585366 11.625  C 2.34908536585366 15.5280357142857  4.76738109756097 18.8718571428571  8.11156707317073 20.2678928571429  C 8.15406097560976 20.2856428571429  8.20482926829268 20.306  8.26401219512195 20.3289642857143  C 8.48140079673104 20.4134591078291  8.6250185387589 20.6258807320406  8.625 20.8628928571429  Z M 14.375 24.6071428571429  L 8.625 24.6071428571429  L 8.625 25.6428571428571  C 8.625 25.8006527856659  8.75057866773039 25.9285714285714  8.90548780487805 25.9285714285714  L 14.094512195122 25.9285714285714  C 14.2494213322696 25.9285714285714  14.375 25.8006527856659  14.375 25.6428571428571  L 14.375 24.6071428571429  Z M 16.6539634146341 22.0088214285714  L 16.6539634146341 27.1428571428571  C 16.6539634146341 27.7740357142857  16.1516448170732 28.2857142857143  15.532012195122 28.2857142857143  L 7.53810975609756 28.2857142857143  C 6.91847713414634 28.2857142857143  6.41615853658537 27.7740357142857  6.41615853658537 27.1428571428571  L 6.41615853658537 22.0267857142857  C 2.67424085365854 20.1188928571429  0.105182926829268 16.1775  0.105182926829268 11.625  C 0.105182926829268 5.20467857142857  5.21465396341463 0  11.5175304878049 0  C 17.8204070121951 0  22.9298780487805 5.20467857142857  22.9298780487805 11.625  C 22.9298780487805 16.1633214285714  20.3768429878049 20.09425  16.6539634146341 22.0088214285714  Z M 7.15243902439024 30.8571428571429  C 7.15243902439024 30.2259642857143  7.65475762195122 29.7142857142857  8.27439024390244 29.7142857142857  L 14.7606707317073 29.7142857142857  C 15.3803033536585 29.7142857142857  15.8826219512195 30.2259642857143  15.8826219512195 30.8571428571429  C 15.8826219512195 31.4883214285714  15.3803033536585 32  14.7606707317073 32  L 8.27439024390244 32  C 7.65475762195122 32  7.15243902439024 31.4883214285714  7.15243902439024 30.8571428571429  Z " fill-rule="nonzero" fill="#000000" stroke="none" transform="matrix(1 0 0 1 907 158 )" />
  </g>
</svg>