<?xml version="1.0" encoding="utf-8"?>
<svg version="1.1" xmlns:xlink="http://www.w3.org/1999/xlink" width="32px" height="23px" xmlns="http://www.w3.org/2000/svg">
  <g transform="matrix(1 0 0 1 -1085 -163 )">
    <path d="M 15.9993469387755 22.9257196254629  C 15.0221954136503 22.9257196254629  14.1009343972059 22.4672001523817  13.507918367347 21.6857143550781  L 0.903836734693868 5.06788666068616  C 0.486921212539073 4.51816021011584  0.261086655321833 3.84580360700386  0.261086655321833 3.15428554781246  C 0.261086655321833 1.41222174314396  1.66453690891331 0  3.39578053287278 0  C 3.39669722612712 0  3.39761391934348 0  3.39853061224494 0  L 28.6027755102041 0  C 30.3341560503163 0  31.737606303908 1.41222295400269  31.737606303908 3.15428675867116  C 31.737606303908 3.84580429641062  31.51177208682 4.51816042206431  31.0948571428571 5.06788666068618  L 18.490775510204 21.6857143550781  C 17.897759480345 22.4672001523817  16.9764984639007 22.9257196254629  15.9993469387755 22.9257196254629  Z " fill-rule="nonzero" fill="#000000" stroke="none" transform="matrix(1 0 0 1 1085 163 )" />
  </g>
</svg>