<?xml version="1.0" encoding="utf-8"?>
<svg version="1.1" xmlns:xlink="http://www.w3.org/1999/xlink" width="32px" height="32px" xmlns="http://www.w3.org/2000/svg">
  <g transform="matrix(1 0 0 1 -116 -213 )">
    <path d="M 29.8666666666667 30.9333333333333  L 31.1111111111111 29.8666666666667  L 26.3111111111111 25.0666666666667  C 28.2666666666667 22.7555555555556  29.5111111111111 19.5555555555556  29.5111111111111 16.3555555555556  C 29.5111111111111 8.71111111111111  23.2888888888889 2.48888888888889  15.6444444444444 2.48888888888889  C 12.2666666666667 2.48888888888889  9.24444444444445 3.73333333333334  6.93333333333333 5.68888888888889  L 2.13333333333333 0.888888888888889  L 0.888888888888889 2.13333333333333  L 5.68888888888889 6.93333333333333  C 3.2 9.42222222222222  1.77777777777778 12.8  1.77777777777778 16.3555555555556  C 1.77777777777778 24  8 30.2222222222222  15.6444444444444 30.2222222222222  C 19.3777777777778 30.2222222222222  22.7555555555556 28.8  25.2444444444445 26.3111111111111  L 29.8666666666667 30.9333333333333  Z M 24 25.2444444444444  C 21.8666666666667 27.2  18.8444444444444 28.6222222222222  15.6444444444444 28.6222222222222  C 9.06666666666667 28.6222222222222  3.55555555555556 23.1111111111111  3.55555555555556 16.3555555555556  C 3.55555555555556 13.1555555555556  4.8 10.3111111111111  6.93333333333333 8  L 12.6222222222222 13.6888888888889  L 5.68888888888889 13.6888888888889  L 5.68888888888889 15.4666666666667  L 15.4666666666667 15.4666666666667  L 15.4666666666667 5.68888888888889  L 13.6888888888889 5.68888888888889  L 13.6888888888889 12.4444444444444  L 8.17777777777778 6.93333333333333  C 10.3111111111111 5.33333333333333  12.8 4.26666666666667  15.6444444444444 4.26666666666667  C 22.4 4.26666666666667  27.7333333333333 9.77777777777778  27.7333333333333 16.3555555555556  C 27.7333333333333 19.2  26.6666666666667 21.8666666666667  25.0666666666667 23.8222222222222  L 19.3777777777778 18.1333333333333  L 26.1333333333333 18.1333333333333  L 26.1333333333333 16.3555555555556  L 16.3555555555556 16.3555555555556  L 16.3555555555556 26.1333333333333  L 18.1333333333333 26.1333333333333  L 18.1333333333333 19.3777777777778  L 24 25.2444444444444  Z " fill-rule="nonzero" fill="#000000" stroke="none" transform="matrix(1 0 0 1 116 213 )" />
  </g>
</svg>