<?xml version="1.0" encoding="utf-8"?>
<svg version="1.1" xmlns:xlink="http://www.w3.org/1999/xlink" width="32px" height="32px" xmlns="http://www.w3.org/2000/svg">
  <g transform="matrix(1 0 0 1 -297 -213 )">
    <path d="M 16 0.115809523809522  C 24.7725961634075 0.115809523809522  31.8841904761905 7.22740383659247  31.8841904761905 16  C 31.8841904761905 24.7725961634075  24.7725961634075 31.8841904761905  16 31.8841904761905  C 7.22740383659247 31.8841904761905  0.115809523809522 24.7725961634075  0.115809523809522 16  C 0.115809523809522 7.22740383659247  7.22740383659247 0.115809523809522  16 0.115809523809522  Z M 24.8380952380952 26.4269206349206  L 5.57511111111111 7.15987301587302  C 3.47621574903222 9.63056063654047  2.32387699360529 12.7668725423824  2.32387699360529 16.0087329742757  C 2.32387699360529 23.5571154750742  8.44305004836237 29.6762885298313  15.9914325491608 29.6762885298313  C 19.2323016320207 29.6762885298313  22.3677206234414 28.5246531430137  24.8380952380952 26.4269206349206  Z M 16.0016251674741 2.33244434782258  C 16.0010834449756 2.33244434782258  16.0005417224947 2.33244438002987  16 2.33244444444444  C 12.6509544763298 2.32774234838937  9.41763568839012 3.5574161603575  6.91809523809524 5.7864126984127  L 26.2135873015873 25.0839365079365  C 28.4395080921833 22.5816052151692  29.6691807230297 19.3490871319779  29.6691807230297 15.9999999033781  C 29.6691807230297 8.45161740257967  23.5500076682726 2.33244434782258  16.0016251674741 2.33244434782258  Z M 9.69346031746032 12.6740317460317  L 9.69549206349206 12.6740317460317  L 11.4427936507937 14.4253968253968  L 11.1766349206349 15.3803174603175  L 10.7865396825397 16.8147301587302  L 13.8341587301587 16.8147301587302  L 17.6233650793651 20.6059682539683  L 18.1455238095238 22.2232380952381  L 15.3965714285714 22.2232380952381  L 14.4741587301587 18.8546031746032  L 10.2196825396825 18.8546031746032  L 9.2952380952381 22.2232380952381  L 6.63365079365079 22.2232380952381  L 9.69346031746032 12.6740317460317  Z M 19.1979682539683 15.104  C 20.0939682539683 14.5473015873016  21.1789206349206 14.1003174603175  22.3735873015873 14.1003174603175  C 24.2448253968254 14.1003174603175  25.232253968254 15.1873015873016  25.2891428571429 17.2617142857143  L 25.2911746031746 21.8900317460317  L 24.1330793650794 21.8900317460317  L 23.5580952380952 21.3150476190476  L 23.5133968253968 21.0753015873016  L 23.4727619047619 21.0753015873016  L 23.3894603174603 21.1464126984127  L 22.5767619047619 20.335746031746  C 22.7819682539683 20.2280634920635  22.9770158730159 20.0777142857143  23.1801904761905 19.8887619047619  L 23.2980317460317 19.7729523809524  L 23.2980317460317 18.2389841269841  C 22.1988571428571 18.3852698412698  21.5324444444444 18.6209523809524  21.1728253968254 18.9318095238095  L 20.096 17.8549841269841  C 20.8071111111111 17.4405079365079  21.8595555555556 17.1702857142857  23.2980317460318 17.0179047619048  C 23.2695873015873 16.272253968254  22.9445079365079 15.7013333333333  22.007873015873 15.7013333333333  C 21.3617777777778 15.7013333333333  20.736 15.9654603174603  20.0939682539683 16.3210158730159  L 19.9172063492064 16.4205714285714  L 19.1979682539683 15.104  Z M 13.9255873015873 9.10222222222222  L 13.927619047619 9.10222222222222  L 15.1507301587302 12.9056507936508  L 11.3452698412698 9.10222222222222  L 13.9255873015873 9.10222222222222  Z " fill-rule="nonzero" fill="#555555" stroke="none" transform="matrix(1 0 0 1 297 213 )" />
  </g>
</svg>