<?xml version="1.0" encoding="utf-8"?>
<svg version="1.1" xmlns:xlink="http://www.w3.org/1999/xlink" width="28px" height="32px" xmlns="http://www.w3.org/2000/svg">
  <g transform="matrix(1 0 0 1 -350 -91 )">
    <path d="M 16.1211428571429 0.379508771929825  C 15.8265727992194 0.0843787815071698  15.3442697878193 0.0796872756741318  15.0438095357143 0.369029228070175  L 9.75161903571429 5.67316957894737  C 9.4612244492428 5.9642337258109  9.4612244492428 6.43005866015401  9.75161903571429 6.72112280701754  L 15.0316190357143 12.0132865614035  C 15.300064229834 12.2834006469564  15.7312309479658 12.3148499052574  16.0373333214286 12.0866432631579  L 16.1211428571429 12.0132865614035  L 17.0872381071429 11.0446783508772  C 17.3776326702763 10.7536142082967  17.3776326702763 10.2877893004752  17.0872381071429 9.99672515789474  L 14.5912381071429 7.49361403508772  C 20.3451744677661 7.82216558783701  24.8399582649293 12.5021991384001  24.8399582649293 18.1647288991763  C 24.8399582649293 24.0681684145606  19.9688163430883 28.8538517061938  13.9599582649293 28.8538517061938  C 8.62048603738648 28.8538517061938  4.07009423316441 25.0471797385241  3.21904760714286 19.8684444561404  L 3.18247617857143 19.6289122807018  C 3.17378127829276 19.5631653455815  3.16616124891268 19.4972855126253  3.15961903571429 19.431298245614  C 3.1179777388039 19.034990127275  2.76766166829489 18.7401751263437  2.36266667857143 18.7606081754386  L 0.838857142857144 18.8399532280702  C 0.433599403431765 18.8601589403479  0.11556879565147 19.1888688238409  0.11556879565147 19.5875291610952  C 0.11556879565147 19.6003318057529  0.115903116612689 19.6131323434068  0.116571428571429 19.6259181403509  L 0.119619035714287 19.6618479649123  L 0.162285714285716 20.0301286666667  C 1.11094147672203 26.8024864733053  7.00159578802276 31.8478924857849  13.9598594316107 31.8478924857849  C 21.6518710264888 31.8478924857849  27.887478467325 25.7216816667178  27.887478467325 18.1646176436797  C 27.887478467325 10.9928583877422  22.2512427203953 5.0379226417209  14.9706666785714 4.5174269122807  L 17.0887618928571 2.3960701754386  C 17.3791564793286 2.10500602857506  17.3791564793286 1.63918109423196  17.0887618928571 1.34811694736842  L 16.1211428571429 0.379508771929825  Z " fill-rule="nonzero" fill="#000000" stroke="none" transform="matrix(1 0 0 1 350 91 )" />
  </g>
</svg>