<?xml version="1.0" encoding="utf-8"?>
<svg version="1.1" xmlns:xlink="http://www.w3.org/1999/xlink" width="33px" height="32px" xmlns="http://www.w3.org/2000/svg">
  <g transform="matrix(1 0 0 1 -476 -91 )">
    <path d="M 13.7210526315789 2.28571428571429  L 19.2789473684211 2.28571428571429  L 19.7131578947368 5.25714285714286  L 19.8868421052632 6.48571428571429  L 21.0157894736842 7  C 21.4789473684211 7.22857142857143  21.9710526315789 7.48571428571429  22.4052631578947 7.77142857142857  L 23.4184210526316 8.42857142857143  L 24.5473684210526 8  L 27.5 6.85714285714286  L 30.25 11.4  L 27.8184210526316 13.2285714285714  L 26.8052631578947 14  L 26.9210526315789 15.2571428571429  C 26.95 15.5142857142857  26.95 15.7714285714286  26.95 16  C 26.95 16.2285714285714  26.95 16.4857142857143  26.9210526315789 16.7428571428571  L 26.8052631578947 18  L 27.8184210526316 18.7714285714286  L 30.25 20.6  L 27.5289473684211 25.1428571428571  L 24.5473684210526 24  L 23.4184210526316 23.5714285714286  L 22.4052631578947 24.2285714285714  C 21.9421052631579 24.5428571428571  21.4789473684211 24.8  21.0157894736842 25  L 19.8868421052632 25.5142857142857  L 19.7131578947368 26.7142857142857  L 19.2789473684211 29.7142857142857  L 13.7210526315789 29.7142857142857  L 13.2868421052632 26.7428571428571  L 13.1131578947368 25.5142857142857  L 11.9842105263158 25  C 11.5210526315789 24.7714285714286  11.0289473684211 24.5142857142857  10.5947368421053 24.2285714285714  L 9.58157894736842 23.5714285714286  L 8.45263157894737 24  L 5.5 25.1428571428571  L 2.75 20.6  L 5.18157894736842 18.7714285714286  L 6.19473684210526 18  L 6.07894736842105 16.7428571428571  C 6.05 16.4857142857143  6.05 16.2285714285714  6.05 16  C 6.05 15.7714285714286  6.05 15.5142857142857  6.07894736842105 15.2571428571429  L 6.19473684210526 14  L 5.18157894736842 13.2285714285714  L 2.75 11.4  L 5.47105263157895 6.85714285714286  L 8.45263157894737 8  L 9.58157894736842 8.42857142857143  L 10.5947368421053 7.77142857142857  C 11.0578947368421 7.45714285714286  11.5210526315789 7.2  11.9842105263158 7  L 13.1131578947368 6.48571428571429  L 13.2868421052632 5.28571428571429  L 13.7210526315789 2.28571428571429  Z M 21.5368421052632 1.62857142857143  C 21.3921052631579 0.685714285714285  20.5815789473684 0  19.5973684210526 0  L 13.4026315789474 0  C 12.4184210526316 0  11.6078947368421 0.685714285714286  11.4631578947368 1.6  L 11 4.91428571428571  C 10.4210526315789 5.17142857142857  9.87105263157895 5.48571428571429  9.29210526315789 5.85714285714286  L 6.02105263157895 4.6  C 5.78947368421053 4.51428571428571  5.5578947368421 4.48571428571429  5.32631578947368 4.48571428571429  C 4.63157894736842 4.48571428571429  3.96578947368421 4.82857142857143  3.64736842105263 5.42857142857143  L 0.55 10.5714285714286  C 0.0578947368421053 11.3714285714286  0.260526315789474 12.4285714285714  1.01315789473684 13  L 3.76315789473684 15.0571428571429  C 3.73421052631579 15.4  3.70526315789474 15.7142857142857  3.70526315789474 16  C 3.70526315789474 16.2857142857143  3.70526315789474 16.6  3.76315789473684 16.9428571428571  L 1.01315789473684 19  C 0.260526315789474 19.5714285714286  0.0578947368421053 20.5714285714286  0.55 21.4285714285714  L 3.61842105263158 26.5428571428571  C 3.96578947368421 27.1428571428571  4.63157894736842 27.5142857142857  5.32631578947368 27.5142857142857  C 5.5578947368421 27.5142857142857  5.76052631578947 27.4857142857143  5.99210526315789 27.4  L 9.26315789473684 26.1428571428571  C 9.81315789473684 26.5142857142857  10.3921052631579 26.8285714285714  10.9710526315789 27.0857142857143  L 11.4631578947368 30.3714285714286  C 11.5789473684211 31.2857142857143  12.4184210526316 32  13.4026315789474 32  L 19.5973684210526 32  C 20.5815789473684 32  21.3921052631579 31.3142857142857  21.5368421052632 30.4  L 22.0289473684211 27.0857142857143  C 22.6078947368421 26.8285714285714  23.1578947368421 26.5142857142857  23.7368421052632 26.1428571428571  L 27.0078947368421 27.4  C 27.2394736842105 27.4857142857143  27.4710526315789 27.5142857142857  27.7026315789474 27.5142857142857  C 28.3973684210526 27.5142857142857  29.0631578947368 27.1714285714286  29.3815789473684 26.5714285714286  L 32.4789473684211 21.4  C 32.9421052631579 20.5714285714286  32.7394736842105 19.5714285714286  31.9868421052632 19  L 29.2368421052632 16.9428571428572  C 29.2657894736842 16.6571428571429  29.2947368421053 16.3428571428572  29.2947368421053 16  C 29.2947368421053 15.6571428571429  29.2657894736842 15.3428571428572  29.2368421052632 15.0571428571429  L 31.9868421052632 13  C 32.7394736842105 12.4285714285714  32.9421052631579 11.4285714285714  32.45 10.5714285714286  L 29.3815789473684 5.45714285714287  C 29.0342105263158 4.85714285714287  28.3684210526316 4.48571428571429  27.6736842105263 4.48571428571429  C 27.4421052631579 4.48571428571429  27.2394736842105 4.51428571428572  27.0078947368421 4.60000000000001  L 23.7368421052632 5.85714285714286  C 23.1868421052632 5.48571428571429  22.6078947368421 5.17142857142857  22.0289473684211 4.91428571428571  L 21.5368421052632 1.62857142857143  Z M 11.8684210526316 16  C 11.8684210526316 13.4857142857143  13.9526315789474 11.4285714285714  16.5 11.4285714285714  C 19.0473684210526 11.4285714285714  21.1315789473684 13.4857142857143  21.1315789473684 16  C 21.1315789473684 18.5142857142857  19.0473684210526 20.5714285714286  16.5 20.5714285714286  C 13.9526315789474 20.5714285714286  11.8684210526316 18.5142857142857  11.8684210526316 16  Z M 23.4473684210526 16  C 23.4473684210526 12.2285714285714  20.3210526315789 9.14285714285714  16.5 9.14285714285714  C 12.6789473684211 9.14285714285714  9.55263157894737 12.2285714285714  9.55263157894737 16  C 9.55263157894737 19.7714285714286  12.6789473684211 22.8571428571429  16.5 22.8571428571429  C 20.3210526315789 22.8571428571429  23.4473684210526 19.7714285714286  23.4473684210526 16  Z " fill-rule="nonzero" fill="#000000" stroke="none" transform="matrix(1 0 0 1 476 91 )" />
  </g>
</svg>