<?xml version="1.0" encoding="utf-8"?>
<svg version="1.1" xmlns:xlink="http://www.w3.org/1999/xlink" width="32px" height="33px" xmlns="http://www.w3.org/2000/svg">
  <g transform="matrix(1 0 0 1 -582 -90 )">
    <path d="M 0.117216131868131 16.4645161290323  L 16.6212454065934 0  L 27.3113552967033 10.7870967741936  L 10.9948717802198 27  L 0.117216131868131 27  L 0.117216131868131 16.4645161290323  Z M 16.6212454065934 2.83870967741936  L 1.99267397802198 17.221505391129  L 1.99267397802198 25.1698924879032  L 9.86959705494505 25.1698924879032  L 24.4981684835165 10.7870967741936  L 16.6212454065934 2.83870967741936  Z M 0.117216131868131 32.9290322580645  L 0.117216131868133 31.036559125  L 5.74358975824176 31.036559125  L 5.74358975824176 32.9290322580645  L 0.117216131868131 32.9290322580645  Z M 7.6190476043956 32.9290322580645  L 7.61904760439561 31.036559125  L 16.996337010989 31.036559125  L 16.996337010989 32.9290322580645  L 7.6190476043956 32.9290322580645  Z M 18.8717948571429 33  L 18.8717948571429 31  L 32 31  L 32 33  L 18.8717948571429 33  Z " fill-rule="nonzero" fill="#444444" stroke="none" transform="matrix(1 0 0 1 582 90 )" />
  </g>
</svg>