<?xml version="1.0" encoding="utf-8"?>
<svg version="1.1" xmlns:xlink="http://www.w3.org/1999/xlink" width="37px" height="32px" xmlns="http://www.w3.org/2000/svg">
  <g transform="matrix(1 0 0 1 -176 -158 )">
    <path d="M 10.60666665125 6  L 10.60666665125 0.124031023255813  L 36.9177777675 0.124031023255813  L 36.9177777675 6  L 10.60666665125 6  Z M 0.0822222324999999 5.41602065116279  L 0.0822222324999999 0.124031023255813  L 5.344444465 0.124031023255813  L 5.344444465 5.41602065116279  L 0.0822222324999999 5.41602065116279  Z M 0.0822222324999999 18.6459948372093  L 0.0822222324999999 13.3540051627907  L 5.344444465 13.3540051627907  L 5.344444465 18.6459948372093  L 0.0822222324999999 18.6459948372093  Z M 0.0822222324999999 31.8759689767442  L 0.0822222324999999 26.5839793488372  L 5.344444465 26.5839793488372  L 5.344444465 31.8759689767442  L 0.0822222324999999 31.8759689767442  Z M 10.60666665125 31.8759689767442  L 10.60666665125 26  L 36.9177777675 26  L 36.9177777675 31.8759689767442  L 10.60666665125 31.8759689767442  Z M 10.60666665125 18.6459948372093  L 10.60666665125 13.3540051627907  L 36.9177777675 13.3540051627907  L 36.9177777675 18.6459948372093  L 10.60666665125 18.6459948372093  Z " fill-rule="nonzero" fill="#333333" stroke="none" transform="matrix(1 0 0 1 176 158 )" />
  </g>
</svg>