<?xml version="1.0" encoding="utf-8"?>
<svg version="1.1" xmlns:xlink="http://www.w3.org/1999/xlink" width="32px" height="32px" xmlns="http://www.w3.org/2000/svg">
  <g transform="matrix(1 0 0 1 -235 -158 )">
    <path d="M 15 12.7125  C 14.6666666666667 13.7916666666667  13.7916666666667 14.6666666666667  12.7125 15  L 1.95416666666667 15  C 0.875 14.6666666666667  0 13.7916666666667  0 12.7125  L 0 1.95416666666667  C 0 0.875  0.875 0  1.95416666666667 0  L 12.7125 0  C 13.7916666666667 0  14.6666666666667 0.875  15 1.95416666666667  L 15 12.7125  Z M 15 30.0458333333333  C 14.6666666666667 31.125  13.7916666666667 32  12.7125 32  L 1.95416666666667 32  C 0.875 32  0 31.125  0 30.0458333333333  L 0 19.2875  C 0 18.2083333333333  0.875 17.3333333333333  1.95416666666667 17  L 12.7125 17  C 13.7916666666667 17.3333333333333  14.6666666666667 18.2083333333333  15 19.2875  L 15 30.0458333333333  Z M 32 12.7125  C 32 13.7916666666667  31.125 14.6666666666667  30.0458333333333 15  L 19.2875 15  C 18.2083333333333 14.6666666666667  17.3333333333333 13.7916666666667  17 12.7125  L 17 1.95416666666667  C 17.3333333333333 0.875  18.2083333333333 0  19.2875 0  L 30.0458333333333 0  C 31.125 0  32 0.875  32 1.95416666666667  L 32 12.7125  Z M 32 30.0458333333333  C 32 31.125  31.125 32  30.0458333333333 32  L 19.2875 32  C 18.2083333333333 32  17.3333333333333 31.125  17 30.0458333333333  L 17 19.2875  C 17.3333333333333 18.2083333333333  18.2083333333333 17.3333333333333  19.2875 17  L 30.0458333333333 17  C 31.125 17.3333333333333  32 18.2083333333333  32 19.2875  L 32 30.0458333333333  Z " fill-rule="nonzero" fill="#000000" stroke="none" transform="matrix(1 0 0 1 235 158 )" />
  </g>
</svg>