<?xml version="1.0" encoding="utf-8"?>
<svg version="1.1" xmlns:xlink="http://www.w3.org/1999/xlink" width="32px" height="32px" xmlns="http://www.w3.org/2000/svg">
  <g transform="matrix(1 0 0 1 -726 -158 )">
    <path d="M 32 16  C 32 7.1634440027073  24.8365559972927 0  16 0  C 7.1634440027073 0  0 7.1634440027073  0 16  C 0 24.8365559972927  7.1634440027073 32  16 32  C 24.8365559972927 32  32 24.8365559972927  32 16  Z M 17 11.2  L 17 25.6  L 15 25.6  L 15 11.2  L 17 11.2  Z M 17.6 8  C 17.6 8.88365559972927  16.8836555997293 9.6  16 9.6  C 15.1163444002707 9.6  14.4 8.88365559972927  14.4 8  C 14.4 7.11634440027073  15.1163444002707 6.4  16 6.4  C 16.8836555997293 6.4  17.6 7.11634440027073  17.6 8  Z " fill-rule="nonzero" fill="#000000" stroke="none" transform="matrix(1 0 0 1 726 158 )" />
  </g>
</svg>