<?xml version="1.0" encoding="utf-8"?>
<svg version="1.1" xmlns:xlink="http://www.w3.org/1999/xlink" width="32px" height="32px" xmlns="http://www.w3.org/2000/svg">
  <g transform="matrix(1 0 0 1 -771 -158 )">
    <path d="M 9.28057326495727 23.7406785641026  C 9.1549625982906 23.8668843760684  8.99000232478632 23.9300047863248  8.82507705982906 23.9300047863248  C 8.66106201709402 23.9300047863248  8.49704697435897 23.8676195555556  8.37161135042735 23.7427440683761  C 8.12003993162393 23.4923279316239  8.11912970940171 23.0853885811966  8.36954584615385 22.8338171623932  L 22.8623841367521 8.27533784615385  C 23.1129052991453 8.02373141880342  23.5198446495727 8.02289121367521  23.7713460512821 8.27327234188034  C 24.0229524786325 8.52368847863248  24.0238627008547 8.93066283760684  23.7734115555556 9.18223425641026  L 9.28057326495727 23.7406785641026  Z M 23.7868548376068 23.7557322393162  C 23.6614192136752 23.8806077264957  23.4973691623932 23.943027965812  23.3333191111111 23.943027965812  C 23.1683588376068 23.943027965812  23.0034685811966 23.8799075555556  22.8778929230769 23.7538417777778  L 8.35435213675214 9.1693161025641  C 8.10390099145299 8.91777969230769  8.1047411965812 8.51084034188034  8.35627760683761 8.26035418803419  C 8.60777900854701 8.00986803418803  9.01475336752137 8.01074324786325  9.26523952136752 8.26227965811966  L 23.7887452991453 22.8467703247863  C 24.0392314529915 23.0983417435897  24.0383912478632 23.5052810940171  23.7868548376068 23.7557322393162  Z M 22.1446389059829 30.6817181538462  C 20.1846153846154 31.5107905641026  18.1029021538462 31.9311381880342  15.9573683418803 31.9311381880342  C 13.8118345299145 31.9311381880342  11.7301563076923 31.5107905641026  9.77013278632479 30.6817531623932  C 7.87732567521368 29.8811427008547  6.17748567521368 28.7351379145299  4.71797935042735 27.2755615726496  C 3.25843801709402 25.8159852307692  2.11243323076923 24.1161802393162  1.31185777777778 22.2233381196581  C 0.482855384615385 20.2633145982906  0.0624727521367524 18.1816013675214  0.0624727521367524 16.0360675555556  C 0.0624727521367524 13.8905687521367  0.482820376068376 11.8088905299145  1.31185777777778 9.84890201709401  C 2.11246823931624 7.95605989743589  3.25843801709402 6.2562549059829  4.71797935042735 4.79671357264957  C 6.17752068376068 3.33717223931623  7.87732567521368 2.19116745299145  9.77013278632479 1.39055699145299  C 11.7301563076923 0.561519589743585  13.8118345299145 0.141171965811961  15.9573683418803 0.141171965811961  C 18.1029021538462 0.141171965811961  20.1846153846154 0.56151958974359  22.1446389059829 1.39052198290598  C 24.037481025641 2.19113244444444  25.737286017094 3.33713723076923  27.1968623589744 4.79667856410256  C 28.6564036923077 6.2562198974359  29.8024434871795 7.9560598974359  30.603053948718 9.84886700854701  C 31.4320913504273 11.8088555213675  31.852438974359 13.8905337435897  31.852438974359 16.0360325470085  C 31.852438974359 18.1815663589744  31.4320913504273 20.2632795897436  30.603053948718 22.2233031111111  C 29.8024434871795 24.1161452307692  28.6564387008547 25.8159502222222  27.1968623589744 27.2755265641026  C 25.737286017094 28.7350678974359  24.037481025641 29.8811076923077  22.1446389059829 30.6817181538462  Z M 21.6439116581197 2.57447603418803  C 19.843142017094 1.81279507692308  17.9299249230769 1.42661579487179  15.9573683418803 1.42661579487179  C 13.9848117606838 1.42661579487179  12.0715946666667 1.81279507692308  10.270860034188 2.57444102564103  C 8.53128533333333 3.31025066666667  6.96881887179487 4.36372786324786  5.62690625641026 5.70564047863248  C 4.28499364102564 7.04755309401709  3.23151644444444 8.61001955555556  2.49574181196581 10.3496292649573  C 1.73409586324786 12.1503638974359  1.34791658119658 14.063545982906  1.34791658119658 16.0361025641026  C 1.34791658119658 18.0086591452991  1.73409586324786 19.9219112478633  2.49574181196581 21.7226108717949  C 3.23151644444444 23.4622205811966  4.28499364102564 25.024687042735  5.62690625641026 26.3666346666667  C 6.96881887179487 27.7085472820513  8.53125032478633 28.7620594871795  10.270895042735 29.4978341196581  C 12.0715946666667 30.2594800683761  13.9848117606838 30.6456593504274  15.9573683418803 30.6456593504274  C 17.9299249230769 30.6456593504274  19.843142017094 30.2594800683761  21.6439116581197 29.4978341196581  C 23.3835213675214 28.7620244786325  24.9459878290598 27.7085472820513  26.2879354529915 26.3666346666667  C 27.6298480683761 25.024687042735  28.6833602735043 23.4622205811966  29.4191349059829 21.7226108717949  C 30.1807808547009 19.9218762393162  30.5669601367521 18.0086591452991  30.5669601367521 16.0361025641026  C 30.5669601367521 14.063580991453  30.1807808547009 12.1503638974359  29.4191349059829 10.3496642735043  C 28.6833252649573 8.61005456410256  27.6298480683761 7.0475881025641  26.2879354529915 5.70567548717949  C 24.9459878290598 4.36376287179487  23.3835213675214 3.31025066666667  21.6439116581197 2.57447603418803  Z " fill-rule="nonzero" fill="#000000" stroke="none" transform="matrix(1 0 0 1 771 158 )" />
  </g>
</svg>