<?xml version="1.0" encoding="utf-8"?>
<svg version="1.1" xmlns:xlink="http://www.w3.org/1999/xlink" width="32px" height="32px" xmlns="http://www.w3.org/2000/svg">
  <g transform="matrix(1 0 0 1 -820 -158 )">
    <path d="M 32 16  C 32 24.8365714375  24.8365714375 32  16 32  C 7.1634285625 32  0 24.8365714375  0 16  C 0 7.1634285625  7.1634285625 0  16 0  C 24.8365714375 0  32 7.1634285625  32 16  Z M 29.71428571875 15.99885715625  C 29.71428571875 8.42514284375  23.57371428125 2.2845714375  16 2.2845714375  C 8.42514284375 2.2845714375  2.28571428125 8.42514284375  2.28571428125 15.99885715625  C 2.28571428125 23.57371428125  8.42514284375 29.71314284375  16 29.71314284375  C 23.57371428125 29.71314284375  29.71428571875 23.57371428125  29.71428571875 15.99885715625  Z M 14.85714284375 25.14171428125  L 14.85714284375 22.85714284375  L 17.14285715625 22.85714284375  L 17.14285715625 25.14171428125  L 14.85714284375 25.14171428125  Z M 17 20  C 17.14285715625 20.3154285625  16.88685715625 20.5714285625  16.5714285625 20.5714285625  L 15.4285714375 20.5714285625  C 15.11314284375 20.5714285625  14.85714284375 20.3154285625  15 20  L 15 7.4274285625  C 14.85714284375 7.112  15.11314284375 6.856  15.4285714375 6.856  L 16.5714285625 6.856  C 16.88685715625 6.856  17.14285715625 7.112  17 7.4274285625  L 17 20  Z " fill-rule="nonzero" fill="#000000" stroke="none" transform="matrix(1 0 0 1 820 158 )" />
  </g>
</svg>