<?xml version="1.0" encoding="utf-8"?>
<svg version="1.1" xmlns:xlink="http://www.w3.org/1999/xlink" width="32px" height="23px" xmlns="http://www.w3.org/2000/svg">
  <g transform="matrix(1 0 0 1 -1044 -163 )">
    <path d="M 16.0006530612245 0.0742803745370952  C 16.9778045863497 0.0742803745370952  17.899065602794 0.532799847618354  18.4920816326531 1.31428564492186  L 31.0961632653061 17.9321133393138  C 31.5130787874608 18.4818397898842  31.7389133446783 19.1541963929961  31.7389133446783 19.8457144521875  C 31.7389133446783 21.587778256856  30.3354630910866 23  28.6042194671272 23  C 28.603302773873 23  28.6023860806566 22.9999995953775  28.6014693877551 23  L 3.39722448979592 23  C 1.66584394968371 22.9999987891413  0.262393696092076 21.5877770459973  0.262393696092076 19.8457132413288  C 0.262393696092076 19.1541957035894  0.48822791318009 18.4818395779357  0.905142857142857 17.9321133393138  L 13.5092244897959 1.31428564492186  C 14.102240519655 0.532799847618353  15.0235015360993 0.0742803745370952  16.0006530612245 0.0742803745370952  Z " fill-rule="nonzero" fill="#000000" stroke="none" transform="matrix(1 0 0 1 1044 163 )" />
  </g>
</svg>