<?xml version="1.0" encoding="utf-8"?>
<svg version="1.1" xmlns:xlink="http://www.w3.org/1999/xlink" width="24px" height="33px" xmlns="http://www.w3.org/2000/svg">
  <g transform="matrix(1 0 0 1 -1168 -158 )">
    <path d="M 23.425719625463 16.5006530612245  C 23.425719625463 17.4778045863497  22.9672001523816 18.3990656027941  22.1857143550781 18.992081632653  L 5.5678866606861 31.5961632653061  C 5.01816021011587 32.0130787874609  4.34580360700375 32.2389133446782  3.65428554781238 32.2389133446782  C 1.91222174314407 32.2389133446782  0.5 30.8354630910867  0.5 29.1042194671272  C 0.5 29.1033027738729  0.500000404622597 29.1023860806565  0.500001213867563 29.1014693877551  L 0.500001213867563 3.89722448979592  C 0.500001210858727 2.16584394968368  1.91222295400257 0.762393696091976  3.65428675867111 0.762393696091976  C 4.34580429641073 0.762393696091976  5.01816042206428 0.988227913180026  5.5678866606861 1.40514285714289  L 22.1857143550781 14.009224489796  C 22.9672001523816 14.602240519655  23.425719625463 15.5235015360993  23.425719625463 16.5006530612245  Z " fill-rule="nonzero" fill="#000000" stroke="none" transform="matrix(1 0 0 1 1168 158 )" />
  </g>
</svg>