<?xml version="1.0" encoding="utf-8"?>
<svg version="1.1" xmlns:xlink="http://www.w3.org/1999/xlink" width="32px" height="32px" xmlns="http://www.w3.org/2000/svg">
  <g transform="matrix(1 0 0 1 -1209 -161 )">
    <path d="M 16.7886022264151 23.8860223396226  C 16.7886022264151 24.3197535849057  16.4337312075472 24.6746245660377  16 24.6746245660377  C 15.566268754717 24.6746245660377  15.2113977735849 24.3197535471698  15.2113977735849 23.8860223396226  L 15.2113977735849 8.11397766037736  C 15.2113977735849 7.68024641509434  15.5662687924528 7.32537543396226  16 7.32537543396226  C 16.4337312075472 7.32537543396226  16.7886022264151 7.68024645283019  16.7886022264151 8.11397766037736  L 16.7886022264151 23.8860223396226  Z M 16.5717366037736 24.4380438867925  C 16.3943010943396 24.5957643396226  16.1971505283019 24.6746245660377  16 24.6746245660377  C 15.8028494339623 24.6746245660377  15.6056988679245 24.5957643396226  15.4479784528302 24.4380438867925  C 15.1325375471698 24.1226029811321  15.1325375471698 23.6297266037736  15.4479784528302 23.3142856981132  L 21.8356565283019 16.9266076226415  C 22.1510974339623 16.6111667169811  22.6439738113208 16.6111667169811  22.9594147169811 16.9266076226415  C 23.2748556226415 17.2420485283019  23.2748556226415 17.7349249056604  22.9594147169811 18.0503658113208  L 16.5717366037736 24.4380438867925  Z M 16.5717366037736 24.4380438867925  C 16.3943010943396 24.5957643396226  16.1971505283019 24.6746245660377  16 24.6746245660377  C 15.8028494339623 24.6746245660377  15.6056988679245 24.5957643396226  15.4479784528302 24.4380438867925  L 9.06030033962264 18.0503658113208  C 8.74485943396226 17.7349249056604  8.74485943396226 17.2420485283019  9.06030033962264 16.9266076226415  C 9.37574124528302 16.6111667169811  9.86861762264151 16.6111667169811  10.1840585283019 16.9266076226415  L 16.5717366037736 23.3142856981132  C 16.887177509434 23.6297266037736  16.887177509434 24.1226029811321  16.5717366037736 24.4380438867925  Z M 31.7720446792453 16  C 31.7720446792453 24.6943396226415  24.6943396226415 31.7720446792453  16 31.7720446792453  C 7.30566037735849 31.7720446792453  0.227955320754717 24.6943396226415  0.227955320754717 16  C 0.227955320754717 7.30566037735849  7.30566037735849 0.227955320754717  16 0.227955320754717  C 24.6943396226415 0.227955320754717  31.7720446792453 7.30566037735849  31.7720446792453 16  Z M 30.1948401886792 16  C 30.1948401886792 8.17312283018868  23.8268771698113 1.80515981132076  16 1.80515981132076  C 8.17312283018868 1.80515981132076  1.80515981132075 8.17312283018868  1.80515981132075 16  C 1.80515981132075 23.8268771698113  8.17312283018868 30.1948401886793  16 30.1948401886793  C 23.8268771698113 30.1948401886793  30.1948401886792 23.8268771698113  30.1948401886792 16  Z " fill-rule="nonzero" fill="#000000" stroke="none" transform="matrix(1 0 0 1 1209 161 )" />
  </g>
</svg>