<?xml version="1.0" encoding="utf-8"?>
<svg version="1.1" xmlns:xlink="http://www.w3.org/1999/xlink" width="36px" height="32px" xmlns="http://www.w3.org/2000/svg">
  <g transform="matrix(1 0 0 1 -1243 -91 )">
    <path d="M 30.4594185764102 10.6666456456053  C 30.4544271963404 10.6666456456053  30.4494358187299 10.6666526526327  30.4444444583333 10.6666666666667  C 28.1897690511619 10.6730033147336  26.1826636636671 12.0964823073964  25.431111125 14.2222222083333  L 2 14.2222222083333  C 1.01816043707463 14.2222222083333  0.222222208333334 15.0181604370746  0.222222208333334 16  C 0.222222208333334 16.9818395629254  1.01816043707463 17.7777777916667  2 17.7777777916667  L 25.431111125 17.7777777916667  C 26.1845092984112 19.9086812561759  28.1992507988422 21.333312312272  30.4594185764102 21.333312312272  C 33.4049372421744 21.333312312272  35.7927519097435 18.9454976447029  35.7927519097435 15.9999789789387  C 35.7927519097435 13.0544603131745  33.4049372421744 10.6666456456053  30.4594185764102 10.6666456456053  Z M 2 7.111111125  L 4.09777779166667 7.111111125  C 4.8633335180281 9.22036168366375  6.86722755195346 10.6248474333486  9.111111125 10.6248474333486  C 11.3549946980465 10.6248474333486  13.3588887319719 9.22036168366375  14.1244444583333 7.111111125  L 34 7.111111125  C 34.9818395629254 7.111111125  35.7777777916667 6.3151728962587  35.7777777916667 5.33333333333334  C 35.7777777916667 4.35149377040797  34.9818395629254 3.55555554166667  34 3.55555554166667  C 34 3.55555554166667  34 3.55555554166667  34 4  L 14.1244444583333 4  C 13.3588887319719 1.44630498300292  11.3549946980465 0.0418192333180798  9.111111125 0.0418192333180798  C 6.86722755195346 0.0418192333180798  4.8633335180281 1.44630498300292  4.09777779166667 3.55555554166667  L 2 3.55555554166667  C 1.01816043707463 3.55555554166667  0.222222208333334 4.35149377040797  0.222222208333334 5.33333333333334  C 0.222222208333334 6.3151728962587  1.01816043707463 7.111111125  2 7.111111125  Z M 34 24.888888875  L 21.2355555416667 24.888888875  C 20.4699998153052 22.7796383163363  18.4661057813799 21.3751525666514  16.2222222083333 21.3751525666514  C 13.9783386352868 21.3751525666514  11.9744446013614 22.7796383163363  11.208888875 24.888888875  L 2 24.888888875  C 1.01816043707464 24.888888875  0.22222220833333 25.6848271037413  0.22222220833333 26.6666666666667  C 0.22222220833333 27.648506229592  1.01816043707463 28.4444444583333  2 28.4444444583333  L 11.208888875 28.4444444583333  C 11.9744446013614 30.5536950169971  13.9783386352868 31.9581807666819  16.2222222083333 31.9581807666819  C 18.4661057813799 31.9581807666819  20.4699998153052 30.5536950169971  21.2355555416667 28  L 34 28  L 34 28.4444444583333  C 34.9818395629254 28.4444444583333  35.7777777916667 27.648506229592  35.7777777916667 26.6666666666667  C 35.7777777916667 25.6848271037413  34.9818395629254 24.888888875  34 24.888888875  Z " fill-rule="nonzero" fill="#000000" stroke="none" transform="matrix(1 0 0 1 1243 91 )" />
  </g>
</svg>