<?xml version="1.0" encoding="utf-8"?>
<svg version="1.1" xmlns:xlink="http://www.w3.org/1999/xlink" width="32px" height="32px" xmlns="http://www.w3.org/2000/svg">
  <g transform="matrix(1 0 0 1 -1303 -91 )">
    <path d="M 27.5745121132075 25.6424366415094  L 13.9299191320755 22.4931536226415  L 13.9299191320755 29.5148679245283  L 17.5815417735849 25.861865245283  C 17.7111103956 25.7322966182638  17.8868431618743 25.6595057211318  18.0700808679245 25.6595057211318  C 18.4516536281757 25.6595057211318  18.7609794675475 25.9688315605035  18.7609794675475 26.3504043207547  C 18.7609794675475 26.5336420175586  18.6881885777411 26.7093747757453  18.5586199622641 26.8389433962264  L 13.7284312830189 31.6691320754717  C 13.5989762551537 31.7989153784853  13.4232004128559 31.8718545383546  13.2398910841771 31.8718545383546  C 12.858799726367 31.8718545383546  12.5498641407808 31.5629189527685  12.5498641407808 31.1818275949584  C 12.5498641407808 31.1814160567696  12.5498645089484 31.1810045186622  12.549865245283 31.1805929811321  L 12.549865245283 21.5202156226415  C 12.5500108345019 21.3537970151121  12.610295615017 21.1930375825362  12.7196118490566 21.0675579622642  L 22.2212830188679 10.1292506792453  C 22.3523623121589 9.97838959912321  22.5424013155096 9.89175686134989  22.7422533773585 9.89175686134989  C 23.1234135243022 9.89175686134989  23.4324048744992 10.2007482115469  23.4324048744992 10.5819083584906  C 23.4324048744992 10.7482521451642  23.3723255674679 10.9089991404168  23.2632237358491 11.0345660377359  L 14.4363989056604 21.1945229056604  L 27.1535956981132 24.128517509434  L 30.2945983773585 2.14425875471698  L 2.65487871698113 18.4758167169811  L 8.77403773584906 19.8876118490566  C 9.08732003994105 19.9599077613305  9.30923976639094 20.2388721900311  9.30923976639094 20.5603881320755  C 9.30923976639094 20.9417176040034  9.00011115117317 21.2508462192211  8.61878167924528 21.2508462192211  C 8.56652730702589 21.2508462192211  8.51444182301304 21.2449143068287  8.46352562264151 21.2331644150943  L 0.663460905660378 19.4321940754717  C 0.350874805673602 19.3595497007789  0.129632245052479 19.0809948557942  0.129632245052479 18.7600785503819  C 0.129632245052479 18.5165142765982  0.258038298827094 18.2909914428878  0.467493245283019 18.1666846415094  L 30.828679245283 0.225983811320752  C 30.9348183455785 0.163448423639458  31.0557637794373 0.130468243301826  31.1789554322551 0.130468243301826  C 31.5600467900652 0.130468243301826  31.8689823756514 0.439403828887961  31.8689823756514 0.820495186698053  C 31.8689823756514 0.852449123670772  31.8667627827448 0.884364469716093  31.8623396226415 0.916010792452827  L 28.4122048679245 25.0669541886792  C 28.3638920436137 25.407149196563  28.0726411978119 25.6599603815272  27.7290327398515 25.6599603815272  C 27.6770300949245 25.6599603815272  27.6251941128487 25.6540818118295  27.5745121132075 25.6424366415094  Z " fill-rule="nonzero" fill="#333333" stroke="none" transform="matrix(1 0 0 1 1303 91 )" />
  </g>
</svg>