<?xml version="1.0" encoding="utf-8"?>
<svg version="1.1" xmlns:xlink="http://www.w3.org/1999/xlink" width="32px" height="32px" xmlns="http://www.w3.org/2000/svg">
  <g transform="matrix(1 0 0 1 -1360 -91 )">
    <path d="M 27.2283046728972 27.2704241509434  C 33.385700635514 21.0549781509434  33.385700635514 10.9427435471698  27.2283046728972 4.72953720754717  C 21.0710234766355 -1.48590879245283  11.0532191775701 -1.48590879245283  4.89808022429907 4.72953720754717  C -1.2592774953271 10.942743509434  -1.2592774953271 21.0549781509434  4.89808022429907 27.2704241509434  C 11.0532191775701 33.4858701509434  21.0710234392523 33.4858701509434  27.2283046728972 27.2704241509434  Z M 25.6257880373832 6.34605211320755  C 30.8974407850467 11.667476  30.8974407850467 20.3302070566038  25.6257880373832 25.6515923773585  C 20.3519548037383 30.975256  11.7712167102804 30.975256  6.49952571962617 25.6515923773585  C 1.22557771962617 20.3301684528302  1.22557771962617 11.6696770943396  6.49952571962617 6.34605211320755  C 11.7712167102804 1.02462818867925  20.3519547663551 1.02238849056604  25.6257880373832 6.34605211320755  Z M 17.1133723738318 23.9651450943396  C 17.1133341308411 23.1951941132075  16.4915082616822 22.5675791698113  15.7266107663551 22.5675791698113  C 14.962784411215 22.5698960754717  14.3410733084112 23.1974724150943  14.3410733084112 23.9674234339623  C 14.3410733084112 24.7394596981132  14.962784411215 25.3670746037736  15.7277201495327 25.3670746037736  C 16.4915465046729 25.3670746037736  17.1133723738318 24.7394596603774  17.1133723738318 23.9651450943396  Z M 22.2428716261682 11.8886646037736  C 22.2429098691589 8.82500169811321  19.6417994392523 6.68470852830189  15.9189540934579 6.68470852830189  C 13.2138297943925 6.68470852830189  10.8239986168224 8.25604347169811  9.97750441121495 10.5972908301887  C 9.78068534579439 11.1447789433962  9.61064437383178 12.0546719245283  9.78068534579439 12.8143898867925  C 9.89464530841122 13.3358898867925  10.442716635514 13.6813426037736  10.9515389158879 13.5639520377358  C 11.4792971214953 13.4442831320755  11.811460411215 12.9137471320755  11.6929481495327 12.3831725283019  C 11.6347631401869 12.1110889433962  11.6906911401869 11.6234545660377  11.8181931588785 11.2724026037736  C 12.2867334953271 9.97647218867924  13.7349699813084 8.6669877735849  15.9156641869159 8.6669877735849  C 18.4831872523365 8.6669877735849  20.2758666915888 9.99118460377358  20.2758666915888 11.8887032075472  C 20.2758666915888 13.3065422264151  19.404736635514 13.8191220754717  17.8636948785047 14.6069906415094  C 16.4691676261682 15.3182077735849  14.7324161495327 16.2009927924528  14.7324161495327 18.4292516603774  L 14.7324162242991 20.4521156603774  C 14.7324162242991 20.9984839245283  15.172954317757 21.4432552830189  15.7120358504673 21.4432552830189  C 16.2521885233645 21.4432552830189  16.6928031028037 20.9984839245283  16.6928031028037 20.4521156603774  L 16.6928031028037 18.4292130566038  C 16.6950601121495 17.4629803018868  17.4007014579439 17.0587550566038  18.7504710280374 16.3724448301887  C 20.3060112149533 15.5811781509434  22.2428716261682 14.5979160377358  22.2428716261682 11.8886646037736  Z " fill-rule="nonzero" fill="#333333" stroke="none" transform="matrix(1 0 0 1 1360 91 )" />
  </g>
</svg>