<?xml version="1.0" encoding="utf-8"?>
<svg version="1.1" xmlns:xlink="http://www.w3.org/1999/xlink" width="16px" height="16px" xmlns="http://www.w3.org/2000/svg">
  <g transform="matrix(1 0 0 1 -308 -8 )">
    <path d="M 10.9988571428571 0.603428571428571  C 11.9740952380952 0.987428571428569  12.8518095238095 1.56952380952381  13.632 2.34971428571429  C 14.4121904761905 3.12990476190476  14.9942857142857 4.00761904761905  15.3782857142857 4.98285714285714  C 15.7622857142857 5.95809523809524  15.9542857142857 6.95771428571429  15.9542857142857 7.98171428571429  C 15.9542857142857 9.00571428571429  15.7622857142857 10.0053333333333  15.3782857142857 10.9805714285714  C 14.9942857142857 11.9558095238095  14.4121904761905 12.8335238095238  13.632 13.6137142857143  C 12.8518095238095 14.3939047619048  11.9740952380952 14.9790476190476  10.9988571428571 15.3691428571429  C 10.023619047619 15.7592380952381  9.024 15.9542857142857  8 15.9542857142857  C 6.976 15.9542857142857  5.97333333333333 15.7592380952381  4.992 15.3691428571429  C 4.01066666666667 14.9790476190476  3.12990476190476 14.3939047619048  2.34971428571429 13.6137142857143  C 1.56952380952381 12.8335238095238  0.984380952380952 11.9558095238095  0.594285714285715 10.9805714285714  C 0.204190476190478 10.0053333333333  0.00914285714285867 9.00571428571429  0.00914285714285766 7.98171428571429  C 0.00914285714285664 6.95771428571429  0.204190476190476 5.95809523809524  0.594285714285715 4.98285714285714  C 0.984380952380954 4.00761904761904  1.56952380952381 3.12990476190476  2.34971428571429 2.34971428571429  C 3.12990476190476 1.56952380952381  4.01066666666667 0.987428571428574  4.992 0.603428571428571  C 5.97333333333334 0.219428571428569  6.976 0.0274285714285687  8 0.0274285714285709  C 9.024 0.0274285714285735  10.023619047619 0.219428571428573  10.9988571428571 0.603428571428571  Z M 10.8068571428571 12.0228571428571  C 11.1664761904762 12.0228571428571  11.4742857142857 11.8948571428571  11.7302857142857 11.6388571428571  C 11.9862857142857 11.3828571428571  12.0990476190476 11.0902857142857  12.0685714285714 10.7611428571429  C 12.0380952380952 10.432  11.8948571428571 10.1394285714286  11.6388571428571 9.88342857142857  L 9.71885714285714 7.96342857142857  L 11.6388571428571 6.04342857142857  C 11.8948571428571 5.78742857142857  12.0380952380952 5.49485714285714  12.0685714285714 5.16571428571428  C 12.0990476190476 4.83657142857143  11.9862857142857 4.544  11.7302857142857 4.288  C 11.4742857142857 4.032  11.1664761904762 3.904  10.8068571428571 3.904  C 10.4472380952381 3.904  10.1394285714286 4.032  9.88342857142857 4.288  L 7.96342857142857 6.18971428571428  L 6.09828571428571 4.32457142857143  C 5.84228571428571 4.0807619047619  5.54971428571429 3.94361904761905  5.22057142857143 3.91314285714286  C 4.89142857142857 3.88266666666667  4.59885714285714 3.98933333333333  4.34285714285714 4.23314285714286  C 4.08685714285714 4.48914285714286  3.95885714285714 4.8  3.95885714285714 5.16571428571428  C 3.95885714285714 5.53142857142857  4.08685714285714 5.84228571428571  4.34285714285714 6.09828571428571  L 6.208 7.96342857142857  L 4.34285714285714 9.82857142857143  C 4.08685714285714 10.0845714285714  3.95885714285714 10.392380952381  3.95885714285714 10.752  C 3.95885714285714 11.111619047619  4.08685714285714 11.4194285714286  4.34285714285714 11.6754285714286  C 4.59885714285714 11.9314285714286  4.89142857142857 12.0441904761905  5.22057142857143 12.0137142857143  C 5.54971428571429 11.9832380952381  5.84228571428571 11.84  6.09828571428571 11.584  L 7.96342857142857 9.71885714285714  L 9.88342857142857 11.6388571428571  C 10.1394285714286 11.8948571428571  10.4472380952381 12.0228571428571  10.8068571428571 12.0228571428571  Z " fill-rule="nonzero" fill="#aaaaaa" stroke="none" transform="matrix(1 0 0 1 308 8 )" />
  </g>
</svg>