<?xml version="1.0" encoding="utf-8"?>
<svg version="1.1" xmlns:xlink="http://www.w3.org/1999/xlink" width="10px" height="10px" xmlns="http://www.w3.org/2000/svg">
  <g transform="matrix(1 0 0 1 0 2 )">
    <path d="M 10 5  C 10 2.24286290178571  7.75713709821429 0  5 0  C 2.24320848214286 0  0 2.24286290178571  0 5  C 0 7.75713709821429  2.24286290178571 10  5 10  C 7.75679151785714 10  10 7.75713709821429  10 5  Z M 5.50607637276786 5.001420703125  L 7.03964521205357 6.54000037946428  C 7.17893140625 6.67999691964286  7.17856662946429 6.90571543526786  7.03893486607143 7.04500162946428  C 6.96930137276786 7.11428955357143  6.87822297991072 7.14928868303571  6.78679901785714 7.14928868303571  C 6.69501027901786 7.14928868303571  6.60358631696429 7.11428954241071  6.53393361607143 7.04429127232143  L 4.99821453125 5.50392611607143  L 3.45750379464286 7.02822200892857  C 3.38787030133929 7.09679957589286  3.29713748883929 7.13143393973214  3.20642387276786 7.13143393973214  C 3.11428955357143 7.13143393973214  3.02250082589286 7.09607003348214  2.95250254464286 7.02536140625  C 2.81392669642857 6.88500008928571  2.81500181919643 6.65928157366071  2.95536314732143 6.52036015625  L 4.49428840401786 4.99821452008928  L 2.96106514508929 3.459999609375  C 2.82177895089286 3.32034863839286  2.82214372767857 3.09428455357143  2.96177549107143 2.954998359375  C 3.10142646205357 2.81534738839286  3.32712577008929 2.81607694196429  3.46677674107143 2.95570870535714  L 5.00213104910714 4.49570908482143  L 6.54284178571429 2.97143238839286  C 6.68283832589286 2.83251097098214  6.9092671875 2.83393166294643  7.04784303571429 2.97429299107143  C 7.186764453125 3.11465430803571  7.18534376116072 3.34071839285714  7.04498243303571 3.47929424107143  L 5.50607637276786 5.001420703125  Z " fill-rule="nonzero" fill="#aaaaaa" stroke="none" transform="matrix(1 0 0 1 0 -2 )" />
  </g>
</svg>