<?xml version="1.0" encoding="utf-8"?>
<svg version="1.1" xmlns:xlink="http://www.w3.org/1999/xlink" width="13px" height="12px" xmlns="http://www.w3.org/2000/svg">
  <g transform="matrix(1 0 0 1 1 1 )">
    <path d="M 12.9680792079208 10.1943998456762  C 12.9671708456055 11.1912395437743  12.1352963383327 11.9991176587999  11.1088475247525 11.9999998183428  L 1.95437623762376 11.9999998183428  C 0.927283758488712 12.0004422493224  0.0940371670613763 11.1926638606986  0.0926732673267328 10.195199845664  L 0.092673267326733 2.98399995482791  C 0.0940371670613772 1.98653593979339  0.927283758488711 1.17875755116957  1.95437623762376 1.17919998214915  L 2.6273900990099 1.17919998214915  C 2.90036093773815 1.17919998214915  3.12164752475248 1.39410329897714  3.12164752475248 1.65919997488286  C 3.12164752475248 1.92429665078858  2.90036093773815 2.13919996761658  2.6273900990099 2.13919996761658  L 1.95437623762376 2.13919996761658  C 1.95382654523444 2.13919895752122  1.95327685198431 2.13919845247321  1.95272715861098 2.13919845247321  C 1.47203124356051 2.13919845247321  1.08209594624671 2.51717110768296  1.08118811881188 2.98399995482791  L 1.08118811881188 10.1943998456762  C 1.08164190689754 10.6615416448239  1.47171080557658 11.0400013458761  1.95272832504065 11.0400013458761  C 1.95327762960331 11.0400013458761  1.95382693404302 11.0400008415423  1.95437623762376 11.0399998328754  L 11.1088475247525 11.0399998328754  C 11.5889001661854 11.0391193678926  11.9778339766377 10.6614048076905  11.9787405940594 10.195199845664  L 11.9787405940594 2.98399995482791  C 11.9778339766377 2.51779499280145  11.5889001661854 2.14008043259932  11.1088475247525 2.13919996761658  L 10.4860831683168 2.13919996761658  C 10.2131123295886 2.13919996761658  9.99182574257425 1.92429665078858  9.99182574257425 1.65919997488286  C 9.99182574257425 1.39410329897714  10.2131123295886 1.17919998214915  10.4860831683168 1.17919998214915  L 11.1088475247525 1.17919998214915  C 12.1349751274497 1.18008137760638  12.9667168894879 1.98747269036858  12.9680792079208 2.98399995482791  L 12.9680792079208 10.1943998456762  Z M 8.02385742574258 2.13919996761658  L 4.97593663366337 2.13919996761658  C 4.70296579493512 2.13919996761658  4.48167920792079 1.92429665078858  4.48167920792079 1.65919997488286  C 4.48167920792079 1.39410329897714  4.70296579493512 1.17919998214915  4.97593663366337 1.17919998214915  L 8.02385742574257 1.17919998214915  C 8.29682826447083 1.17919998214915  8.51811485148515 1.39410329897714  8.51811485148515 1.65919997488286  C 8.51811485148515 1.92429665078858  8.29682826447083 2.13919996761658  8.02385742574257 2.13919996761658  Z M 12.3230732673267 5.53599991619548  L 0.740150495049505 5.53599991619548  C 0.467179656321255 5.53599991619548  0.245893069306931 5.32109659936749  0.245893069306931 5.05599992346177  C 0.245893069306931 4.79090324755605  0.467179656321255 4.57599993072805  0.740150495049505 4.57599993072805  L 12.3230732673267 4.57599993072805  C 12.596044106055 4.57599993072805  12.8173306930693 4.79090324755605  12.8173306930693 5.05599992346177  C 12.8173306930693 5.32109659936749  12.596044106055 5.53599991619548  12.3230732673267 5.53599991619548  Z M 4.28068118811881 2.93759995553032  C 4.28068118811881 3.20269663143604  4.05939460110449 3.41759994826403  3.78642376237624 3.41759994826403  C 3.51345292364799 3.41759994826403  3.29216633663366 3.20269663143604  3.29216633663366 2.93759995553032  L 3.29216633663366 0.59999999091714  C 3.29216633663366 0.334903315011419  3.51345292364799 0.119999998183428  3.78642376237624 0.119999998183428  C 4.05939460110449 0.119999998183428  4.28068118811881 0.334903315011419  4.28068118811881 0.59999999091714  L 4.28068118811881 2.93759995553032  Z M 9.77105742574257 2.93759995553032  C 9.77105742574257 3.20269663143604  9.54977083872825 3.41759994826403  9.2768 3.41759994826403  C 9.00382916127175 3.41759994826403  8.78254257425742 3.20269663143604  8.78254257425743 2.93759995553032  L 8.78254257425742 0.59999999091714  C 8.78254257425742 0.33490331501142  9.00382916127175 0.119999998183427  9.2768 0.119999998183427  C 9.54977083872825 0.119999998183427  9.77105742574257 0.334903315011419  9.77105742574257 0.59999999091714  L 9.77105742574257 2.93759995553032  Z " fill-rule="nonzero" fill="#d7d7d7" stroke="none" transform="matrix(1 0 0 1 -1 -1 )" />
  </g>
</svg>