<?xml version="1.0" encoding="utf-8"?>
<svg version="1.1" xmlns:xlink="http://www.w3.org/1999/xlink" width="16px" height="16px" xmlns="http://www.w3.org/2000/svg">
  <g>
    <path d="M 15.8649122807018 7.99649122807018  C 15.8649122807018 3.66842105263158  12.3245614035088 0.128070175438596  7.99649122807018 0.128070175438596  C 3.66842105263158 0.128070175438596  0.128070175438597 3.66842105263158  0.128070175438597 7.99649122807018  C 0.128070175438597 12.3245614035088  3.66842105263158 15.8649122807018  7.99649122807018 15.8649122807018  C 12.3245614035088 15.8649122807018  15.8649122807018 12.3245614035088  15.8649122807018 7.99649122807018  Z M 12.359649122807 4.44385964912281  C 12.6666666666667 4.75087719298246  12.6666666666667 5.21052631578947  12.4368421052632 5.51578947368421  L 6.84561403508772 11.719298245614  L 3.62982456140351 8.42631578947368  C 3.32280701754386 8.11929824561403  3.32280701754386 7.65964912280702  3.62982456140351 7.35438596491228  C 3.93684210526316 7.04912280701754  4.39649122807017 7.04736842105263  4.70175438596491 7.35438596491228  L 6.84561403508772 9.49824561403509  L 11.2877192982456 4.52105263157895  C 11.5947368421053 4.2140350877193  12.0543859649123 4.2140350877193  12.359649122807 4.44385964912281  Z " fill-rule="nonzero" fill="#70b603" stroke="none" />
  </g>
</svg>