<?xml version="1.0" encoding="utf-8"?>
<svg version="1.1" xmlns:xlink="http://www.w3.org/1999/xlink" width="24px" height="24px" xmlns="http://www.w3.org/2000/svg">
  <g transform="matrix(1 0 0 1 -678 -850 )">
    <path d="M 6.96042994871795 17.8055089230769  C 6.86622194871795 17.9001632820513  6.74250174358974 17.9475035897436  6.6188077948718 17.9475035897436  C 6.49579651282051 17.9475035897436  6.37278523076923 17.9007146666667  6.27870851282051 17.807058051282  C 6.09002994871795 17.6192459487179  6.08934728205128 17.3140414358974  6.27715938461539 17.1253628717949  L 17.1467881025641 6.20650338461538  C 17.334678974359 6.01779856410256  17.6398834871795 6.01716841025641  17.8285095384615 6.20495425641026  C 18.0172143589744 6.39276635897436  18.017897025641 6.69799712820513  17.8300586666667 6.88667569230769  L 6.96042994871795 17.8055089230769  Z M 17.8401411282051 17.8167991794872  C 17.7460644102564 17.9104557948718  17.6230268717949 17.957270974359  17.4999893333333 17.957270974359  C 17.3762691282051 17.957270974359  17.2526014358974 17.9099306666667  17.1584196923077 17.8153813333333  L 6.2657641025641 6.87698707692308  C 6.07792574358974 6.68833476923077  6.0785558974359 6.38313025641026  6.26720820512821 6.19526564102564  C 6.45583425641026 6.00740102564103  6.76106502564103 6.00805743589744  6.94892964102564 6.19670974358974  L 17.841558974359 17.1350777435897  C 18.0294235897436 17.3237563076923  18.0287934358974 17.6289608205128  17.8401411282051 17.8167991794872  Z M 16.6084791794872 23.0112886153846  C 15.1384615384615 23.6330929230769  13.5771766153846 23.9483536410256  11.9680262564103 23.9483536410256  C 10.3588758974359 23.9483536410256  8.79761723076923 23.6330929230769  7.32759958974359 23.0113148717949  C 5.90799425641026 22.410857025641  4.63311425641026 21.5513534358974  3.53848451282051 20.4566711794872  C 2.44382851282051 19.3619889230769  1.58432492307692 18.0871351794872  0.983893333333334 16.6675035897436  C 0.362141538461539 15.1974859487179  0.0468545641025643 13.636201025641  0.0468545641025643 12.0270506666667  C 0.0468545641025643 10.4179265641026  0.362115282051282 8.85666789743589  0.983893333333334 7.38667651282051  C 1.58435117948718 5.96704492307692  2.44382851282051 4.69219117948718  3.53848451282051 3.59753517948718  C 4.63314051282051 2.50287917948718  5.90799425641026 1.64337558974359  7.32759958974359 1.04291774358974  C 8.79761723076923 0.421139692307689  10.3588758974359 0.105878974358971  11.9680262564103 0.105878974358971  C 13.5771766153846 0.105878974358971  15.1384615384615 0.421139692307692  16.6084791794872 1.04289148717949  C 18.0281107692308 1.64334933333333  19.3029645128205 2.50285292307692  20.3976467692308 3.59750892307692  C 21.4923027692308 4.69216492307692  22.3518326153846 5.96704492307692  22.9522904615385 7.38665025641026  C 23.5740685128205 8.85664164102564  23.8893292307692 10.4179003076923  23.8893292307692 12.0270244102564  C 23.8893292307692 13.6361747692308  23.5740685128205 15.1974596923077  22.9522904615385 16.6674773333333  C 22.3518326153846 18.0871089230769  21.492329025641 19.3619626666667  20.3976467692308 20.4566449230769  C 19.3029645128205 21.5513009230769  18.0281107692308 22.4108307692308  16.6084791794872 23.0112886153846  Z M 16.2329337435897 1.93085702564102  C 14.8823565128205 1.35959630769231  13.4474436923077 1.06996184615385  11.9680262564103 1.06996184615385  C 10.4886088205128 1.06996184615385  9.053696 1.35959630769231  7.70314502564102 1.93083076923077  C 6.398464 2.482688  5.22661415384615 3.2727958974359  4.22017969230769 4.27923035897436  C 3.21374523076923 5.28566482051282  2.42363733333333 6.45751466666667  1.87180635897436 7.76222194871795  C 1.3005718974359 9.11277292307692  1.01093743589744 10.5476594871795  1.01093743589744 12.0270769230769  C 1.01093743589744 13.5064943589744  1.3005718974359 14.9414334358974  1.87180635897436 16.2919581538462  C 2.42363733333333 17.5966654358974  3.21374523076923 18.7685152820513  4.22017969230769 19.774976  C 5.22661415384615 20.7814104615385  6.39843774358974 21.5715446153846  7.70317128205128 22.1233755897436  C 9.053696 22.6946100512821  10.4886088205128 22.9842445128205  11.9680262564103 22.9842445128205  C 13.4474436923077 22.9842445128205  14.8823565128205 22.6946100512821  16.2329337435897 22.1233755897436  C 17.537641025641 21.5715183589744  18.7094908717949 20.7814104615385  19.7159515897436 19.774976  C 20.7223860512821 18.7685152820513  21.5125202051282 17.5966654358974  22.0643511794872 16.2919581538462  C 22.6355856410256 14.9414071794872  22.9252201025641 13.5064943589744  22.9252201025641 12.0270769230769  C 22.9252201025641 10.5476857435897  22.6355856410256 9.11277292307692  22.0643511794872 7.7622482051282  C 21.512493948718 6.45754092307692  20.7223860512821 5.28569107692308  19.7159515897436 4.27925661538461  C 18.7094908717949 3.27282215384615  17.537641025641 2.482688  16.2329337435897 1.93085702564102  Z " fill-rule="nonzero" fill="#ed4014" stroke="none" transform="matrix(1 0 0 1 678 850 )" />
  </g>
</svg>