<?xml version="1.0" encoding="utf-8"?>
<svg version="1.1" xmlns:xlink="http://www.w3.org/1999/xlink" width="16px" height="16px" xmlns="http://www.w3.org/2000/svg">
  <g transform="matrix(1 0 0 1 -24 -104 )">
    <path d="M 4.89285714285714 0.633928571428571  C 5.88095238095238 0.211309523809524  6.91666666666667 0  8 0  C 9.08333333333333 0  10.1190476190476 0.211309523809524  11.1071428571429 0.633928571428571  C 12.0952380952381 1.05654761904762  12.9464285714286 1.625  13.6607142857143 2.33928571428571  C 14.375 3.05357142857143  14.9434523809524 3.9047619047619  15.3660714285714 4.89285714285714  C 15.7886904761905 5.88095238095238  16 6.91666666666667  16 8  C 16 9.08333333333333  15.7886904761905 10.1190476190476  15.3660714285714 11.1071428571429  C 14.9434523809524 12.0952380952381  14.375 12.9464285714286  13.6607142857143 13.6607142857143  C 12.9464285714286 14.375  12.0952380952381 14.9434523809524  11.1071428571429 15.3660714285714  C 10.1190476190476 15.7886904761905  9.08333333333333 16  8 16  C 6.91666666666667 16  5.88095238095238 15.7886904761905  4.89285714285714 15.3660714285714  C 3.90476190476191 14.9434523809524  3.05357142857143 14.375  2.33928571428571 13.6607142857143  C 1.625 12.9464285714286  1.05654761904762 12.0952380952381  0.633928571428571 11.1071428571429  C 0.211309523809524 10.1190476190476  0 9.08333333333333  0 8  C 0 6.91666666666667  0.211309523809524 5.88095238095238  0.633928571428571 4.89285714285714  C 1.05654761904762 3.9047619047619  1.625 3.05357142857143  2.33928571428571 2.33928571428571  C 3.05357142857143 1.625  3.90476190476191 1.05654761904762  4.89285714285714 0.633928571428571  Z M 11.2232142857143 1.94642857142857  C 10.2053571428571 1.41071428571429  9.13095238095238 1.14285714285714  8 1.14285714285714  C 6.86904761904762 1.14285714285714  5.79464285714286 1.41071428571429  4.77678571428571 1.94642857142857  L 6.50892857142857 3.67857142857143  C 6.99702380952381 3.51190476190476  7.49404761904762 3.42857142857143  8 3.42857142857143  C 8.50595238095238 3.42857142857143  9.00297619047619 3.51190476190476  9.49107142857143 3.67857142857143  L 11.2232142857143 1.94642857142857  Z M 1.14285714285714 8  C 1.14285714285714 9.13095238095238  1.41071428571429 10.2053571428571  1.94642857142857 11.2232142857143  L 3.67857142857143 9.49107142857143  C 3.51190476190476 9.00297619047619  3.42857142857143 8.50595238095238  3.42857142857143 8  C 3.42857142857143 7.49404761904762  3.51190476190476 6.99702380952381  3.67857142857143 6.50892857142857  L 1.94642857142857 4.77678571428571  C 1.41071428571429 5.79464285714286  1.14285714285714 6.86904761904762  1.14285714285714 8  Z M 4.77678571428571 14.0535714285714  C 5.79464285714286 14.5892857142857  6.86904761904762 14.8571428571429  8 14.8571428571429  C 9.13095238095238 14.8571428571429  10.2053571428571 14.5892857142857  11.2232142857143 14.0535714285714  L 9.49107142857143 12.3214285714286  C 9.00297619047619 12.4880952380952  8.50595238095238 12.5714285714286  8 12.5714285714286  C 7.49404761904762 12.5714285714286  6.99702380952381 12.4880952380952  6.50892857142857 12.3214285714286  L 4.77678571428571 14.0535714285714  Z M 5.57589285714286 10.4241071428571  C 6.24553571428571 11.09375  7.05357142857143 11.4285714285714  8 11.4285714285714  C 8.94642857142857 11.4285714285714  9.75446428571429 11.09375  10.4241071428571 10.4241071428571  C 11.09375 9.75446428571428  11.4285714285714 8.94642857142857  11.4285714285714 8  C 11.4285714285714 7.05357142857143  11.09375 6.24553571428571  10.4241071428571 5.57589285714286  C 9.75446428571429 4.90625  8.94642857142857 4.57142857142857  8 4.57142857142857  C 7.05357142857143 4.57142857142857  6.24553571428571 4.90625  5.57589285714286 5.57589285714286  C 4.90625 6.24553571428571  4.57142857142857 7.05357142857143  4.57142857142857 8  C 4.57142857142857 8.94642857142857  4.90625 9.75446428571428  5.57589285714286 10.4241071428571  Z M 12.5714285714286 8  C 12.5714285714286 8.50595238095238  12.4880952380952 9.00297619047619  12.3214285714286 9.49107142857143  L 14.0535714285714 11.2232142857143  C 14.5892857142857 10.2053571428571  14.8571428571429 9.13095238095238  14.8571428571429 8  C 14.8571428571429 6.86904761904762  14.5892857142857 5.79464285714286  14.0535714285714 4.77678571428571  L 12.3214285714286 6.50892857142857  C 12.4880952380952 6.99702380952381  12.5714285714286 7.49404761904762  12.5714285714286 8  Z " fill-rule="nonzero" fill="#555555" stroke="none" transform="matrix(1 0 0 1 24 104 )" />
  </g>
</svg>