<?xml version="1.0" encoding="utf-8"?>
<svg version="1.1" xmlns:xlink="http://www.w3.org/1999/xlink" width="20px" height="16px" xmlns="http://www.w3.org/2000/svg">
  <g transform="matrix(1 0 0 1 -22 -907 )">
    <path d="M 3.828125 7.73863636363636  C 3.89508928571429 7.80681818181818  3.92857142857143 7.89393939393939  3.92857142857143 8  C 3.92857142857143 8.10606060606061  3.89508928571429 8.19318181818182  3.828125 8.26136363636364  L 0.613839285714286 11.5340909090909  C 0.546875 11.6022727272727  0.461309523809524 11.6363636363636  0.357142857142857 11.6363636363636  C 0.260416666666667 11.6363636363636  0.17671130952381 11.6003787878788  0.106026785714286 11.5284090909091  C 0.0353422619047619 11.4564393939394  0 11.3712121212121  0 11.2727272727273  L 0 4.72727272727273  C 0 4.62878787878788  0.0353422619047619 4.54356060606061  0.106026785714286 4.47159090909091  C 0.17671130952381 4.39962121212121  0.260416666666667 4.36363636363636  0.357142857142857 4.36363636363636  C 0.461309523809524 4.36363636363636  0.546875 4.39772727272727  0.613839285714286 4.46590909090909  L 3.828125 7.73863636363636  Z M 19.8939732142857 13.1988636363636  C 19.9646577380952 13.2708333333333  20 13.3560606060606  20 13.4545454545455  L 20 15.6363636363636  C 20 15.7348484848485  19.9646577380952 15.8200757575758  19.8939732142857 15.8920454545455  C 19.8232886904762 15.9640151515152  19.7395833333333 16  19.6428571428571 16  L 0.357142857142857 16  C 0.260416666666667 16  0.17671130952381 15.9640151515152  0.106026785714286 15.8920454545455  C 0.0353422619047619 15.8200757575758  0 15.7348484848485  0 15.6363636363636  L 0 13.4545454545455  C 0 13.3560606060606  0.0353422619047619 13.2708333333333  0.106026785714286 13.1988636363636  C 0.17671130952381 13.1268939393939  0.260416666666667 13.0909090909091  0.357142857142857 13  L 19.6428571428571 13  C 19.7395833333333 13.0909090909091  19.8232886904762 13.1268939393939  19.8939732142857 13.1988636363636  Z M 19.8939732142857 8.83522727272727  C 19.9646577380952 8.90719696969697  20 8.99242424242424  20 9.09090909090909  L 20 11.2727272727273  C 20 11.3712121212121  19.9646577380952 11.4564393939394  19.8939732142857 11.5284090909091  C 19.8232886904762 11.6003787878788  19.7395833333333 11.6363636363636  19.6428571428571 11.6363636363636  L 7.5 11.6363636363636  C 7.40327380952381 11.6363636363636  7.31956845238095 11.6003787878788  7.24888392857143 11.5284090909091  C 7.17819940476191 11.4564393939394  7.14285714285714 11.3712121212121  7.14285714285714 11.2727272727273  L 7.14285714285714 9.09090909090909  C 7.14285714285714 8.99242424242424  7.17819940476191 8.90719696969697  7.24888392857143 8.83522727272727  C 7.31956845238095 8.76325757575757  7.40327380952381 8.72727272727273  7.5 8.72727272727273  L 19.6428571428571 8.72727272727273  C 19.7395833333333 8.72727272727273  19.8232886904762 8.76325757575757  19.8939732142857 8.83522727272727  Z M 19.8939732142857 4.47159090909091  C 19.9646577380952 4.54356060606061  20 4.62878787878788  20 4.72727272727273  L 20 6.90909090909091  C 20 7.00757575757576  19.9646577380952 7.09280303030303  19.8939732142857 7.16477272727273  C 19.8232886904762 7.23674242424242  19.7395833333333 7.27272727272727  19.6428571428571 7.27272727272727  L 7.5 7.27272727272727  C 7.40327380952381 7.27272727272727  7.31956845238095 7.23674242424242  7.24888392857143 7.16477272727273  C 7.17819940476191 7.09280303030303  7.14285714285714 7.00757575757576  7.14285714285714 6.90909090909091  L 7.14285714285714 4.72727272727273  C 7.14285714285714 4.62878787878788  7.17819940476191 4.54356060606061  7.24888392857143 4.47159090909091  C 7.31956845238095 4.39962121212121  7.40327380952381 4.36363636363636  7.5 4.36363636363636  L 19.6428571428571 4.36363636363636  C 19.7395833333333 4.36363636363636  19.8232886904762 4.39962121212121  19.8939732142857 4.47159090909091  Z M 19.8939732142857 0.107954545454545  C 19.9646577380952 0.179924242424242  20 0.265151515151514  20 0.363636363636363  L 20 2.54545454545455  C 20 2.64393939393939  19.9646577380952 2.72916666666666  19.8939732142857 2.80113636363636  C 19.8232886904762 2.87310606060606  19.7395833333333 2.90909090909091  19.6428571428571 3  L 0.357142857142857 3  C 0.260416666666667 2.90909090909091  0.17671130952381 2.87310606060606  0.106026785714286 2.80113636363636  C 0.0353422619047619 2.72916666666666  0 2.64393939393939  0 2.54545454545455  L 0 0.363636363636363  C 0 0.265151515151514  0.0353422619047619 0.179924242424242  0.106026785714286 0.107954545454545  C 0.17671130952381 0.035984848484846  0.260416666666667 0  0.357142857142857 0  L 19.6428571428571 0  C 19.7395833333333 0  19.8232886904762 0.035984848484846  19.8939732142857 0.107954545454545  Z " fill-rule="nonzero" fill="#40a9ff" stroke="none" transform="matrix(1 0 0 1 22 907 )" />
  </g>
</svg>