<?xml version="1.0" encoding="utf-8"?>
<svg version="1.1" xmlns:xlink="http://www.w3.org/1999/xlink" width="200px" height="100px" xmlns="http://www.w3.org/2000/svg">
  <g transform="matrix(1 0 0 1 -35 -50 )">
    <path d="M 36 54  A 3 3 0 0 1 39 51 L 231 51  A 3 3 0 0 1 234 54 L 234 146  A 3 3 0 0 1 231 149 L 39 149  A 3 3 0 0 1 36 146 L 36 54  Z " fill-rule="nonzero" fill="#ff3399" stroke="none" fill-opacity="0" />
    <path d="M 35.5 54  A 3.5 3.5 0 0 1 39 50.5 L 231 50.5  A 3.5 3.5 0 0 1 234.5 54 L 234.5 146  A 3.5 3.5 0 0 1 231 149.5 L 39 149.5  A 3.5 3.5 0 0 1 35.5 146 L 35.5 54  Z " stroke-width="1" stroke-dasharray="9,4" stroke="#ff3399" fill="none" stroke-dashoffset="0.5" />
  </g>
</svg>