<?xml version="1.0" encoding="utf-8"?>
<svg version="1.1" xmlns:xlink="http://www.w3.org/1999/xlink" width="16px" height="16px" xmlns="http://www.w3.org/2000/svg">
  <g transform="matrix(1 0 0 1 -153 -92 )">
    <path d="M 7.33333333333333 6.35625  C 7.33333333333333 6.89583333333333  6.89583333333333 7.33333333333333  6.35625 7.33333333333333  L 0.977083333333333 7.33333333333333  C 0.4375 7.33333333333333  0 6.89583333333333  0 6.35625  L 0 0.977083333333333  C 0 0.4375  0.4375 0  0.977083333333333 0  L 6.35625 0  C 6.89583333333333 0  7.33333333333333 0.4375  7.33333333333333 0.977083333333333  L 7.33333333333333 6.35625  Z M 7.33333333333333 15.0229166666667  C 7.33333333333333 15.5625  6.89583333333333 16  6.35625 16  L 0.977083333333333 16  C 0.4375 16  0 15.5625  0 15.0229166666667  L 0 9.64375  C 0 9.10416666666667  0.4375 8.66666666666667  0.977083333333333 8.66666666666667  L 6.35625 8.66666666666667  C 6.89583333333333 8.66666666666667  7.33333333333333 9.10416666666667  7.33333333333333 9.64375  L 7.33333333333333 15.0229166666667  Z M 16 6.35625  C 16 6.89583333333333  15.5625 7.33333333333333  15.0229166666667 7.33333333333333  L 9.64375 7.33333333333333  C 9.10416666666667 7.33333333333333  8.66666666666667 6.89583333333333  8.66666666666667 6.35625  L 8.66666666666667 0.977083333333333  C 8.66666666666667 0.4375  9.10416666666667 0  9.64375 0  L 15.0229166666667 0  C 15.5625 0  16 0.4375  16 0.977083333333333  L 16 6.35625  Z M 16 15.0229166666667  C 16 15.5625  15.5625 16  15.0229166666667 16  L 9.64375 16  C 9.10416666666667 16  8.66666666666667 15.5625  8.66666666666667 15.0229166666667  L 8.66666666666667 9.64375  C 8.66666666666667 9.10416666666667  9.10416666666667 8.66666666666667  9.64375 8.66666666666667  L 15.0229166666667 8.66666666666667  C 15.5625 8.66666666666667  16 9.10416666666667  16 9.64375  L 16 15.0229166666667  Z " fill-rule="nonzero" fill="#333333" stroke="none" transform="matrix(1 0 0 1 153 92 )" />
  </g>
</svg>