<?xml version="1.0" encoding="utf-8"?>
<svg version="1.1" xmlns:xlink="http://www.w3.org/1999/xlink" width="18px" height="16px" xmlns="http://www.w3.org/2000/svg">
  <g transform="matrix(1 0 0 1 -68 -138 )">
    <path d="M 5.1599999925 3  L 5.1599999925 0  L 17.959999995 0  L 17.959999995 3  L 5.1599999925 3  Z M 0.040000005 2.7080103255814  L 0.040000005 0.0620155116279067  L 2.60000001 0.0620155116279067  L 2.60000001 2.7080103255814  L 0.040000005 2.7080103255814  Z M 0.040000005 9.32299741860465  L 0.040000005 6.67700258139535  L 2.60000001 6.67700258139535  L 2.60000001 9.32299741860465  L 0.040000005 9.32299741860465  Z M 0.040000005 15.9379844883721  L 0.040000005 13.2919896744186  L 2.60000001 13.2919896744186  L 2.60000001 15.9379844883721  L 0.040000005 15.9379844883721  Z M 5.1599999925 16  L 5.1599999925 13  L 17.959999995 13  L 17.959999995 16  L 5.1599999925 16  Z M 5.1599999925 9.32299741860465  L 5.1599999925 6.67700258139535  L 17.959999995 6.67700258139535  L 17.959999995 9.32299741860465  L 5.1599999925 9.32299741860465  Z " fill-rule="nonzero" fill="#333333" stroke="none" transform="matrix(1 0 0 1 68 138 )" />
  </g>
</svg>