<?xml version="1.0" encoding="utf-8"?>
<svg version="1.1" xmlns:xlink="http://www.w3.org/1999/xlink" width="32px" height="32px" xmlns="http://www.w3.org/2000/svg">
  <g transform="matrix(1 0 0 1 -246 -117 )">
    <path d="M 246.5 121  A 3.5 3.5 0 0 1 250 117.5 L 274 117.5  A 3.5 3.5 0 0 1 277.5 121 L 277.5 145  A 3.5 3.5 0 0 1 274 148.5 L 250 148.5  A 3.5 3.5 0 0 1 246.5 145 L 246.5 121  Z " fill-rule="nonzero" fill="#ffffff" stroke="none" fill-opacity="0" />
    <path d="M 246.5 121  A 3.5 3.5 0 0 1 250 117.5 L 274 117.5  A 3.5 3.5 0 0 1 277.5 121 L 277.5 145  A 3.5 3.5 0 0 1 274 148.5 L 250 148.5  A 3.5 3.5 0 0 1 246.5 145 L 246.5 121  Z " stroke-width="1" stroke="#2c8cf0" fill="none" />
  </g>
</svg>