<?xml version="1.0" encoding="utf-8"?>
<svg version="1.1" xmlns:xlink="http://www.w3.org/1999/xlink" width="40px" height="32px" xmlns="http://www.w3.org/2000/svg">
  <g transform="matrix(1 0 0 1 -367 -2201 )">
    <path d="M 40 0  L 40 32  L 0 32  L 0 0  L 40 0  Z M 15.0625 15.8039772727273  L 12.4910714285714 13.3494318181818  C 12.4375 13.2982954545455  12.3690476190476 13.2727272727273  12.2857142857143 13.2727272727273  C 12.2083333333333 13.2727272727273  12.141369047619 13.2997159090909  12.0848214285714 13.3536931818182  C 12.0282738095238 13.4076704545455  12 13.4715909090909  12 13.5454545454545  L 12 18.4545454545455  C 12 18.5284090909091  12.0282738095238 18.5923295454545  12.0848214285714 18.6463068181818  C 12.141369047619 18.7002840909091  12.2083333333333 18.7272727272727  12.2857142857143 18.7272727272727  C 12.3690476190476 18.7272727272727  12.4375 18.7017045454545  12.4910714285714 18.6505681818182  L 15.0625 16.1960227272727  C 15.1160714285714 16.1448863636364  15.1428571428571 16.0795454545455  15.1428571428571 16  C 15.1428571428571 15.9204545454545  15.1160714285714 15.8551136363636  15.0625 15.8039772727273  Z M 27.9151785714286 19.8991477272727  C 27.858630952381 19.8451704545455  27.7916666666667 19.8181818181818  27.7142857142857 19.8181818181818  L 12.2857142857143 19.8181818181818  C 12.2083333333333 19.8181818181818  12.141369047619 19.8451704545455  12.0848214285714 19.8991477272727  C 12.0282738095238 19.953125  12 20.0170454545455  12 20.0909090909091  L 12 21.7272727272727  C 12 21.8011363636364  12.0282738095238 21.8650568181818  12.0848214285714 21.9190340909091  C 12.141369047619 21.9730113636364  12.2083333333333 22  12.2857142857143 22  L 27.7142857142857 22  C 27.7916666666667 22  27.858630952381 21.9730113636364  27.9151785714286 21.9190340909091  C 27.9717261904762 21.8650568181818  28 21.8011363636364  28 21.7272727272727  L 28 20.0909090909091  C 28 20.0170454545455  27.9717261904762 19.953125  27.9151785714286 19.8991477272727  Z M 27.9151785714286 16.6264204545455  C 27.858630952381 16.5724431818182  27.7916666666667 16.5454545454545  27.7142857142857 16.5454545454545  L 18 16.5454545454545  C 17.922619047619 16.5454545454545  17.8556547619048 16.5724431818182  17.7991071428571 16.6264204545455  C 17.7425595238095 16.6803977272727  17.7142857142857 16.7443181818182  17.7142857142857 16.8181818181818  L 17.7142857142857 18.4545454545455  C 17.7142857142857 18.5284090909091  17.7425595238095 18.5923295454545  17.7991071428571 18.6463068181818  C 17.8556547619048 18.7002840909091  17.922619047619 18.7272727272727  18 18.7272727272727  L 27.7142857142857 18.7272727272727  C 27.7916666666667 18.7272727272727  27.858630952381 18.7002840909091  27.9151785714286 18.6463068181818  C 27.9717261904762 18.5923295454545  28 18.5284090909091  28 18.4545454545455  L 28 16.8181818181818  C 28 16.7443181818182  27.9717261904762 16.6803977272727  27.9151785714286 16.6264204545455  Z M 27.9151785714286 13.3536931818182  C 27.858630952381 13.2997159090909  27.7916666666667 13.2727272727273  27.7142857142857 13.2727272727273  L 18 13.2727272727273  C 17.922619047619 13.2727272727273  17.8556547619048 13.2997159090909  17.7991071428571 13.3536931818182  C 17.7425595238095 13.4076704545455  17.7142857142857 13.4715909090909  17.7142857142857 13.5454545454545  L 17.7142857142857 15.1818181818182  C 17.7142857142857 15.2556818181818  17.7425595238095 15.3196022727273  17.7991071428571 15.3735795454545  C 17.8556547619048 15.4275568181818  17.922619047619 15.4545454545455  18 15.4545454545455  L 27.7142857142857 15.4545454545455  C 27.7916666666667 15.4545454545455  27.858630952381 15.4275568181818  27.9151785714286 15.3735795454545  C 27.9717261904762 15.3196022727273  28 15.2556818181818  28 15.1818181818182  L 28 13.5454545454545  C 28 13.4715909090909  27.9717261904762 13.4076704545455  27.9151785714286 13.3536931818182  Z M 27.9151785714286 10.0809659090909  C 27.858630952381 10.0269886363636  27.7916666666667 10  27.7142857142857 10  L 12.2857142857143 10  C 12.2083333333333 10  12.141369047619 10.0269886363636  12.0848214285714 10.0809659090909  C 12.0282738095238 10.1349431818182  12 10.1988636363636  12 10.2727272727273  L 12 11.9090909090909  C 12 11.9829545454545  12.0282738095238 12.046875  12.0848214285714 12.1008522727273  C 12.141369047619 12.1548295454545  12.2083333333333 12.1818181818182  12.2857142857143 12.1818181818182  L 27.7142857142857 12.1818181818182  C 27.7916666666667 12.1818181818182  27.858630952381 12.1548295454545  27.9151785714286 12.1008522727273  C 27.9717261904762 12.046875  28 11.9829545454545  28 11.9090909090909  L 28 10.2727272727273  C 28 10.1988636363636  27.9717261904762 10.1349431818182  27.9151785714286 10.0809659090909  Z " fill-rule="nonzero" fill="#40a9ff" stroke="none" transform="matrix(1 0 0 1 367 2201 )" />
  </g>
</svg>