<?xml version="1.0" encoding="utf-8"?>
<svg version="1.1" xmlns:xlink="http://www.w3.org/1999/xlink" width="18px" height="18px" preserveAspectRatio="xMinYMid meet" viewBox="114 112  18 16" xmlns="http://www.w3.org/2000/svg">
  <path d="M 121 120.5  L 145 120.5  A 5 5 0 0 0 150.5 115.5 A 5 5 0 0 1 155.5 110.5 L 165 110.5  A 5 5 0 0 1 170.5 115.5 L 170.5 126  " stroke-width="1" stroke="#ff3399" fill="none" />
  <path d="M 123 117.5  A 3 3 0 0 0 120 120.5 A 3 3 0 0 0 123 123.5 A 3 3 0 0 0 126 120.5 A 3 3 0 0 0 123 117.5 Z " fill-rule="nonzero" fill="#ff3399" stroke="none" />
</svg>