<?xml version="1.0" encoding="utf-8"?>
<svg version="1.1" xmlns:xlink="http://www.w3.org/1999/xlink" width="16px" height="16px" xmlns="http://www.w3.org/2000/svg">
  <g transform="matrix(1 0 0 1 -13 -21 )">
    <path d="M 15.3123488372093 6.41838095238095  L 14.1792558139535 7.5785  C 14.1879302325581 7.71792857142857  14.1928372093023 7.85840476190476  14.1928372093023 8.00007142857143  C 14.1928372093023 11.6067142857143  11.3367906976744 14.5305952380952  7.81393023255814 14.5305952380952  C 4.291 14.5305952380952  1.43518604651163 11.6067142857143  1.43518604651163 8.00007142857143  C 1.43518604651163 4.39326190476191  4.29097674418604 1.46945238095238  7.81393023255814 1.46945238095238  C 9.5753488372093 1.46945238095238  11.1700930232558 2.20040476190477  12.3244651162791 3.38221428571429  L 13.2264651162791 2.45869047619048  C 11.8413023255814 1.04052380952381  9.92767441860465 0.163357142857143  7.81395348837209 0.163357142857143  C 3.58646511627907 0.163357142857143  0.15946511627907 3.67195238095238  0.15946511627907 8.00009523809524  C 0.15946511627907 12.3282380952381  3.58646511627907 15.8367380952381  7.81395348837209 15.8367380952381  C 12.0413488372093 15.8367380952381  15.4683488372093 12.3282380952381  15.4683488372093 8.00009523809524  C 15.4683488372093 7.4582380952381  15.4146046511628 6.9292619047619  15.3123488372093 6.41838095238095  Z M 14.9915813953488 2.69183333333333  C 14.9915581395349 2.69183333333333  14.6532325581395 3.03821428571429  14.1151162790698 3.58930952380952  C 12.5720697674419 5.16890476190476  9.38720930232558 8.42969047619048  7.82651162790698 10.0275952380952  L 4.51879069767442 6.64102380952381  L 3.61693023255814 7.56461904761905  L 6.92453488372093 10.951119047619  L 7.82646511627907 11.8745714285714  L 8.72858139534884 10.9511428571429  C 10.2070697674419 9.43735714285714  13.1432093023256 6.43140476190476  14.7601395348837 4.77597619047619  C 15.4453023255814 4.07440476190476  15.8936976744186 3.61535714285714  15.8936976744186 3.61535714285714  L 14.9915813953488 2.69183333333333  Z " fill-rule="nonzero" fill="#f59a23" stroke="none" transform="matrix(1 0 0 1 13 21 )" />
  </g>
</svg>