<?xml version="1.0" encoding="utf-8"?>
<svg version="1.1" xmlns:xlink="http://www.w3.org/1999/xlink" width="18px" height="18px" xmlns="http://www.w3.org/2000/svg">
  <g transform="matrix(1 0 0 1 8 -7 )">
    <path d="M 3.54681115837279 10.0179372042833  C 5.87213064690518 11.0090552080089  7.5 13.3156483104155  7.5 16  C 7.5 19.5898508739002  4.58985087390016 22.5  1 22.5  C -0.884188062659599 22.5  -2.62805501133432 21.6876886933005  -3.83590739659974 20.3436898588717  L 1.82677423027478 18.3593313400524  A 2.5 2.5 0 0 0 3.49992370954697 16.0195306539808 L 3.54681115837252 10.0179372042831  Z " fill-rule="nonzero" fill="#ffffff" stroke="none" fill-opacity="0" />
    <path d="M 2.55737385430961 8.66200593402261  C 5.95458964214119 9.37939822774453  8.5 12.3943588831761  8.5 16  C 8.5 20.142135623731  5.14213562373095 23.5  1 23.5  C -1.67511307785914 23.5  -4.10508800240087 22.0809085462033  -5.43934169864625 19.8459548231616  L 1.49606453816487 17.4155988040315  A 1.5 1.5 0 0 0 2.49995422572818 16.0117183923885 L 2.55737385430918 8.66200593402252  Z " stroke-width="3" stroke="#f5222d" fill="none" />
  </g>
</svg>