<?xml version="1.0" encoding="utf-8"?>
<svg version="1.1" xmlns:xlink="http://www.w3.org/1999/xlink" width="10px" height="10px" xmlns="http://www.w3.org/2000/svg">
  <g transform="matrix(1 0 0 1 -905 -176 )">
    <path d="M 9.94998857142857 4.99264533333333  C 9.94999932773109 2.26953066666667  7.72388571428572 0.0620213333333333  4.97788773109244 0.0620213333333333  C 2.2319112605042 0.0620213333333333  0.00580840336134438 2.26952  0.00580840336134438 4.99264533333333  C 0.00580840336134438 7.715792  2.2319112605042 9.923312  4.97788773109244 9.923312  C 7.72388571428572 9.923312  9.94998857142857 7.71578133333333  9.94998857142857 4.99264533333333  Z M 7.31404907563025 7.04582933333333  C 7.38956907563025 7.12114666666667  7.38913882352941 7.24332266666667  7.31319932773109 7.31864  C 7.27522957983193 7.35587733333333  7.22585815126051 7.374704  7.17607798319328 7.374704  C 7.12629781512605 7.374704  7.0765068907563 7.35587733333333  7.0381068907563 7.31779733333333  L 4.9778662184874 5.266096  L 2.92221848739496 7.313616  C 2.8842487394958 7.351696  2.83403831932773 7.37052266666667  2.78424739495798 7.37052266666667  C 2.73445647058824 7.37052266666667  2.68509579831933 7.351696  2.64712605042017 7.31445866666667  C 2.57117579831933 7.23914133333333  2.57075630252101 7.11696533333333  2.64628705882353 7.04165866666667  L 4.70332235294118 4.99272  L 2.64162957983193 2.93955733333333  C 2.56610957983193 2.86424  2.56652907563025 2.742064  2.64246857142857 2.66675733333333  C 2.71841882352941 2.59228266666667  2.84077176470588 2.59144  2.91756100840336 2.66758933333333  L 4.97780168067227 4.71929066666667  L 7.03344941176471 2.67178133333333  C 7.10939966386555 2.595632  7.23260235294118 2.596464  7.3085418487395 2.67094933333333  C 7.38449210084034 2.74626666666667  7.38491159663866 2.86844266666667  7.30938084033614 2.94374933333333  L 5.25235630252101 4.99266666666667  L 7.31404907563025 7.04582933333333  Z " fill-rule="nonzero" fill="#ec380a" stroke="none" transform="matrix(1 0 0 1 905 176 )" />
  </g>
</svg>