<?xml version="1.0" encoding="utf-8"?>
<svg version="1.1" xmlns:xlink="http://www.w3.org/1999/xlink" width="16px" height="16px" xmlns="http://www.w3.org/2000/svg">
  <g transform="matrix(1 0 0 1 -404 -144 )">
    <path d="M 0 7.52000000000001  C 0.47524752475249 8.83199999999999  1.36237623762378 9.98400000000001  2.48712871287131 10.864  L 4.65742574257428 8.672  C 4.51485148514854 8.31999999999999  4.43564356435644 7.93600000000001  4.43564356435644 7.52000000000001  C 4.43564356435644 5.75999999999999  5.86138613861385 4.31999999999999  7.60396039603961 4.31999999999999  C 8.01584158415841 4.31999999999999  8.39603960396039 4.40000000000001  8.74455445544555 4.54400000000001  L 10.3762376237624 2.89599999999999  C 9.4891089108911 2.57599999999999  8.55445544554453 2.40000000000001  7.60396039603961 2.40000000000001  C 4.2772277227723 2.40000000000001  1.07722772277225 4.52799999999999  0 7.52000000000001  Z M 7.60396039603961 5.59999999999999  C 6.55841584158418 5.59999999999999  5.70297029702971 6.464  5.70297029702971 7.52000000000001  L 5.70297029702971 7.61599999999999  L 7.69900990099012 5.59999999999999  L 7.60396039603961 5.59999999999999  Z M 15.2237623762376 7.52000000000001  C 14.7485148514851 6.208  13.8455445544554 5.05600000000001  12.7207920792079 4.17599999999999  L 15.9524752475248 0.912000000000006  L 15.049504950495 0  L 0.126732673267327 15.072  L 1.02970297029702 15.984  L 4.84752475247524 12.128  C 5.72777635951877 12.4668633795243  6.66193674109667 12.6403809860335  7.60396039603961 12.64  C 8.57960807750806 12.64  9.54837771644702 12.4552145094027  10.4571668981476 12.1179873577472  C 12.632382384036 11.3108235651825  14.463970262747 9.63032259522035  15.2237623762376 7.52000000000001  Z M 10.7722772277228 7.52000000000001  C 10.7722772277228 9.28  9.34653465346537 10.72  7.60396039603961 10.72  C 7.20792079207922 10.72  6.81188118811883 10.64  6.46336633663367 10.496  L 7.52475247524751 9.42400000000001  L 7.61980198019802 9.42400000000001  C 8.66534653465345 9.42400000000001  9.52079207920792 8.56  9.52079207920792 7.50399999999999  L 9.52079207920792 7.40799999999999  L 10.5821782178218 6.33599999999998  C 10.6930693069307 6.72  10.7722772277228 7.12  10.7722772277228 7.52000000000001  Z " fill-rule="nonzero" fill="#aaaaaa" stroke="none" transform="matrix(1 0 0 1 404 144 )" />
  </g>
</svg>