<?xml version="1.0" encoding="utf-8"?>
<svg version="1.1" xmlns:xlink="http://www.w3.org/1999/xlink" width="8px" height="8px" xmlns="http://www.w3.org/2000/svg">
  <g transform="matrix(1 0 0 1 -85 -141 )">
    <path d="M 89 141  C 91.24 141  93 142.76  93 145  C 93 147.24  91.24 149  89 149  C 86.76 149  85 147.24  85 145  C 85 142.76  86.76 141  89 141  Z " fill-rule="nonzero" fill="#2c8cf0" stroke="none" />
    <path d="M 89 141.5  C 90.96 141.5  92.5 143.04  92.5 145  C 92.5 146.96  90.96 148.5  89 148.5  C 87.04 148.5  85.5 146.96  85.5 145  C 85.5 143.04  87.04 141.5  89 141.5  Z " stroke-width="1" stroke="#ffffff" fill="none" />
  </g>
</svg>