<?xml version="1.0" encoding="utf-8"?>
<svg version="1.1" xmlns:xlink="http://www.w3.org/1999/xlink" width="12px" height="4px" xmlns="http://www.w3.org/2000/svg">
  <g transform="matrix(1 0 0 1 -120 -14 )">
    <path d="M 9.79803774056604 2.8771929868421  L 0.679245283018868 2.8771929868421  C 0.345826438010796 2.87724044892511  0.0755641269700611 3.1285754584647  0.0755641269700611 3.43859649342105  C 0.0755641269700611 3.74861752837741  0.345826438010797 3.999952537917  0.679245283018868 4  L 11.3237735801887 4  C 11.8707924481132 4  12.1358490566038 3.3774035131579  11.7367547122642 3.02877193421053  L 8.52045283018868 0.221754381578947  C 8.40846086323211 0.12411197463498  8.26069389922574 0.0697712986568581  8.10716980896227 0.0697712986568581  C 7.77347482003516 0.0697712986568581  7.50296158298945 0.321301150646729  7.50296158298945 0.631578947368421  C 7.50296158298945 0.786849803673273  7.57207220721986 0.935197066698542  7.69388678773585 1.04140351315789  L 9.79803774056604 2.8771929868421  Z " fill-rule="nonzero" fill="#d7d7d7" stroke="none" transform="matrix(1 0 0 1 120 14 )" />
  </g>
</svg>