<?xml version="1.0" encoding="utf-8"?>
<svg version="1.1" xmlns:xlink="http://www.w3.org/1999/xlink" width="32px" height="32px" xmlns="http://www.w3.org/2000/svg">
  <g transform="matrix(1 0 0 1 -176 -91 )">
    <path d="M 19.2380826446281 12.6942148760331  L 28.7502809917355 12.6942148760331  C 29.1790633608815 12.6942148760331  29.5909201101928 12.7788429752066  29.9858512396694 12.9480991735537  C 30.380782369146 13.1173553719008  30.7192947658402 13.3430303030303  31.0013884297521 13.6251239669421  C 31.2834820936639 13.907217630854  31.5091570247934 14.2457300275482  31.6784132231405 14.6406611570248  C 31.8476694214876 15.0355922865014  31.9322975206612 15.4474490358127  31.9322975206612 15.8762314049587  C 31.9322975206612 16.3275812672176  31.8476694214876 16.7450798898072  31.6784132231405 17.1287272727273  C 31.5091570247934 17.5123746556474  31.2834820936639 17.8452451790634  31.0013884297521 18.1273388429752  C 30.7192947658402 18.4094325068871  30.380782369146 18.6351074380165  29.9858512396694 18.8043636363636  C 29.5909201101928 18.9736198347107  29.1790633608815 19.0582479338843  28.7502809917355 19.0582479338843  L 19.2380826446281 19.0582479338843  L 19.2380826446281 28.5704462809917  C 19.2380826446281 29.0217961432507  19.1534545454545 29.4392947658402  18.9841983471074 29.8229421487603  C 18.8149421487603 30.2065895316804  18.5892672176309 30.5394600550964  18.307173553719 30.8215537190083  C 18.0250798898072 31.1036473829201  17.6865674931129 31.3293223140496  17.2916363636364 31.4985785123967  C 16.8967052341598 31.6678347107438  16.4848484848485 31.7524628099174  16.0560661157025 31.7524628099174  C 15.6047162534435 31.7524628099174  15.187217630854 31.6678347107438  14.8035702479339 31.4985785123967  C 14.4199228650138 31.3293223140496  14.0870523415978 31.1036473829201  13.804958677686 30.8215537190083  C 13.5228650137741 30.5394600550964  13.2971900826446 30.2065895316804  13.1279338842975 29.8229421487603  C 12.9586776859504 29.4392947658402  12.8740495867769 29.0217961432507  12.8740495867769 28.5704462809917  L 12.8740495867769 19.0582479338843  L 3.36185123966942 19.0582479338843  C 2.91050137741047 19.0582479338843  2.49300275482094 18.9736198347107  2.10935537190083 18.8043636363636  C 1.72570798898071 18.6351074380165  1.39283746556474 18.4094325068871  1.11074380165289 18.1273388429752  C 0.828650137741046 17.8452451790634  0.60297520661157 17.5123746556474  0.433719008264462 17.1287272727273  C 0.264462809917354 16.7450798898072  0.1798347107438 16.3275812672176  0.1798347107438 15.8762314049587  C 0.179834710743801 15.4474490358127  0.264462809917354 15.0355922865014  0.433719008264462 14.6406611570248  C 0.602975206611569 14.2457300275482  0.828650137741046 13.907217630854  1.11074380165289 13.6251239669422  C 1.39283746556474 13.3430303030303  1.72570798898072 13.1173553719008  2.10935537190083 12.9480991735537  C 2.49300275482094 12.7788429752066  2.91050137741047 12.6942148760331  3.36185123966942 12.6942148760331  L 12.8740495867769 12.6942148760331  L 12.8740495867769 3.18201652892562  C 12.8740495867769 2.75323415977962  12.9586776859504 2.34137741046832  13.1279338842975 1.94644628099174  C 13.2971900826446 1.55151515151515  13.5228650137741 1.21300275482094  13.804958677686 0.930909090909092  C 14.0870523415978 0.648815426997246  14.4199228650138 0.42314049586777  14.8035702479339 0.253884297520662  C 15.187217630854 0.0846280991735541  15.6047162534435 0  16.0560661157025 0  C 16.9361983471074 0  17.686567493113 0.310303030303031  18.307173553719 0.930909090909092  C 18.9277796143251 1.55151515151515  19.2380826446281 2.30188429752066  19.2380826446281 3.18201652892562  L 19.2380826446281 12.6942148760331  Z " fill-rule="nonzero" fill="#000000" stroke="none" transform="matrix(1 0 0 1 176 91 )" />
  </g>
</svg>