<?xml version="1.0" encoding="utf-8"?>
<svg version="1.1" xmlns:xlink="http://www.w3.org/1999/xlink" width="33px" height="32px" xmlns="http://www.w3.org/2000/svg">
  <g transform="matrix(1 0 0 1 -529 -91 )">
    <path d="M 16.5 22.6285714285714  C 20.1413793103448 22.6285714285714  22.9862068965517 19.6571428571429  22.9862068965517 16  C 22.9862068965517 12.3428571428571  20.0275862068965 9.37142857142857  16.5 9.37142857142857  C 12.8586206896552 9.37142857142857  10.0137931034483 12.3428571428571  10.0137931034483 16  C 10.0137931034483 19.6571428571429  12.9724137931034 22.6285714285714  16.5 22.6285714285714  Z M 16.5 20.8  C 13.8827586206897 20.8  11.7206896551724 18.6285714285714  11.7206896551724 16  C 11.7206896551724 13.3714285714286  13.8827586206897 11.2  16.5 11.2  C 19.1172413793103 11.2  21.2793103448276 13.3714285714286  21.2793103448276 16  C 21.2793103448276 18.6285714285714  19.1172413793103 20.8  16.5 20.8  Z M 6.35161924137931 21.9992354285714  C 7.26196406896552 23.8278068571429  7.60334337931034 25.8849497142857  7.14817096551724 27.8278068571429  C 8.39989510344827 28.8563782857143  9.76541234482759 29.6563782857143  11.1309295862069 30.2278068571429  C 12.6102399310345 28.8563782857143  14.5447226896552 28.0563782857143  16.4792054482759 28.0563782857143  C 18.5274813103448 28.0563782857143  20.3481709655172 28.8563782857143  21.8274813103448 30.2278068571429  C 23.3067916551724 29.6563782857143  24.6723088965517 28.8563782857143  25.8102399310345 27.8278068571429  C 25.3550675172414 25.8849497142857  25.6964468275862 23.8278068571429  26.6067916551724 21.9992354285714  C 27.6309295862069 20.2849497142857  29.2240330344828 18.9135211428571  31.1585157931034 18.3420925714286  C 31.2723088965517 17.5420925714286  31.386102 16.7420925714286  31.386102 15.9420925714286  C 31.386102 15.1420925714286  31.2723088965517 14.3420925714286  31.1585157931034 13.5420925714286  C 29.2240330344828 12.970664  27.6309295862069 11.5992354285714  26.6067916551724 9.88494971428571  C 25.5826537241379 8.170664  25.3550675172414 5.99923542857143  25.8102399310345 4.05637828571429  C 24.5585157931034 3.02780685714286  23.1929985517241 2.22780685714286  21.8274813103448 1.65637828571429  C 20.3481709655172 3.02780685714286  18.5274813103448 3.82780685714286  16.4792054482759 3.82780685714286  C 14.5447226896552 3.82780685714286  12.6102399310345 3.02780685714286  11.1309295862069 1.65637828571429  C 9.65161924137931 2.22780685714286  8.286102 3.02780685714286  7.14817096551724 4.05637828571429  C 7.60334337931034 5.99923542857143  7.26196406896552 8.05637828571429  6.35161924137931 9.88494971428571  C 5.32748131034483 11.5992354285714  3.73437786206896 12.970664  1.79989510344827 13.5420925714286  C 1.686102 14.3420925714286  1.57230889655172 15.1420925714286  1.57230889655172 15.9420925714286  C 1.57230889655172 16.7420925714286  1.686102 17.5420925714286  1.79989510344827 18.3420925714286  C 3.73437786206896 18.9135211428571  5.32748131034483 20.2849497142857  6.35161924137931 21.9992354285714  Z M 11.3585157931035 31.9420925714286  C 11.2447226896552 31.9420925714286  11.1309295862069 31.9420925714286  11.1309295862069 31.9420925714286  C 9.19644682758621 31.2563782857143  7.37575717241379 30.2278068571429  5.78265372413793 28.7420925714286  C 5.55506751724138 28.5135211428571  5.4412744137931 28.170664  5.55506751724138 27.9420925714286  C 6.12403303448276 26.2278068571429  5.89644682758621 24.3992354285714  4.986102 22.9135211428571  C 4.07575717241379 21.3135211428571  2.71023993103448 20.2849497142857  1.00334337931035 19.9420925714286  C 0.661964068965518 19.8278068571429  0.434377862068966 19.5992354285714  0.434377862068966 19.2563782857143  C 0.206791655172414 18.2278068571429  0.0929985517241384 17.0849497142857  0.0929985517241384 16.0563782857143  C 0.0929985517241384 15.0278068571429  0.206791655172414 13.9992354285714  0.434377862068966 12.8563782857143  C 0.548170965517242 12.5135211428571  0.775757172413793 12.2849497142857  1.00334337931035 12.170664  C 2.71023993103448 11.7135211428571  4.18955027586207 10.6849497142857  4.986102 9.19923542857143  C 5.89644682758621 7.59923542857143  6.01023993103448 5.88494971428571  5.55506751724138 4.170664  C 5.4412744137931 3.82780685714286  5.55506751724138 3.48494971428571  5.78265372413793 3.370664  C 7.37575717241379 1.99923542857143  9.19644682758621 0.970663999999998  11.1309295862069 0.170663999999998  C 11.4723088965517 0.0563782857142837  11.6998951034483 0.170663999999998  11.9274813103448 0.399235428571427  C 13.1792054482759 1.65637828571428  14.7723088965517 2.45637828571428  16.4792054482759 2.45637828571428  C 18.186102 2.45637828571428  19.8929985517241 1.770664  21.0309295862069 0.399235428571427  C 21.2585157931034 0.170663999999998  21.5998951034483 0.0563782857142842  21.8274813103448 0.170663999999998  C 23.7619640689655 0.856378285714284  25.5826537241379 1.88494971428571  27.1757571724138 3.370664  C 27.4033433793103 3.59923542857143  27.5171364827586 3.94209257142857  27.4033433793103 4.170664  C 26.834377862069 5.88494971428571  27.0619640689655 7.71352114285714  27.9723088965517 9.19923542857143  C 28.8826537241379 10.7992354285714  30.2481709655172 11.8278068571429  31.9550675172414 12.170664  C 32.2964468275862 12.2849497142857  32.5240330344828 12.5135211428571  32.5240330344828 12.8563782857143  C 32.7516192413793 13.8849497142857  32.8654123448276 15.0278068571429  32.8654123448276 16.0563782857143  C 32.8654123448276 17.0849497142857  32.7516192413793 18.1135211428571  32.5240330344828 19.2563782857143  C 32.4102399310345 19.5992354285714  32.1826537241379 19.8278068571429  31.9550675172414 19.9420925714286  C 30.2481709655172 20.3992354285714  28.7688606206897 21.4278068571429  27.9723088965517 22.9135211428571  C 27.0619640689655 24.5135211428571  26.9481709655172 26.2278068571429  27.4033433793103 27.9420925714286  C 27.5171364827586 28.2849497142857  27.4033433793103 28.6278068571429  27.1757571724138 28.7420925714286  C 25.5826537241379 30.1135211428571  23.7619640689655 31.1420925714286  21.8274813103448 31.9420925714286  C 21.486102 32.0563782857143  21.2585157931034 31.9420925714286  21.0309295862069 31.7135211428571  C 19.7792054482759 30.4563782857143  18.186102 29.6563782857143  16.4792054482759 29.6563782857143  C 14.7723088965517 29.6563782857143  13.0654123448276 30.3420925714286  11.9274813103448 31.7135211428571  C 11.8136882068966 31.8278068571429  11.586102 31.9420925714286  11.3585157931035 31.9420925714286  Z " fill-rule="nonzero" fill="#000000" stroke="none" transform="matrix(1 0 0 1 529 91 )" />
  </g>
</svg>