<?xml version="1.0" encoding="utf-8"?>
<svg version="1.1" xmlns:xlink="http://www.w3.org/1999/xlink" width="55px" height="32px" xmlns="http://www.w3.org/2000/svg">
  <g transform="matrix(1 0 0 1 -711 -91 )">
    <path d="M 54.4488977955912 3.29896907216495  C 54.8162992651971 3.66552119129438  55 4.08705612829324  55 4.56357388316151  C 55 5.04009163802978  54.8162992651971 5.46162657502863  54.4488977955912 5.82817869415808  L 28.7675350701403 31.4501718213058  C 28.4001336005344 31.8167239404353  27.9776219104876 32  27.5 32  C 27.0223780895124 32  26.5998663994656 31.8167239404353  26.2324649298597 31.4501718213058  L 0.551102204408818 5.82817869415808  C 0.18370073480294 5.46162657502863  0 5.04009163802978  0 4.56357388316151  C 0 4.08705612829324  0.18370073480294 3.66552119129438  0.551102204408818 3.29896907216495  L 3.30661322645291 0.54982817869416  C 3.67401469605879 0.183276059564715  4.09652638610554 0  4.57414829659319 0  C 5.05177020708083 0  5.47428189712759 0.183276059564715  5.84168336673347 0.54982817869416  L 27.5 22.1580756013746  L 49.1583166332665 0.54982817869416  C 49.5257181028724 0.183276059564715  49.9482297929192 0  50.4258517034068 0  C 50.9034736138945 0  51.3259853039412 0.183276059564715  51.6933867735471 0.54982817869416  L 54.4488977955912 3.29896907216495  Z " fill-rule="nonzero" fill="#aaaaaa" stroke="none" transform="matrix(1 0 0 1 711 91 )" />
  </g>
</svg>