<?xml version="1.0" encoding="utf-8"?>
<svg version="1.1" xmlns:xlink="http://www.w3.org/1999/xlink" width="32px" height="32px" xmlns="http://www.w3.org/2000/svg">
  <g transform="matrix(1 0 0 1 -678 -158 )">
    <path d="M 17.7096102635659 8.39854297674419  L 17.7096102635659 16.9475791627907  C 17.7096102790698 17.9605075285841  16.8886628955395 18.7814549121144  15.8759729767442 18.7814549121144  C 14.8632830579489 18.7814549121144  14.0423356744186 17.9605075285841  14.0423356744186 16.9478176097888  L 14.0423356899225 8.39854297674419  C 14.0423356744186 7.38561461095077  14.8632830579489 6.56466722742048  15.8759729767442 6.56466722742048  C 16.8886628955395 6.56466722742048  17.7096102790698 7.38561461095077  17.7096102790698 8.39830452974606  Z M 17.1698382325581 24.353568744186  C 16.8298641622699 24.7009755532147  16.3619890275694 24.8932923188757  15.8759729612403 24.8854029147287  C 14.8699359305151 24.8822074611712  14.0560723886798 24.065754756835  14.0560723886798 23.0597126512978  C 14.0560723886798 22.0514066746585  14.8734658849088 21.2340131784295  15.881771861548 21.2340131784295  C 16.8900778381873 21.2340131784295  17.7074713344163 22.0514066746585  17.7074713344163 23.0597126512978  C 17.7074713344163 23.5453370610168  17.5139956969754 24.0109513088433  17.1698382325581 24.353568744186  Z M 22.0595376744186 1.23862595348837  C 20.104494133125 0.408065899080084  18.0000817264438 -0.013356864021149  15.8759729612403 0.000325457364341085  C 13.7518641960369 -0.0133568640211493  11.6474517893556 0.408065899080089  9.69240824806202 1.23862595348837  C 5.87623082157051 2.84088054914648  2.84088054914648 5.87623082157051  1.23862595348837 9.69240824806202  C 0.408065899080084 11.6474517893557  -0.0133568640211494 13.7518641960369  0.000325457364341085 15.8759729612403  C -0.0133568640211498 18.0000817264438  0.408065899080089 20.104494133125  1.23862595348837 22.0595376744186  C 2.84088054914648 25.8757151009101  5.87623082157051 28.9110653733341  9.69240824806202 30.5133199689923  C 11.6474517893556 31.3438800234005  13.7518641960369 31.7653027865018  15.8759729612403 31.7516204651163  C 18.0000817264438 31.7653027865018  20.104494133125 31.3438800234005  22.0595376744186 30.5133199689922  C 25.8757151009101 28.9110653733341  28.9110653733342 25.8757151009101  30.5133199689923 22.0595376744186  C 31.3438800234005 20.104494133125  31.7653027865018 18.0000817264438  31.7516204651163 15.8759729612403  C 31.7653027865018 13.7518641960369  31.3438800234005 11.6474517893557  30.5133199689922 9.69240824806202  C 28.9110653733341 5.87623082157051  25.8757151009101 2.84088054914648  22.0595376744186 1.23862595348837  Z " fill-rule="nonzero" fill="#000000" stroke="none" transform="matrix(1 0 0 1 678 158 )" />
  </g>
</svg>