<?xml version="1.0" encoding="utf-8"?>
<svg version="1.1" xmlns:xlink="http://www.w3.org/1999/xlink" width="32px" height="32px" xmlns="http://www.w3.org/2000/svg">
  <g transform="matrix(1 0 0 1 -864 -158 )">
    <path d="M 31.9291785714286 16  C 31.9291785714286 24.784  24.784 31.9291785714286  16 31.9291785714286  C 7.21714285714286 31.9291785714286  0.0708214285714287 24.784  0.0708214285714287 16  C 0.0708214285714287 7.21714285714286  7.21714285714286 0.0708214285714287  16 0.0708214285714287  C 24.784 0.0708214285714287  31.9291785714286 7.216  31.9291785714286 16  Z M 29.6434642857143 16  C 29.6434642857143 8.47653571428571  23.5223214285714 2.35653571428571  16 2.35653571428572  C 8.47657142857143 2.35653571428572  2.35653571428571 8.47653571428572  2.35653571428571 16  C 2.35653571428571 23.5223214285714  8.47653571428572 29.6434642857143  16 29.6434642857143  C 23.5223214285714 29.6434642857143  29.6434642857143 23.5234642857143  29.6434642857143 16  Z M 16 6.85714285714286  C 15.0532142857143 6.85714285714286  14.2857142857143 7.62464285714286  14.2857142857143 8.57142857142857  C 14.2857142857143 9.51821428571428  15.0532142857143 10.2857142857143  16 10.2857142857143  C 16.9467857142857 10.2857142857143  17.7142857142857 9.51821428571428  17.7142857142857 8.57142857142857  C 17.7142857142857 7.62464285714286  16.9467857142857 6.85714285714286  16 6.85714285714286  Z M 17 24  C 17.1428571428571 24.6320357142857  16.6308928571429 25.1428571428571  16 25.1428571428571  C 15.3691071428571 25.1428571428571  14.8571428571429 24.6320357142857  15 24  L 15 13.7142857142857  C 14.8571428571429 13.0833928571429  15.3691071428571 12.5714285714286  16 12.5714285714286  C 16.6308928571429 12.5714285714286  17.1428571428571 13.0833928571429  17 13.7142857142857  L 17 24  Z " fill-rule="nonzero" fill="#000000" stroke="none" transform="matrix(1 0 0 1 864 158 )" />
  </g>
</svg>