<?xml version="1.0" encoding="utf-8"?>
<svg version="1.1" xmlns:xlink="http://www.w3.org/1999/xlink" width="32px" height="32px" xmlns="http://www.w3.org/2000/svg">
  <g transform="matrix(1 0 0 1 -994 -158 )">
    <path d="M 27.1333333333333 27.3380530973451  C 33.2666666666667 21.1610619469027  33.2666666666667 11.1044247787611  27.1333333333333 4.92035398230088  C 24.1578947368421 1.92920353982301  20.2070175438596 0.279646017699115  16.0070175438597 0.279646017699115  C 11.8070175438597 0.279646017699115  7.85614035087719 1.92920353982301  4.88421052631579 4.92035398230088  C 1.91228070175439 7.91504424778761  0.273684210526317 11.8938053097345  0.273684210526317 16.1309734513274  C 0.273684210526317 20.3646017699115  1.90877192982456 24.3469026548673  4.88070175438597 27.341592920354  C 7.85263157894737 30.3327433628319  11.8 31.9823008849558  16.0035087719298 31.9823008849558  C 20.2070175438596 31.9823008849558  24.1578947368421 30.3327433628319  27.1333333333333 27.3380530973451  Z M 22.8140350877193 19.8300884955752  C 23.5649122807018 20.2690265486726  23.859649122807 21.1716814159292  23.4736842105263 21.8442477876106  C 23.2771929824561 22.187610619469  22.9859649122807 22.4318584070796  22.6491228070175 22.5309734513274  C 22.5333333333333 22.5663716814159  22.4140350877193 22.5805309734513  22.2947368421053 22.5805309734513  C 22.0561403508772 22.5805309734513  21.8175438596491 22.5132743362832  21.5929824561404 22.3858407079646  L 16.1543859649123 19.0690265486726  C 15.9719298245614 18.9663716814159  15.7473684210526 18.8424778761062  15.6280701754386 18.683185840708  C 14.9368421052632 18.2796460176991  14.5894736842105 17.8619469026549  14.5894736842105 17.4407079646018  L 14.5894736842105 8.29026548672566  C 14.5894736842105 7.47610619469027  15.2456140350877 6.81769911504425  16.0526315789474 6.81769911504425  C 16.859649122807 6.81769911504425  17.5157894736842 7.47964601769912  17.5157894736842 8.29026548672566  L 17.5157894736842 16.7433628318584  L 22.8140350877193 19.8300884955752  Z " fill-rule="nonzero" fill="#000000" stroke="none" transform="matrix(1 0 0 1 994 158 )" />
  </g>
</svg>