<?xml version="1.0" encoding="utf-8"?>
<svg version="1.1" xmlns:xlink="http://www.w3.org/1999/xlink" width="24px" height="33px" xmlns="http://www.w3.org/2000/svg">
  <g transform="matrix(1 0 0 1 -1136 -158 )">
    <path d="M 0.574280374537011 16.4993469387755  C 0.574280374537011 15.5221954136503  1.03279984761843 14.6009343972059  1.81428564492194 14.007918367347  L 18.4321133393139 1.40383673469387  C 18.9818397898841 0.986921212539073  19.6541963929963 0.761086655321833  20.3457144521876 0.761086655321833  C 22.0877782568559 0.761086655321833  23.5 2.16453690891331  23.5 3.89578053287278  C 23.5 3.89669722612712  23.4999995953774 3.89761391934348  23.4999987861324 3.89853061224494  L 23.4999987861324 29.1027755102041  C 23.4999987891413 30.8341560503163  22.0877770459974 32.237606303908  20.3457132413289 32.237606303908  C 19.6541957035893 32.237606303908  18.9818395779357 32.01177208682  18.4321133393139 31.5948571428571  L 1.81428564492194 18.990775510204  C 1.03279984761843 18.397759480345  0.574280374537011 17.4764984639007  0.574280374537011 16.4993469387755  Z " fill-rule="nonzero" fill="#000000" stroke="none" transform="matrix(1 0 0 1 1136 158 )" />
  </g>
</svg>