<?xml version="1.0" encoding="utf-8"?>
<svg version="1.1" xmlns:xlink="http://www.w3.org/1999/xlink" width="32px" height="34px" xmlns="http://www.w3.org/2000/svg">
  <g transform="matrix(1 0 0 1 -1263 -158 )">
    <path d="M 31.8877192982456 0.22666666666667  L 1.79649122807018 15.4133333333333  C 0.673684210526316 15.8666666666667  0 17  0 18.1333333333333  C 0 19.2666666666667  0.449122807017544 20.4  1.5719298245614 21.08  L 5.16491228070175 23.5733333333333  C 5.6140350877193 24.0266666666667  6.28771929824561 23.8  6.73684210526316 23.3466666666667  C 7.1859649122807 22.8933333333333  6.73684210526316 21.9866666666667  6.28771929824561 21.76  L 2.69473684210526 19.2666666666667  C 2.24561403508772 19.04  2.24561403508772 18.5866666666667  2.24561403508772 18.36  C 2.24561403508772 18.1333333333333  2.24561403508772 17.68  2.91929824561403 17.4533333333333  L 26.2736842105263 5.66666666666666  L 8.98245614035088 26.7466666666667  L 8.98245614035088 32.8666666666667  C 8.98245614035088 33.5466666666667  9.43157894736842 34  10.1052631578947 34  C 10.7789473684211 34  11.2280701754386 33.5466666666667  11.2280701754386 32.8666666666667  L 11.2280701754386 27.6533333333333  L 28.2947368421053 6.8  L 23.1298245614035 30.6  C 23.1298245614035 31.0533333333333  22.9052631578947 31.28  22.4561403508772 31.5066666666667  C 22.0070175438597 31.7333333333333  21.7824561403509 31.7333333333333  21.3333333333333 31.5066666666667  L 17.5157894736842 29.0133333333333  C 17.0666666666667 28.56  16.3929824561404 28.7866666666667  15.9438596491228 29.24  C 15.4947368421053 29.4666666666667  15.719298245614 30.1466666666667  16.1684210526316 30.3733333333333  L 19.9859649122807 32.8666666666667  C 20.659649122807 33.32  21.1087719298246 33.5466666666667  21.7824561403509 33.5466666666667  C 22.2315789473684 33.5466666666667  22.680701754386 33.5466666666667  23.1298245614035 33.32  C 24.2526315789474 32.8666666666667  24.9263157894737 31.96  25.1508771929825 30.8266666666667  L 31.8877192982456 0.22666666666667  Z " fill-rule="nonzero" fill="#000000" stroke="none" transform="matrix(1 0 0 1 1263 158 )" />
  </g>
</svg>