<?xml version="1.0" encoding="utf-8"?>
<svg version="1.1" xmlns:xlink="http://www.w3.org/1999/xlink" width="33px" height="32px" xmlns="http://www.w3.org/2000/svg">
  <g transform="matrix(1 0 0 1 -1044 -91 )">
    <path d="M 26.8125 28.8256  C 29.90625 26.368  32.175 23.0912  32.79375 18.7904  C 33.4125 14.4896  32.5875 10.5984  29.90625 7.1168  C 26.8125 2.6112  18.975 -0.8704  15.46875 0.5632  C 15.675 1.3824  15.675 1.9968  15.88125 2.816  C 24.3375 2.816  29.7 8.7552  30.31875 14.6944  C 30.9375 20.4288  27.43125 26.5728  22.275 28.416  L 22.275 22.6816  C 22.275 21.8624  21.8625 21.4528  21.24375 21.4528  C 20.00625 21.4528  19.59375 21.8624  20.00625 23.296  C 20.41875 25.5488  20.2125 27.8016  20.00625 30.0544  C 20.00625 31.2832  20.625 31.0784  22.06875 31.0784  L 27.225 31.0784  C 29.90625 31.0784  30.31875 31.488  30.31875 30.0544  C 30.31875 29.2352  30.1125 28.8256  29.08125 28.8256  L 26.8125 28.8256  Z M 16.9125 29.44  C 8.04375 29.6448  2.475 22.4768  2.475 16.128  C 2.475 11.2128  6.1875 5.0688  9.69375 4.4544  L 9.69375 9.3696  C 9.69375 10.3936  9.9 10.5984  10.93125 10.5984  C 11.9625 10.5984  12.16875 10.3936  12.16875 9.3696  L 12.16875 1.792  C 12.16875 0.768  11.9625 0.5632  10.93125 0.5632  L 3.3 0.5632  C 2.26875 0.5632  2.0625 0.768  2.0625 1.792  C 2.0625 2.816  2.0625 3.0208  3.3 3.0208  L 6.6 3.0208  C -0.825 8.96  -1.2375 17.9712  2.475 24.1152  C 5.98125 30.0544  12.99375 32.3072  17.325 31.6928  C 17.11875 30.8736  17.11875 30.2592  16.9125 29.44  Z " fill-rule="nonzero" fill="#000000" stroke="none" transform="matrix(1 0 0 1 1044 91 )" />
  </g>
</svg>