<?xml version="1.0" encoding="utf-8"?>
<svg version="1.1" xmlns:xlink="http://www.w3.org/1999/xlink" width="32px" height="32px" xmlns="http://www.w3.org/2000/svg">
  <g transform="matrix(1 0 0 1 -1140 -91 )">
    <path d="M 22.2409325663717 30.4882082831858  C 20.2904566017699 31.3131923185841  18.2193935221239 31.731498159292  16.0852295929204 31.731498159292  C 13.9510656637168 31.731498159292  11.8800025840708 31.3131923185841  9.92952661946903 30.4882082831858  C 8.04635341592921 29.6916957168142  6.35534446017699 28.5516782654867  4.90355369911505 27.0998875044248  C 3.4517629380531 25.6480967433628  2.31174548672567 23.9570877876106  1.51523292035398 22.0739145840708  C 0.690248884955754 20.1234024070796  0.271943044247789 18.0523755752212  0.271943044247789 15.9182116106195  C 0.271943044247789 13.7840476814159  0.690248884955753 11.7129846017699  1.51523292035398 9.76250863716814  C 2.31174548672567 7.87929922123894  3.4517629380531 6.18832647787611  4.90355369911505 4.73653571681416  C 6.35534446017699 3.28470874336283  8.04635341592921 2.14472750442478  9.92952661946903 1.34817872566372  C 11.8800387964602 0.523194690265489  13.9510656283186 0.104888849557524  16.0852295929204 0.104888849557524  C 18.2193935575221 0.104888849557524  20.2904566017699 0.523194690265488  22.2409325663717 1.34817872566372  C 24.1241057699115 2.14472750442478  25.8151147256637 3.28470874336283  27.2669054867257 4.73653571681416  C 28.7186962477876 6.18832647787611  29.858713699115 7.87933543362832  30.6552262654867 9.76250863716814  C 31.480210300885 11.7129846017699  31.8985161415929 13.7840476460177  31.8985161415929 15.9182116106195  C 31.8985161415929 18.052375539823  31.480210300885 20.123438619469  30.6552262654867 22.0739145840708  C 29.858713699115 23.9570877876106  28.7186962477876 25.6480967433628  27.2669054867257 27.0998875044248  C 25.8151147256637 28.5516782654867  24.1241057699115 29.6916957168142  22.2409325663717 30.4882082831858  Z M 25.6788791504425 6.32456205309735  C 23.1163392920354 3.76198601769911  19.7092549026549 2.35072902654867  16.0852295929204 2.35072902654867  C 12.4612404955752 2.35072902654867  9.05415610619469 3.76198598230089  6.49158003539823 6.32456205309735  C 3.92904021238938 8.8871381238938  2.51774700884956 12.2942225132743  2.51774700884956 15.9182116106195  C 2.51774700884956 19.5422007079646  3.92900396460177 22.9492850973451  6.49158003539823 25.5118611681416  C 9.05415610619469 28.0744372389381  12.4612404955752 29.4856941946903  16.0852295929204 29.4856941946903  C 19.7092186902655 29.4856941946903  23.1163393274336 28.0744372389381  25.6788791504425 25.5118611681416  C 28.2414552212389 22.9492850973451  29.6527121769911 19.5422007079646  29.6527121769911 15.9182116106195  C 29.6527121769911 12.2942225132743  28.2414552212389 8.8871381238938  25.6788791504425 6.32456205309735  Z M 11 21  L 11 10.2602882831858  L 21.8021968141593 10.2602882831858  L 21.8021968141593 21  L 11 21  Z " fill-rule="nonzero" fill="#000000" stroke="none" transform="matrix(1 0 0 1 1140 91 )" />
  </g>
</svg>