<?xml version="1.0" encoding="utf-8"?>
<svg version="1.1" xmlns:xlink="http://www.w3.org/1999/xlink" width="42px" height="32px" xmlns="http://www.w3.org/2000/svg">
  <g transform="matrix(1 0 0 1 -235 -213 )">
    <path d="M 27.9289792952269 31.344657399672  L 11.2738068814338 2.80459633167131  C 11.0034620538476 2.34133736940812  11.1589597426277 1.76719893104141  11.6272107195705 1.49973624447424  L 13.7176168666364 0.305706393727972  C 14.1858678435792 0.0382437071608066  14.7661931185663 0.192083638064838  15.0365379461524 0.655342600328028  L 31.6917103599455 29.1954036683287  C 31.9620551875318 29.6586626305919  31.8065574987516 30.2328010689586  31.3383065218089 30.5002637555258  L 29.2479003747429 31.694293606272  C 28.7796493978002 31.9617562928392  28.1993241228131 31.8079163619352  27.9289792952269 31.344657399672  Z M 2.10418391810344 16.7157811044776  L 2.06041379310346 16.6597412835821  C 2.01405356438789 16.5787526746314  2.01405356438789 16.4796353850701  2.06041379310346 16.3986467761194  L 2.10418391810344 16.3426069552239  L 10.2969195301724 8.24485573134328  C 10.4738908819084 8.06994006975164  10.573326724707 7.83260206501341  10.573326724707 7.58511443283581  C 10.573326724707 7.07007306014516  10.1513040211033 6.65254953248603  9.6307126336207 6.65254953248603  C 9.38087354978966 6.65254953248603  9.14125393070434 6.75067803864429  8.96450573706898 6.92537313432836  L 0.771770124999993 15.0231243880597  C -0.0175610490694233 15.8037269727893  -0.0728928060928818 17.0517309244195  0.644321849137919 17.8977114328358  L 0.771770124999993 18.0352636716418  L 8.96450573706898 26.1330149253731  C 9.14125393070434 26.3077100210572  9.38087354978966 26.4058385272155  9.6307126336207 26.4058385272155  C 10.1513040211033 26.4058385272155  10.573326724707 25.9883149995563  10.573326724707 25.4732736268657  C 10.573326724707 25.2257859946881  10.4738908819084 24.9884479899498  10.2969195301724 24.8135323283582  L 2.10418391810344 16.7157811044776  Z M 39.8958160818966 16.2394427761194  L 39.9395862068965 16.2954825970149  C 39.9859464356121 16.3764712059657  39.9859464356121 16.4755884955269  39.9395862068965 16.5565771044776  L 39.8958160818966 16.6126169253731  L 31.7030804698276 24.7103681492537  C 31.5261091180916 24.8852838108454  31.426673275293 25.1226218155836  31.426673275293 25.3701094477612  C 31.426673275293 25.8851508204519  31.8486959788967 26.302674348111  32.3692873663793 26.302674348111  C 32.6191264502103 26.302674348111  32.8587460692957 26.2045458419527  33.035494262931 26.0298507462687  L 41.228229875 17.9320994925373  C 42.0175610490694 17.1514969078077  42.0728928060929 15.9034929561775  41.3556781508621 15.0575124477612  L 41.228229875 14.9199602089552  L 33.035494262931 6.82220895522388  C 32.8587460692957 6.64751385953981  32.6191264502103 6.54938535338155  32.3692873663793 6.54938535338155  C 31.8486959788967 6.54938535338155  31.426673275293 6.96690888104068  31.426673275293 7.48195025373133  C 31.426673275293 7.72943788590894  31.5261091180916 7.96677589064717  31.7030804698276 8.1416915522388  L 39.8958160818966 16.2394427761194  Z M 12 5.97014925373134  L 12 27.4626865671642  L 15 27.4626865671642  L 15 17.1940298507463  L 18.49651357714 17.1940298507463  L 17.1029072971109 14.8059701492537  L 14.4827586206897 14.8059701492537  L 14.4827586206897 10.3162955619276  L 11.9466084697342 5.97020459122128  L 12 5.97014925373134  Z M 27.0344827586207 19.8837545337798  L 27.0344827586207 17.1940298507463  L 25.4645162528734 17.1939961368215  L 24.0708993890283 14.8059701492537  L 27.0344827586207 14.8059701492537  L 27.0344827586207 5.97014925373134  L 29 5.97014925373134  L 29 24.4341436793731  L 27.0344827586207 19.8837545337798  Z " fill-rule="nonzero" fill="#000000" stroke="none" transform="matrix(1 0 0 1 235 213 )" />
  </g>
</svg>