<?xml version="1.0" encoding="utf-8"?>
<svg version="1.1" xmlns:xlink="http://www.w3.org/1999/xlink" width="32px" height="32px" xmlns="http://www.w3.org/2000/svg">
  <g transform="matrix(1 0 0 1 -406 -91 )">
    <path d="M 32 15.9927272727273  C 32 15.2690909090909  31.4265486725664 14.6836363636364  30.7256637168142 15  L 4.48495575221239 15  L 15.7026548672566 2.34545454545455  C 16.1840707964602 1.81818181818182  16.1557522123894 0.989090909090909  15.6389380530973 0.494545454545454  C 15.1256637168142 0  14.3185840707965 0.029090909090909  13.8371681415929 0.56  L 0.619469026548673 15.1163636363636  L 0.612389380530973 15.1236363636364  C 0.605309734513274 15.1345454545455  0.594690265486726 15.1418181818182  0.587610619469026 15.1527272727273  C 0.580530973451327 15.16  0.576991150442478 15.1672727272727  0.569911504424779 15.1745454545455  C 0.562831858407079 15.1854545454545  0.55575221238938 15.1927272727273  0.548672566371681 15.2036363636364  C 0.541592920353982 15.2109090909091  0.538053097345133 15.2181818181818  0.530973451327434 15.2254545454545  C 0.523893805309734 15.2327272727273  0.520353982300885 15.2436363636364  0.513274336283186 15.2509090909091  C 0.506194690265487 15.2618181818182  0.499115044247787 15.2690909090909  0.495575221238938 15.28  C 0.492035398230089 15.2872727272727  0.488495575221239 15.2945454545455  0.48141592920354 15.3018181818182  L 0.460176991150442 15.3345454545455  C 0.456637168141593 15.3381818181818  0.456637168141593 15.3418181818182  0.453097345132743 15.3454545454545  L 0.410619469026548 15.4218181818182  C 0.39646017699115 15.4472727272727  0.385840707964601 15.4763636363636  0.375221238938053 15.5018181818182  C 0.361061946902654 15.5381818181818  0.346902654867257 15.5781818181818  0.332743362831858 15.6181818181818  C 0.332743362831858 15.6218181818182  0.329203539823009 15.6254545454545  0.329203539823009 15.6290909090909  C 0.325663716814159 15.6436363636364  0.31858407079646 15.6581818181818  0.31504424778761 15.6763636363636  C 0.311504424778761 15.6945454545455  0.304424778761062 15.7163636363636  0.300884955752212 15.7345454545455  C 0.300884955752212 15.7381818181818  0.300884955752212 15.7418181818182  0.297345132743363 15.7454545454545  C 0.293805309734513 15.76  0.293805309734513 15.7745454545455  0.290265486725663 15.7854545454546  C 0.290265486725663 15.7927272727273  0.286725663716814 15.8  0.286725663716814 15.8072727272727  C 0.286725663716814 15.8181818181818  0.283185840707964 15.8290909090909  0.283185840707964 15.84  C 0.283185840707964 15.8509090909091  0.279646017699115 15.8618181818182  0.279646017699115 15.8690909090909  C 0.279646017699115 15.88  0.279646017699115 15.8872727272727  0.276106194690265 15.8981818181818  C 0.276106194690265 15.9090909090909  0.272566371681416 15.92  0.272566371681416 15.9345454545455  L 0.272566371681416 16.0218181818182  C 0.272566371681416 16.3418181818182  0.385840707964601 16.6618181818182  0.615929203539823 16.9163636363636  L 13.8336283185841 31.4727272727273  C 14.0849557522124 31.7490909090909  14.4247787610619 31.8872727272727  14.7646017699115 31.8872727272727  C 15.0761061946903 31.8872727272727  15.387610619469 31.7709090909091  15.6318584070796 31.5345454545455  C 16.1451327433628 31.04  16.1734513274336 30.2145454545455  15.6955752212389 29.6836363636364  L 4.47079646017699 17  L 30.7256637168142 17  C 31.4300884955752 17.3018181818182  32 16.7163636363636  32 15.9927272727273  Z " fill-rule="nonzero" fill="#000000" stroke="none" transform="matrix(1 0 0 1 406 91 )" />
  </g>
</svg>