<?xml version="1.0" encoding="utf-8"?>
<svg version="1.1" xmlns:xlink="http://www.w3.org/1999/xlink" width="32px" height="6px" xmlns="http://www.w3.org/2000/svg">
  <g transform="matrix(1 0 0 1 -649 -104 )">
    <path d="M 2.98305084745763 0.090909102272726  C 4.58062028705535 0.090909102272726  5.87570620338983 1.39335346131365  5.87570620338983 3  C 5.87570620338983 4.60664653868634  4.58062028705535 5.90909089772727  2.98305084745763 5.90909089772727  C 1.38548140785991 5.90909089772727  0.0903954915254241 4.60664653868634  0.0903954915254241 3  C 0.0903954915254241 1.39335346131365  1.38548140785991 0.090909102272726  2.98305084745763 0.090909102272726  Z M 18.8926553559322 3  C 18.8926553559322 1.39335346131365  17.5975694395977 0.090909102272726  16 0.090909102272726  C 14.4024305604023 0.090909102272726  13.1073446440678 1.39335346131365  13.1073446440678 3  C 13.1073446440678 4.60664653868634  14.4024305604023 5.90909089772727  16 5.90909089772727  C 17.5975694395977 5.90909089772727  18.8926553559322 4.60664653868634  18.8926553559322 3  Z M 31.9096045084746 3  C 31.9096045084746 1.39335346131365  30.6145185921401 0.090909102272726  29.0169491525424 0.090909102272726  C 27.4193797129447 0.090909102272726  26.1242937966102 1.39335346131365  26.1242937966102 3  C 26.1242937966102 4.60664653868634  27.4193797129447 5.90909089772727  29.0169491525424 5.90909089772727  C 30.6145185921401 5.90909089772727  31.9096045084746 4.60664653868634  31.9096045084746 3  Z " fill-rule="nonzero" fill="#5c5c66" stroke="none" transform="matrix(1 0 0 1 649 104 )" />
  </g>
</svg>