<?xml version="1.0" encoding="utf-8"?>
<svg version="1.1" xmlns:xlink="http://www.w3.org/1999/xlink" width="33px" height="32px" xmlns="http://www.w3.org/2000/svg">
  <g transform="matrix(1 0 0 1 -115 -155 )">
    <path d="M 28.3377906976744 13.4784  C 28.1395348837209 13.1232  27.7654069767442 12.9024  27.3593023255814 13  L 5.38808139534884 13  C 4.98197674418605 12.9024  4.6078488372093 13.1232  4.40959302325581 13.4784  L 0.140697674418605 21.1424  C 0.0479651162790698 21.3088  0 21.4976  0 21.6896  L 0 30.8768  C 0 31.4976  0.50203488372093 32  1.12238372093023 32  L 31.625 32  C 32.2453488372093 32  32.7473837209302 31.4976  32.7473837209302 30.8768  L 32.7473837209302 21.6896  C 32.7473837209302 21.4976  32.6994186046512 21.312  32.6066860465116 21.1424  L 28.3377906976744 13.4784  Z M 28.9325581395349 21.4912  L 21.5331395348837 21.4912  C 21.005523255814 21.4912  20.5482558139535 21.8592  20.4363372093023 22.3776  C 20.0302325581395 24.2496  18.3642441860465 25.6512  16.3688953488372 25.6512  C 14.3735465116279 25.6512  12.7075581395349 24.2496  12.3014534883721 22.3776  C 12.1895348837209 21.8624  11.7322674418605 21.4912  11.2046511627907 21.4912  L 3.80523255813953 21.4912  C 2.96104651162791 21.4912  2.42063953488372 20.5952  2.81075581395349 19.8464  L 5.42325581395349 14.8608  C 5.61831395348837 14.4896  5.99883720930233 14.2592  6.41773255813954 14.2592  L 26.3200581395349 14.2592  C 26.7357558139535 14.2592  27.119476744186 14.4896  27.3145348837209 14.8608  L 29.9270348837209 19.8464  C 30.3171511627907 20.5952  29.7767441860465 21.4912  28.9325581395349 21.4912  Z M 25.8052325581395 7.4656  C 26.3392441860465 7.1552  26.521511627907 6.4736  26.2177325581395 5.936  C 26.1857558139535 5.8784  26.1505813953488 5.8176  26.1154069767442 5.76  C 25.8020348837209 5.2288  25.1209302325581 5.0496  24.5869186046512 5.3568  L 20.7369186046512 7.584  C 20.1933139534884 7.8976  20.0110465116279 8.5952  20.334011627907 9.1328  C 20.3627906976744 9.1776  20.3883720930233 9.2256  20.4139534883721 9.2736  C 20.7177325581395 9.8176  21.4116279069767 10.0032  21.9488372093023 9.6896  L 25.8052325581395 7.4656  Z M 12.4005813953488 9.136  C 12.7267441860465 8.5984  12.544476744186 7.9008  12.0040697674419 7.5872  L 8.15406976744186 5.3632  C 7.62005813953488 5.056  6.93895348837209 5.2352  6.62558139534884 5.7664  C 6.59040697674419 5.824  6.55843023255814 5.8816  6.52325581395349 5.9424  C 6.21947674418605 6.48  6.40174418604651 7.1616  6.93575581395349 7.472  L 10.7857558139535 9.696  C 11.3261627906977 10.0064  12.0200581395349 9.824  12.3206395348837 9.2768  C 12.3462209302326 9.2288  12.375 9.184  12.4005813953488 9.136  Z M 16.2921511627907 6.8896  L 16.3720930232558 6.8896  L 16.4520348837209 6.8896  C 17.0755813953488 6.8992  17.5872093023256 6.3936  17.5872093023256 5.7664  L 17.5872093023256 1.3184  C 17.5872093023256 0.700800000000001  17.0883720930233 0.201600000000001  16.4744186046512 0.195200000000001  L 16.2697674418605 0.195200000000001  C 15.6558139534884 0.2016  15.156976744186 0.704  15.156976744186 1.3184  L 15.156976744186 5.7664  C 15.156976744186 6.3904  15.6654069767442 6.8992  16.2921511627907 6.8896  Z " fill-rule="nonzero" fill="#000000" stroke="none" transform="matrix(1 0 0 1 115 155 )" />
  </g>
</svg>