<?xml version="1.0" encoding="utf-8"?>
<svg version="1.1" xmlns:xlink="http://www.w3.org/1999/xlink" width="30px" height="32px" xmlns="http://www.w3.org/2000/svg">
  <g transform="matrix(1 0 0 1 -295 -158 )">
    <path d="M 29.49878125 1.97  C 29.0026037722164 0.754694595469383  27.8081442130893 -0.028560427204161  26.49578125 0  L 3.42353125 0  C 1.66762316298097 0.00404383474664688  0.24588972108017 1.42839604916604  0.24588972108017 3.18430710943734  C 0.24588972108017 4.02719738412711  0.580164037730214 4.83568510084499  1.17540625 5.43246875  L 12 15.55734375  L 12 25.63296875  C 11.7260172468142 25.9948824282373  11.867468352766 26.3426397814034  12.12075 26.60115625  L 16.92884375 31.524125  C 17.1898835434814 31.7975963157231  17.5517866227095 31.9518502724133  17.92984375 31.95078125  C 18.1094511134857 31.9505273385101  18.2874710124452 31.9171459589801  18.45496875 31.8523125  C 18.9795980372004 31.6439750519302  19.3241855361495 31.1368259549322  19 30.57234375  L 19 15.49171875  L 28.87521875 5.43246875  C 29.7598760921889 4.50841960678083  30.0054886683826 3.14458912455891  29.49878125 1.96996875  Z " fill-rule="nonzero" fill="#000000" stroke="none" transform="matrix(1 0 0 1 295 158 )" />
  </g>
</svg>