<?xml version="1.0" encoding="utf-8"?>
<svg version="1.1" xmlns:xlink="http://www.w3.org/1999/xlink" width="32px" height="32px" xmlns="http://www.w3.org/2000/svg">
  <g transform="matrix(1 0 0 1 -401 -158 )">
    <path d="M 31.6668780487805 15.9797037037037  C 31.6668780487805 15.106962962963  30.968 14.3994567901235  30.1059024390244 15  L 17 15  L 17 1.69965432098765  C 17.5609756097561 0.826913580246914  16.8620975609756 0.119407407407408  16 0.119407407407408  C 15.1379024390244 0.119407407407408  14.4390243902439 0.826913580246914  15 1.69965432098765  L 15 15  L 1.89414634146342 15  C 1.03204878048781 14.3994567901235  0.333170731707318 15.106962962963  0.333170731707318 15.9797037037037  C 0.333170731707318 16.8524444444444  1.03204878048781 17.5599506172839  1.89414634146342 17  L 15 17  L 15 30.2597037037037  C 14.4390243902439 31.1324444444444  15.1379024390244 31.839950617284  16 31.839950617284  C 16.8620975609756 31.839950617284  17.5609756097561 31.1324444444444  17 30.2597037037037  L 17 17  L 30.1059024390244 17  C 30.968 17.5599506172839  31.6668780487805 16.8524444444444  31.6668780487805 15.9797037037037  Z " fill-rule="nonzero" fill="#000000" stroke="none" transform="matrix(1 0 0 1 401 158 )" />
  </g>
</svg>