<?xml version="1.0" encoding="utf-8"?>
<svg version="1.1" xmlns:xlink="http://www.w3.org/1999/xlink" width="32px" height="32px" xmlns="http://www.w3.org/2000/svg">
  <g transform="matrix(1 0 0 1 -530 -158 )">
    <path d="M 31.9994400312499 16.1234527131783  C 31.9994400312499 24.8912166821706  24.83626215625 32  16 32  C 7.16373784375003 32  0.000559968750053486 24.8912166821706  0.000559968750053486 16.1234527131783  C 0.000559968750053486 7.35568868217055  7.16373784375003 0.24803934883721  16 0.24803934883721  C 24.83626215625 0.24803934883721  31.9994400312499 7.35568868217055  31.9994400312499 16.1234527131783  Z M 29.71380575 16.1245866356589  C 29.71380575 8.60984635658915  23.5734492187501 2.51708948837208  16 2.51708948837208  C 8.42655078124994 2.51708948837208  2.28619424999999 8.60984635658915  2.28619424999999 16.1245866356589  C 2.28619424999999 23.6393269457364  8.42655078124994 29.7320838139535  16 29.7320838139535  C 23.5734492187501 29.7320838139535  29.71380575 23.6393269457364  29.71380575 16.1245866356589  Z M 14.52348025 21.4609934573643  C 14.5223374375 21.4621274108527  14.5223374375 21.4621274108527  14.52119459375 21.4632613643411  L 14.244632875 21.7365452713178  L 14.1909204687501 21.6832492403101  C 14.0457826875 21.7512867286822  13.88578828125 21.7943771472868  13.7143657187499 21.7943771472868  C 13.4709456875 21.7943771472868  13.25723884375 21.7013925891473  13.07210246875 21.5732552868217  L 13.0446748750001 21.5993363410853  L 12.9075368125 21.4632613643411  C 12.906394 21.4621274108527  12.906394 21.4621274108527  12.90525115625 21.4609934573643  L 8.19570171875 16.7879521550388  L 9.81278799999996 15.184535379845  L 13.7143657187499 19.0558683410853  L 16.7553456349442 16.0380614402584  L 22.325492875 10.5103600930233  L 23.94257915625 12.1149108217054  L 14.52348025 21.4609934573643  Z " fill-rule="nonzero" fill="#000000" stroke="none" transform="matrix(1 0 0 1 530 158 )" />
  </g>
</svg>