<?xml version="1.0" encoding="utf-8"?>
<svg version="1.1" xmlns:xlink="http://www.w3.org/1999/xlink" width="32px" height="32px" xmlns="http://www.w3.org/2000/svg">
  <g transform="matrix(1 0 0 1 -943 -158 )">
    <path d="M 31.8399634285714 15.9764650666667  C 31.8399978487395 7.26249813333333  24.7164342857143 0.198468266666667  15.9292407394958 0.198468266666667  C 7.14211603361344 0.198468266666667  0.018586890756302 7.262464  0.018586890756302 15.9764650666667  C 0.018586890756302 24.6905344  7.14211603361344 31.7545984  15.9292407394958 31.7545984  C 24.7164342857143 31.7545984  31.8399634285714 24.6905002666667  31.8399634285714 15.9764650666667  Z M 23.4049570420168 22.5466538666667  C 23.6466210420168 22.7876693333333  23.6452442352941 23.1786325333333  23.4022378487395 23.419648  C 23.2807346554622 23.5388074666667  23.1227460840336 23.5990528  22.9634495462185 23.5990528  C 22.8041530084034 23.5990528  22.6448220504202 23.5388074666667  22.5219420504202 23.4169514666667  L 15.9291718991597 16.8515072  L 9.35109915966387 23.4035712  C 9.22959596638655 23.5254272  9.06892262184874 23.5856725333333  8.90959166386555 23.5856725333333  C 8.75026070588235 23.5856725333333  8.59230655462185 23.5254272  8.47080336134454 23.4062677333333  C 8.22776255462185 23.1652522666667  8.22642016806723 22.7742890666667  8.4681185882353 22.5333077333333  L 15.0506315294118 15.976704  L 8.45321465546219 9.40658346666667  C 8.21155065546218 9.165568  8.21289304201681 8.7746048  8.45589942857143 8.53362346666666  C 8.69894023529412 8.29530453333333  9.09046964705882 8.292608  9.33619522689076 8.53628586666667  L 15.9289653781513 15.1017301333333  L 22.5070381176471 8.54970026666667  C 22.7500789243698 8.3060224  23.1443275294118 8.3086848  23.3873339159664 8.54703786666667  C 23.6303747226891 8.78805333333333  23.6317171092437 9.17901653333333  23.3900186890756 9.41999786666667  L 16.8075401680672 15.9765333333333  L 23.4049570420168 22.5466538666667  Z " fill-rule="nonzero" fill="#000000" stroke="none" transform="matrix(1 0 0 1 943 158 )" />
  </g>
</svg>