<?xml version="1.0" encoding="utf-8"?>
<svg version="1.1" xmlns:xlink="http://www.w3.org/1999/xlink" width="32px" height="32px" xmlns="http://www.w3.org/2000/svg">
  <g transform="matrix(1 0 0 1 -870 -91 )">
    <path d="M 14 4  L 28 4  L 28 18  C 28 19.2  27.2 20  26 20  L 24 20  C 22.8 20  22 20.8  22 22  C 22 23.2  22.8 24  24 24  L 30 24  C 31.2 24  32 23.2  32 22  L 32 0  L 10 0  C 8.8 0  8 0.8  8 2  L 8 10  C 8 11.2  8.8 12  10 12  C 11.2 12  12 11.2  12 10  L 12 6  C 12 4.8  12.8 4  14 4  Z M 6 12  L 20 12  L 20 26  C 20 27.2  19.2 28  18 28  L 6 28  C 4.8 28  4 27.2  4 26  L 4 14  C 4 12.8  4.8 12  6 12  Z M 24 8  L 2 8  C 0.8 8  0 8.8  0 10  L 0 30  C 0 31.2  0.8 32  2 32  L 22 32  C 23.2 32  24 31.2  24 30  L 24 8  Z " fill-rule="nonzero" fill="#000000" stroke="none" transform="matrix(1 0 0 1 870 91 )" />
  </g>
</svg>