<?xml version="1.0" encoding="utf-8"?>
<svg version="1.1" xmlns:xlink="http://www.w3.org/1999/xlink" width="32px" height="32px" xmlns="http://www.w3.org/2000/svg">
  <g transform="matrix(1 0 0 1 -927 -91 )">
    <path d="M 29.7533071764706 0.472261450980392  C 29.9897763490947 0.227426847208162  30.3155587901558 0.0891546830087187  30.655943356207 0.0891546830087187  C 31.3490065716809 0.0891546830087187  31.9108453169913 0.650993428319096  31.9108453169913 1.34405664379303  C 31.9108453169913 1.68444120984417  31.7725731527918 2.01022365090534  31.5277385490196 2.24669282352941  L 13.7821699215686 19.9926797254902  C 13.5468102248757 20.2280394221831  13.2275939731384 20.3602631229826  12.8947450980392 20.3602631229826  C 12.2016231966566 20.3602631229826  11.6397368770174 19.7983768033434  11.6397368770174 19.1052549019608  C 11.6397368770174 18.7724060268616  11.7719605778169 18.4531897751243  12.0073202745098 18.2178300784314  L 29.7533071764706 0.472679725490196  Z M 29 27.2941176470588  L 29 13.4901960784314  C 29.3856209019608 13.4901960784314  29.3856209019608 13.4901960784314  29.3856209019608 13.4901960784314  C 29.3856209019608 12.7971328629574  29.9474596472712 12.2352941176471  30.6405228627451 12.2352941176471  C 31.333586078219 12.2352941176471  31.8954248235294 12.7971328629574  31.8954248235294 13.4901960784314  L 31.8954248235294 27.2941176470588  C 31.8954248235294 29.8352941176471  29.8352941176471 31.8954248235294  27.2941176470588 31.8954248235294  L 4.70588235294118 31.8954248235294  C 2.16470588235294 31.8954248235294  0.104575176470588 29.8352941176471  0.104575176470588 27.2941176470588  L 0.104575176470588 4.70588235294118  C 0.104575176470588 2.16470588235294  2.16470588235294 0.104575176470588  4.70588235294118 0.104575176470588  L 18.091503254902 0.104575176470588  C 18.7845664703759 0.104575176470589  19.3464052156863 0.666413921780966  19.3464052156863 1.3594771372549  C 19.3464052156863 2.05254035272884  18.7845664703759 2.61437909803922  18.091503254902 2.61437909803922  C 18.091503254902 2.61437909803922  18.091503254902 2.61437909803922  18.091503254902 3  L 4.70588235294118 3  C 3.55077700103736 2.61437909803922  2.61437909803922 3.55077700103736  3 4.70588235294118  L 3 27.2941176470588  C 2.61437909803922 28.4492229989626  3.55077700103736 29.3856209019608  4.70588235294118 29  L 27.2941176470588 29  C 28.4492229989626 29.3856209019608  29.3856209019608 28.4492229989626  29 27.2941176470588  Z " fill-rule="nonzero" fill="#000000" stroke="none" transform="matrix(1 0 0 1 927 91 )" />
  </g>
</svg>