<?xml version="1.0" encoding="utf-8"?>
<svg version="1.1" xmlns:xlink="http://www.w3.org/1999/xlink" width="34px" height="32px" xmlns="http://www.w3.org/2000/svg">
  <g transform="matrix(1 0 0 1 -988 -91 )">
    <path d="M 33.9603813559322 20.3122807017544  C 33.9639830508475 19.519298245614  33.3048728813559 18.8736842105263  32.4908898305085 18.8736842105263  C 31.676906779661 18.8736842105263  31.0141949152542 19.5157894736842  31.0141949152542 20.3122807017544  L 31.0141949152542 27.4982456140351  C 31.0141949152542 28.2912280701754  30.3514830508475 28.9368421052632  29.5375 29  L 4.45889830508475 29  C 3.64491525423729 28.9368421052632  2.98220338983051 28.2912280701754  2.98220338983051 27.4982456140351  L 2.98220338983051 20.3122807017544  C 2.98220338983051 19.519298245614  2.32309322033898 18.8736842105263  1.50550847457627 18.8736842105263  C 0.68792372881356 18.8736842105263  0.0288135593220343 19.5157894736842  0.0288135593220343 20.3122807017544  L 0.0288135593220343 27.4982456140351  C 0.0288135593220343 29.8771929824561  2.01334745762712 31.8105263157895  4.45529661016949 31.8105263157895  L 29.5338983050847 31.8105263157895  C 31.9758474576271 31.8105263157895  33.9603813559322 29.8771929824561  33.9603813559322 27.4982456140351  L 33.9603813559322 20.3122807017544  Z M 7.61398305084746 10.7719298245614  C 8.18665254237288 11.3298245614035  9.12669491525424 11.3298245614035  9.69936440677966 10.7719298245614  L 16 5.09824561403509  L 16 23.1859649122807  C 15.5233050847458 23.9754385964912  16.1860169491525 24.6245614035088  17 24.6245614035088  C 17.8103813559322 24.6245614035088  18.4766949152542 23.9789473684211  18 23.1859649122807  L 18 5.09824561403509  L 24.3006355932203 10.7719298245614  C 24.8733050847458 11.3298245614035  25.8133474576271 11.3298245614035  26.3860169491525 10.7719298245614  C 26.958686440678 10.2140350877193  26.958686440678 9.29824561403509  26.3860169491525 8.74035087719298  L 18.0625 0.628070175438597  C 18.0552966101695 0.621052631578948  18.0516949152542 0.614035087719298  18.048093220339 0.610526315789474  C 17.8427966101695 0.410526315789474  17.5906779661017 0.28421052631579  17.3241525423729 0.228070175438597  C 17.3169491525424 0.224561403508772  17.3061440677966 0.221052631578948  17.2989406779661 0.221052631578948  C 17.2016949152542 0.203508771929825  17.1044491525424 0.192982456140351  17.0072033898305 0.192982456140351  C 16.9099576271186 0.192982456140351  16.8091101694915 0.203508771929825  16.7154661016949 0.221052631578948  C 16.7046610169491 0.224561403508772  16.6974576271186 0.228070175438597  16.6902542372881 0.228070175438597  C 16.4237288135593 0.28421052631579  16.1716101694915 0.410526315789474  15.966313559322 0.610526315789474  C 15.9591101694915 0.617543859649123  15.9555084745763 0.624561403508772  15.951906779661 0.628070175438597  L 7.61398305084746 8.74035087719298  C 7.04131355932203 9.29824561403509  7.04131355932203 10.2140350877193  7.61398305084746 10.7719298245614  Z " fill-rule="nonzero" fill="#000000" stroke="none" transform="matrix(1 0 0 1 988 91 )" />
  </g>
</svg>