<?xml version="1.0" encoding="utf-8"?>
<svg version="1.1" xmlns:xlink="http://www.w3.org/1999/xlink" width="28px" height="32px" xmlns="http://www.w3.org/2000/svg">
  <g transform="matrix(1 0 0 1 -1095 -91 )">
    <path d="M 28 25  C 28 28.8  24.8 32  21 32  L 7 32  C 3.2 32  0 28.8  0 25  L 0 7  C 0 3.2  3.2 0  7 0  L 21 0  C 24.8 0  28 3.2  28 7  L 28 25  Z M 21 2  L 7 2  C 4.2 2  2 4.2  2 7  L 2 25  C 2 27.8  4.2 30  7 30  L 21 30  C 23.8 30  26 27.8  26 25  L 26 7  C 26 4.2  23.8 2  21 2  Z M 22 8  C 22 8.6  21.6 9  21 9  L 7 9  C 6.4 9  6 8.6  6 8  C 6 7.4  6.4 7  7 7  L 21 7  C 21.6 7  22 7.4  22 8  Z M 22 14  C 22 14.6  21.6 15  21 15  L 7 15  C 6.4 15  6 14.6  6 14  C 6 13.4  6.4 13  7 13  L 21 13  C 21.6 13  22 13.4  22 14  Z M 22 20  C 22 20.6  21.6 21  21 21  L 7 21  C 6.4 21  6 20.6  6 20  C 6 19.4  6.4 19  7 19  L 21 19  C 21.6 19  22 19.4  22 20  Z " fill-rule="nonzero" fill="#000000" stroke="none" transform="matrix(1 0 0 1 1095 91 )" />
  </g>
</svg>