<?xml version="1.0" encoding="utf-8"?>
<svg version="1.1" xmlns:xlink="http://www.w3.org/1999/xlink" width="27px" height="32px" xmlns="http://www.w3.org/2000/svg">
  <g transform="matrix(1 0 0 1 -1189 -90 )">
    <path d="M 20 9.15  C 20.24296875 7.89642857142857  19.23046875 6.86785714285714  17.996484375 7  L 2.2640625 7  C 1.0265625 6.86785714285714  0.017578125 7.89642857142857  0 9.15  L 0 29.7  C 0.017578125 30.9571428571429  1.030078125 31.9821428571429  2.2640625 32  L 17.996484375 32  C 19.233984375 31.9821428571429  20.24296875 30.9535714285714  20 29.7  L 20 9.15  Z M 18 9.15  L 18 29.7  L 2.2640625 29.7  L 2.2640625 9.15  L 18 9.15  Z M 27 2.3  C 26.9859375 1.04642857142857  25.9734375 0.0178571428571429  24.7359375 0  L 9.003515625 0  C 7.766015625 0.0178571428571429  6.75703125 1.04642857142857  6.75703125 2.3  L 6.75703125 4.58214285714286  L 9.003515625 4.58214285714286  L 9.003515625 2.3  L 24.7359375 2.3  L 24.7359375 22.85  L 22.489453125 22.85  L 22.489453125 25.1321428571429  L 24.7359375 25.1321428571429  C 25.9734375 25.1321428571429  26.982421875 24.1035714285714  27 22.85  L 27 2.3  Z " fill-rule="nonzero" fill="#000000" stroke="none" transform="matrix(1 0 0 1 1189 90 )" />
  </g>
</svg>