<?xml version="1.0" encoding="utf-8"?>
<svg version="1.1" xmlns:xlink="http://www.w3.org/1999/xlink" width="31px" height="32px" xmlns="http://www.w3.org/2000/svg">
  <g transform="matrix(1 0 0 1 -1321 -158 )">
    <path d="M 30.043696969697 5.4911067961165  C 30.5186388888889 5.27693203883495  30.7572058080808 4.8812427184466  30.7297285353535 4.36007766990291  C 30.7014292929293 3.82295145631068  30.4003143939394 3.48629126213592  29.8711616161616 3.39060194174757  C 29.4957563131313 3.32271844660194  29.1107613636364 3.27495145631068  28.7299154040404 3.27398058252427  C 25.3562777777778 3.26520388349515  21.982601010101 3.2688932038835  18.6089242424242 3.26885436893204  C 17.3035189393939 3.26885436893204  17.2880580808081 3.26873786407767  17.2966691919192 1.98943689320388  C 17.3008573232323 1.3648932038835  17.2075833333333 0.797980582524272  16.6030833333333 0.483766990291262  C 15.8795542929293 0.10768932038835  15.1025972222222 0.0970873786407767  14.385369949495 0.453320388349515  C 13.6821553030303 0.802563106796116  13.5715808080808 1.4741359223301  13.666851010101 2.19347572815534  C 13.6859911616162 2.33801941747573  13.6576136363636 2.48904854368932  13.6791805555556 2.63297087378641  C 13.7539797979798 3.13254368932039  13.5510707070707 3.28054368932039  13.0446590909091 3.27988349514563  C 10.4715416666667 3.27646601941748  7.89834595959597 3.31332038834951  5.32515025252526 3.32928155339806  C 4.02573358585859 3.33735922330097  2.72604292929293 3.31825242718447  1.42682196969698 3.33658252427184  C 0.74466540404041 3.34621359223301  0.197585858585864 3.5618640776699  0.172339646464652 4.38058252427184  C 0.147602272727278 5.1831067961165  0.603286616161622 5.55988349514563  1.33832323232324 5.66147572815534  C 1.65803030303031 5.70566990291262  1.99409848484849 5.71654368932039  2.31235732323233 5.67099029126214  C 3.02782323232324 5.56858252427184  3.25417803030304 5.78885436893204  3.24458838383839 6.55141747572816  C 3.19812752525253 10.2504466019417  3.22360858585859 13.9503300970874  3.22360858585859 17.6499417475728  C 3.22360858585859 21.3201553398058  3.22157323232324 24.9904077669903  3.22439141414142 28.6606213592233  C 3.22603535353536 30.7725825242718  4.30348106060607 31.8796116504854  6.42858585858586 31.8843883495146  C 12.4656401515152 31.8980194174757  18.5027335858586 31.8964660194175  24.5397878787879 31.8852427184466  C 26.666928030303 31.8812815533981  27.7314962121212 30.7977475728155  27.740303030303 28.6636116504854  C 27.7505580808081 26.1678834951456  27.7426906565657 23.6721165048544  27.7426906565657 21.1763495145631  C 27.7426906565657 16.3022912621359  27.7621439393939 11.4280776699029  27.7223371212121 6.55433009708738  C 27.7161527777778 5.79840776699029  27.928494949495 5.57021359223301  28.6503017676768 5.67118446601942  C 29.1209772727273 5.73700970873786  29.605 5.68900970873786  30.043696969697 5.4911067961165  Z M 25.2806957070707 26.9400776699029  C 25.2811654040404 28.816932038835  24.7202689393939 29.3530873786408  22.8544368686869 29.3597281553398  C 17.8512247474747 29.3775533980583  12.8480126262626 29.4027572815534  7.84480050505051 29.419145631068  C 6.19381565656566 29.4245436893204  5.68431186868687 28.910213592233  5.68317676767677 27.258213592233  C 5.68082828282828 23.8207766990291  5.68247222222222 20.3833398058252  5.68247222222222 16.9459029126214  C 5.68247222222222 13.4497087378641  5.69632828282828 9.95343689320388  5.66896843434344 6.45743689320388  C 5.66434974747475 5.86792233009709  5.77801641414142 5.66073786407767  6.42854671717172 5.66361165048544  C 12.469202020202 5.69021359223301  18.510053030303 5.68873786407767  24.5507083333333 5.66477669902913  C 25.1549343434343 5.66236893203883  25.2675050505051 5.85320388349515  25.2668396464647 6.40466019417476  C 25.2585416666667 13.249786407767  25.2790126262626 20.0949514563107  25.2806957070707 26.9400776699029  Z M 13.2227916666667 10.6688155339806  C 13.2240050505051 13.0149126213592  13.2231439393939 15.360932038835  13.2229873737374 17.7069514563107  C 13.2227916666667 20.1339029126214  13.2326944444444 22.5608932038835  13.2182121212121 24.9877281553398  C 13.2119494949495 26.0383300970874  12.3893535353535 26.6228737864078  11.5761515151515 26.1858252427184  C 11.0430063131313 25.8993009708738  10.9818674242424 25.4057087378641  10.9835505050505 24.8670291262136  C 10.9920441919192 22.1434951456311  10.9874646464646 19.4199223300971  10.9874255050505 16.6963495145631  C 10.9874255050505 14.6739029126214  10.9869166666667 12.6514563106796  10.9876212121212 10.6290097087379  C 10.9880126262626 9.53366990291262  11.3584078282828 9.01126213592233  12.1238573232323 9.02190291262136  C 12.8785820707071 9.03238834951456  13.2222045454545 9.54454368932039  13.2227916666667 10.6688155339806  Z M 20.3721275252525 9.73324271844661  C 20.3756893939394 12.3454368932039  20.3733017676768 14.9577087378641  20.3733017676768 17.5699805825243  C 20.3733017676768 20.1822524271845  20.3763939393939 22.7944854368932  20.3717361111111 25.4067572815534  C 20.3699356060606 26.412  19.8855997474748 27.0247766990291  19.1325580808081 27.0030679611651  C 18.4026098484849 26.9820194174757  17.9430113636364 26.3977087378641  17.9421893939394 25.4434563106796  C 17.9377272727273 20.1895922330097  17.9375315656566 14.9357281553398  17.9422676767677 9.68186407766991  C 17.9431679292929 8.68563106796117  18.3626856060606 8.16897087378641  19.1373724747475 8.15914563106797  C 19.9329608585859 8.14904854368933  20.3707184343434 8.69899029126214  20.3721275252525 9.73324271844661  Z " fill-rule="nonzero" fill="#000000" stroke="none" transform="matrix(1 0 0 1 1321 158 )" />
  </g>
</svg>