<?xml version="1.0" encoding="utf-8"?>
<svg version="1.1" xmlns:xlink="http://www.w3.org/1999/xlink" width="24px" height="24px" xmlns="http://www.w3.org/2000/svg">
  <g transform="matrix(1 0 0 1 -89 -170 )">
    <path d="M 101 170.5  C 107.44 170.5  112.5 175.56  112.5 182  C 112.5 188.44  107.44 193.5  101 193.5  C 94.56 193.5  89.5 188.44  89.5 182  C 89.5 175.56  94.56 170.5  101 170.5  Z " fill-rule="nonzero" fill="#f3f3f3" stroke="none" />
    <path d="M 101 170.5  C 107.44 170.5  112.5 175.56  112.5 182  C 112.5 188.44  107.44 193.5  101 193.5  C 94.56 193.5  89.5 188.44  89.5 182  C 89.5 175.56  94.56 170.5  101 170.5  Z " stroke-width="1" stroke="#000000" fill="none" stroke-opacity="0.0470588235294118" />
  </g>
</svg>