<?xml version="1.0" encoding="utf-8"?>
<svg version="1.1" xmlns:xlink="http://www.w3.org/1999/xlink" width="32px" height="32px" xmlns="http://www.w3.org/2000/svg">
  <g transform="matrix(1 0 0 1 -85 -118 )">
    <path d="M 101 118.5  C 109.68 118.5  116.5 125.32  116.5 134  C 116.5 142.68  109.68 149.5  101 149.5  C 92.32 149.5  85.5 142.68  85.5 134  C 85.5 125.32  92.32 118.5  101 118.5  Z " fill-rule="nonzero" fill="#f3f3f3" stroke="none" />
    <path d="M 101 118.5  C 109.68 118.5  116.5 125.32  116.5 134  C 116.5 142.68  109.68 149.5  101 149.5  C 92.32 149.5  85.5 142.68  85.5 134  C 85.5 125.32  92.32 118.5  101 118.5  Z " stroke-width="1" stroke="#000000" fill="none" stroke-opacity="0.0470588235294118" />
  </g>
</svg>